<svg xmlns="http://www.w3.org/2000/svg" width="24" height="24" viewBox="0 0 24 24" fill="none">
    <mask id="mask0_1053_6744" style="mask-type:alpha" maskUnits="userSpaceOnUse" x="0" y="0" width="24" height="24">
        <rect width="24" height="24" fill="#D9D9D9"/>
    </mask>
    <g mask="url(#mask0_1053_6744)">
        <path d="M10.74 16.14L17.085 9.795L15.825 8.535L10.74 13.62L8.175 11.055L6.915 12.315L10.74 16.14ZM12 21C10.755 21 9.585 20.7638 8.49 20.2912C7.395 19.8187 6.4425 19.1775 5.6325 18.3675C4.8225 17.5575 4.18125 16.605 3.70875 15.51C3.23625 14.415 3 13.245 3 12C3 10.755 3.23625 9.585 3.70875 8.49C4.18125 7.395 4.8225 6.4425 5.6325 5.6325C6.4425 4.8225 7.395 4.18125 8.49 3.70875C9.585 3.23625 10.755 3 12 3C13.245 3 14.415 3.23625 15.51 3.70875C16.605 4.18125 17.5575 4.8225 18.3675 5.6325C19.1775 6.4425 19.8187 7.395 20.2912 8.49C20.7638 9.585 21 10.755 21 12C21 13.245 20.7638 14.415 20.2912 15.51C19.8187 16.605 19.1775 17.5575 18.3675 18.3675C17.5575 19.1775 16.605 19.8187 15.51 20.2912C14.415 20.7638 13.245 21 12 21Z" fill="#2FC385"/>
    </g>
</svg>