<svg width="52" height="52" viewBox="0 0 52 52" fill="none" xmlns="http://www.w3.org/2000/svg">
<g id="icon">
<circle id="Ellipse 48" cx="26" cy="26" r="26" fill="#2FC385"/>
<g id="psychology">
<mask id="mask0_1057_931" style="mask-type:alpha" maskUnits="userSpaceOnUse" x="13" y="13" width="26" height="26">
<rect id="Bounding box" x="13" y="13" width="26" height="26" fill="#D9D9D9"/>
</mask>
<g mask="url(#mask0_1057_931)">
<path id="psychology_2" d="M24.9167 29.2501H27.0833L27.2458 27.8959C27.3903 27.8417 27.5212 27.7786 27.6385 27.7063C27.7559 27.6341 27.8597 27.5529 27.95 27.4626L29.1958 28.0042L30.2792 26.1626L29.1958 25.3501C29.2319 25.2056 29.25 25.0612 29.25 24.9167C29.25 24.7723 29.2319 24.6279 29.1958 24.4834L30.2792 23.6709L29.1958 21.8292L27.95 22.3709C27.8597 22.2806 27.7559 22.1994 27.6385 22.1272C27.5212 22.0549 27.3903 21.9917 27.2458 21.9376L27.0833 20.5834H24.9167L24.7542 21.9376C24.6097 21.9917 24.4788 22.0549 24.3615 22.1272C24.2441 22.1994 24.1403 22.2806 24.05 22.3709L22.8042 21.8292L21.7208 23.6709L22.8042 24.4834C22.7681 24.6279 22.75 24.7723 22.75 24.9167C22.75 25.0612 22.7681 25.2056 22.8042 25.3501L21.7208 26.1626L22.8042 28.0042L24.05 27.4626C24.1403 27.5529 24.2441 27.6341 24.3615 27.7063C24.4788 27.7786 24.6097 27.8417 24.7542 27.8959L24.9167 29.2501ZM26 26.5417C25.5486 26.5417 25.1649 26.3838 24.849 26.0678C24.533 25.7518 24.375 25.3681 24.375 24.9167C24.375 24.4654 24.533 24.0817 24.849 23.7657C25.1649 23.4497 25.5486 23.2917 26 23.2917C26.4514 23.2917 26.8351 23.4497 27.151 23.7657C27.467 24.0817 27.625 24.4654 27.625 24.9167C27.625 25.3681 27.467 25.7518 27.151 26.0678C26.8351 26.3838 26.4514 26.5417 26 26.5417ZM19.5 36.8334V32.1751C18.4708 31.2362 17.6719 30.1393 17.1031 28.8845C16.5344 27.6296 16.25 26.307 16.25 24.9167C16.25 22.2084 17.1979 19.9063 19.0938 18.0105C20.9896 16.1147 23.2917 15.1667 26 15.1667C28.2569 15.1667 30.2566 15.8303 31.999 17.1574C33.7413 18.4845 34.8743 20.2133 35.3979 22.3438L36.8063 27.8959C36.8965 28.239 36.8333 28.5504 36.6167 28.8303C36.4 29.1101 36.1111 29.2501 35.75 29.2501H33.5833V32.5001C33.5833 33.0959 33.3712 33.606 32.9469 34.0303C32.5226 34.4546 32.0125 34.6667 31.4167 34.6667H29.25V36.8334H19.5Z" fill="white"/>
</g>
</g>
</g>
</svg>
