<svg xmlns="http://www.w3.org/2000/svg" width="52" height="52" viewBox="0 0 52 52" fill="none">
    <circle cx="26" cy="26" r="26" fill="#2FC385"/>
    <mask id="mask0_1053_7222" style="mask-type:alpha" maskUnits="userSpaceOnUse" x="13" y="13" width="26" height="26">
        <rect x="13" y="13" width="26" height="26" fill="#D9D9D9"/>
    </mask>
    <g mask="url(#mask0_1053_7222)">
        <path d="M26 24.9168C25.0972 24.9168 24.3299 24.6008 23.6979 23.9689C23.066 23.3369 22.75 22.5696 22.75 21.6668C22.75 20.764 23.066 19.9966 23.6979 19.3647C24.3299 18.7328 25.0972 18.4168 26 18.4168C26.9028 18.4168 27.6701 18.7328 28.3021 19.3647C28.934 19.9966 29.25 20.764 29.25 21.6668C29.25 22.5696 28.934 23.3369 28.3021 23.9689C27.6701 24.6008 26.9028 24.9168 26 24.9168ZM19.5 31.4168V29.3584C19.5 28.9793 19.5948 28.6227 19.7844 28.2887C19.9739 27.9546 20.2312 27.6883 20.5562 27.4897C21.3687 27.0203 22.2264 26.6546 23.1292 26.3928C24.0319 26.131 24.9889 26.0001 26 26.0001C27.0111 26.0001 27.968 26.131 28.8708 26.3928C29.7736 26.6546 30.6312 27.0203 31.4437 27.4897C31.7687 27.6883 32.026 27.9546 32.2156 28.2887C32.4052 28.6227 32.5 28.9793 32.5 29.3584V31.4168H19.5ZM35.9937 21.8293C35.434 20.5112 34.6531 19.3512 33.651 18.3491C32.649 17.347 31.4889 16.5661 30.1708 16.0064L31.0104 14.0022C32.5993 14.6522 33.9941 15.5821 35.1948 16.7918C36.3955 18.0015 37.3299 19.4008 37.9979 20.9897L35.9937 21.8293ZM16.0062 21.8293L14.0021 20.9897C14.6701 19.4008 15.6045 18.006 16.8052 16.8053C18.0059 15.6046 19.4007 14.6703 20.9896 14.0022L21.8292 16.0064C20.5111 16.5661 19.351 17.347 18.349 18.3491C17.3469 19.3512 16.566 20.5112 16.0062 21.8293ZM20.9896 37.998C19.4007 37.348 18.0059 36.4182 16.8052 35.2084C15.6045 33.9987 14.6701 32.5994 14.0021 31.0105L16.0062 30.1709C16.566 31.489 17.3469 32.6491 18.349 33.6512C19.351 34.6532 20.5111 35.4341 21.8292 35.9939L20.9896 37.998ZM31.0104 37.998L30.1708 35.9939C31.4889 35.4341 32.649 34.6532 33.651 33.6512C34.6531 32.6491 35.434 31.489 35.9937 30.1709L37.9979 31.0105C37.3479 32.5994 36.418 33.9942 35.2083 35.1949C33.9986 36.3956 32.5993 37.33 31.0104 37.998Z" fill="white"/>
    </g>
</svg>