<svg xmlns="http://www.w3.org/2000/svg" width="52" height="52" viewBox="0 0 52 52" fill="none">
    <circle cx="26" cy="26" r="26" fill="#2FC385"/>
    <mask id="mask0_1053_7240" style="mask-type:alpha" maskUnits="userSpaceOnUse" x="13" y="13" width="26" height="26">
        <rect x="13" y="13" width="26" height="26" fill="#D9D9D9"/>
    </mask>
    <g mask="url(#mask0_1053_7240)">
        <path d="M20.5834 34.6938V24.9167H22.3167C22.4431 24.9167 22.5695 24.9303 22.6959 24.9574C22.8223 24.9845 22.9487 25.0161 23.075 25.0522L30.5771 27.8417C30.8299 27.932 31.033 28.0945 31.1865 28.3292C31.34 28.564 31.4167 28.8077 31.4167 29.0605C31.4167 29.4397 31.2858 29.7466 31.024 29.9813C30.7622 30.2161 30.4598 30.3334 30.1167 30.3334H27.273C27.1827 30.3334 27.115 30.3289 27.0698 30.3199C27.0247 30.3108 26.966 30.2883 26.8938 30.2522L25.1605 29.5751L24.8084 30.6313L26.8938 31.3626C26.9299 31.3806 26.9841 31.3942 27.0563 31.4032C27.1285 31.4122 27.1917 31.4167 27.2459 31.4167H34.6667C35.2445 31.4167 35.75 31.6244 36.1834 32.0397C36.6167 32.4549 36.8334 32.9695 36.8334 33.5834L28.1938 36.8334L20.5834 34.6938ZM14.0834 36.8334V24.9167H18.4167V36.8334H14.0834ZM30.3334 27.0834L25.8375 22.6959C25.2778 22.1542 24.8039 21.5539 24.4157 20.8949C24.0275 20.2358 23.8334 19.5181 23.8334 18.7417C23.8334 17.7487 24.1809 16.9046 24.8761 16.2095C25.5712 15.5143 26.4153 15.1667 27.4084 15.1667C27.9862 15.1667 28.5278 15.2886 29.0334 15.5324C29.5389 15.7761 29.9723 16.1056 30.3334 16.5209C30.6945 16.1056 31.1278 15.7761 31.6334 15.5324C32.1389 15.2886 32.6806 15.1667 33.2584 15.1667C34.2514 15.1667 35.0955 15.5143 35.7907 16.2095C36.4858 16.9046 36.8334 17.7487 36.8334 18.7417C36.8334 19.5181 36.6438 20.2358 36.2646 20.8949C35.8855 21.5539 35.416 22.1542 34.8563 22.6959L30.3334 27.0834Z" fill="white"/>
    </g>
</svg>