<svg xmlns="http://www.w3.org/2000/svg" width="53" height="52" viewBox="0 0 53 52" fill="none">
    <circle cx="26.5" cy="26" r="26" fill="#2FC385"/>
    <mask id="mask0_1053_4868" style="mask-type:alpha" maskUnits="userSpaceOnUse" x="13" y="13" width="27" height="26">
        <rect x="13.5" y="13" width="26" height="26" fill="#D9D9D9"/>
    </mask>
    <g mask="url(#mask0_1053_4868)">
        <path d="M19.8373 26.0001L19.5123 24.3751C19.2957 24.2848 19.0925 24.19 18.903 24.0907C18.7134 23.9914 18.5193 23.8695 18.3207 23.7251L16.7498 24.2126L15.6665 22.3709L16.9123 21.2876C16.8762 21.0529 16.8582 20.8181 16.8582 20.5834C16.8582 20.3487 16.8762 20.114 16.9123 19.8792L15.6665 18.7959L16.7498 16.9542L18.3207 17.4417C18.5193 17.2973 18.7134 17.1754 18.903 17.0761C19.0925 16.9768 19.2957 16.882 19.5123 16.7917L19.8373 15.1667H22.004L22.329 16.7917C22.5457 16.882 22.7488 16.9768 22.9384 17.0761C23.128 17.1754 23.3221 17.2973 23.5207 17.4417L25.0915 16.9542L26.1748 18.7959L24.929 19.8792C24.9651 20.114 24.9832 20.3487 24.9832 20.5834C24.9832 20.8181 24.9651 21.0529 24.929 21.2876L26.1748 22.3709L25.0915 24.2126L23.5207 23.7251C23.3221 23.8695 23.128 23.9914 22.9384 24.0907C22.7488 24.19 22.5457 24.2848 22.329 24.3751L22.004 26.0001H19.8373ZM20.9207 22.7501C21.5165 22.7501 22.0266 22.5379 22.4509 22.1136C22.8752 21.6893 23.0873 21.1792 23.0873 20.5834C23.0873 19.9876 22.8752 19.4775 22.4509 19.0532C22.0266 18.6289 21.5165 18.4167 20.9207 18.4167C20.3248 18.4167 19.8148 18.6289 19.3905 19.0532C18.9662 19.4775 18.754 19.9876 18.754 20.5834C18.754 21.1792 18.9662 21.6893 19.3905 22.1136C19.8148 22.5379 20.3248 22.7501 20.9207 22.7501ZM29.5332 37.9167L29.0457 35.6417C28.7387 35.5334 28.4544 35.4025 28.1925 35.249C27.9307 35.0956 27.6734 34.9195 27.4207 34.7209L25.254 35.4251L23.7373 32.8251L25.4707 31.3084C25.4346 30.9834 25.4165 30.6584 25.4165 30.3334C25.4165 30.0084 25.4346 29.6834 25.4707 29.3584L23.7373 27.8417L25.254 25.2417L27.4207 25.9459C27.6734 25.7473 27.9307 25.5713 28.1925 25.4178C28.4544 25.2643 28.7387 25.1334 29.0457 25.0251L29.5332 22.7501H32.5665L33.054 25.0251C33.361 25.1334 33.6453 25.2643 33.9071 25.4178C34.1689 25.5713 34.4262 25.7473 34.679 25.9459L36.8457 25.2417L38.3623 27.8417L36.629 29.3584C36.6651 29.6834 36.6832 30.0084 36.6832 30.3334C36.6832 30.6584 36.6651 30.9834 36.629 31.3084L38.3623 32.8251L36.8457 35.4251L34.679 34.7209C34.4262 34.9195 34.1689 35.0956 33.9071 35.249C33.6453 35.4025 33.361 35.5334 33.054 35.6417L32.5665 37.9167H29.5332ZM31.0498 33.5834C31.9526 33.5834 32.72 33.2674 33.3519 32.6355C33.9839 32.0036 34.2998 31.2362 34.2998 30.3334C34.2998 29.4306 33.9839 28.6633 33.3519 28.0313C32.72 27.3994 31.9526 27.0834 31.0498 27.0834C30.1471 27.0834 29.3797 27.3994 28.7478 28.0313C28.1158 28.6633 27.7998 29.4306 27.7998 30.3334C27.7998 31.2362 28.1158 32.0036 28.7478 32.6355C29.3797 33.2674 30.1471 33.5834 31.0498 33.5834Z" fill="white"/>
    </g>
</svg>