<svg xmlns="http://www.w3.org/2000/svg" width="53" height="52" viewBox="0 0 53 52" fill="none">
    <circle cx="26.5" cy="26" r="26" fill="#2FC385"/>
    <mask id="mask0_1053_4877" style="mask-type:alpha" maskUnits="userSpaceOnUse" x="13" y="13" width="27" height="26">
        <rect x="13.5" y="13" width="26" height="26" fill="#D9D9D9"/>
    </mask>
    <g mask="url(#mask0_1053_4877)">
        <path d="M15.3959 32.0125C15.1612 31.85 15.0212 31.6288 14.9761 31.3489C14.9309 31.0691 14.9806 30.8027 15.125 30.55L19.2146 23.9958C19.4132 23.6889 19.6886 23.5218 20.0407 23.4948C20.3927 23.4677 20.6952 23.5896 20.948 23.8604L23.25 26.5416L26.6896 20.9354C26.8882 20.5923 27.1907 20.4208 27.5969 20.4208C28.0032 20.4208 28.3146 20.5833 28.5313 20.9083L29.6417 22.5875C29.8403 22.8944 29.899 23.1878 29.8177 23.4677C29.7365 23.7475 29.5785 23.9597 29.3438 24.1041C29.1091 24.2486 28.8518 24.3073 28.5719 24.2802C28.2921 24.2531 28.0528 24.0861 27.8542 23.7791L27.6646 23.5083L24.3334 28.925C24.1348 29.2319 23.8549 29.4034 23.4938 29.4396C23.1327 29.4757 22.8257 29.3493 22.573 29.0604L20.2709 26.3791L16.9667 31.7146C16.8042 31.9854 16.565 32.1524 16.249 32.2156C15.933 32.2788 15.6487 32.2111 15.3959 32.0125ZM30.9146 35.2896C29.5605 35.2896 28.4094 34.8156 27.4615 33.8677C26.5136 32.9198 26.0396 31.7687 26.0396 30.4145C26.0396 29.0604 26.5136 27.9093 27.4615 26.9614C28.4094 26.0135 29.5605 25.5396 30.9146 25.5396C32.2688 25.5396 33.4198 26.0135 34.3677 26.9614C35.3157 27.9093 35.7896 29.0604 35.7896 30.4145C35.7896 30.884 35.7264 31.3399 35.6 31.7823C35.4737 32.2246 35.2841 32.6354 35.0313 33.0145L37.6313 35.6145C37.848 35.8312 37.9608 36.084 37.9698 36.3729C37.9789 36.6618 37.875 36.9146 37.6584 37.1312C37.4417 37.3479 37.1844 37.4562 36.8865 37.4562C36.5886 37.4562 36.3313 37.3479 36.1146 37.1312L33.4875 34.5312C33.1264 34.784 32.7247 34.9736 32.2823 35.1C31.84 35.2264 31.3841 35.2896 30.9146 35.2896ZM30.9146 33.1229C31.673 33.1229 32.3139 32.8611 32.8375 32.3375C33.3612 31.8139 33.623 31.1729 33.623 30.4145C33.623 29.6562 33.3612 29.0152 32.8375 28.4916C32.3139 27.968 31.673 27.7062 30.9146 27.7062C30.1563 27.7062 29.5153 27.968 28.9917 28.4916C28.4681 29.0152 28.2063 29.6562 28.2063 30.4145C28.2063 31.1729 28.4681 31.8139 28.9917 32.3375C29.5153 32.8611 30.1563 33.1229 30.9146 33.1229ZM32.2417 24.1583C32.007 24.0139 31.8445 23.8062 31.7542 23.5354C31.6639 23.2646 31.7181 22.9757 31.9167 22.6687L36.0334 16.1416C36.1959 15.8889 36.4306 15.7264 36.7375 15.6541C37.0445 15.5819 37.3243 15.6451 37.5771 15.8437C37.8118 16.0062 37.9563 16.2274 38.0105 16.5073C38.0646 16.7871 38.0195 17.0534 37.875 17.3062L33.7313 23.8062C33.5327 24.1132 33.2934 24.2847 33.0136 24.3208C32.7337 24.3569 32.4764 24.3027 32.2417 24.1583Z" fill="white"/>
    </g>
</svg>