<svg xmlns="http://www.w3.org/2000/svg" width="53" height="52" viewBox="0 0 53 52" fill="none">
    <circle cx="26.5" cy="26" r="26" fill="#2FC385"/>
    <mask id="mask0_1053_4886" style="mask-type:alpha" maskUnits="userSpaceOnUse" x="13" y="13" width="27" height="26">
        <rect x="13.5" y="13" width="26" height="26" fill="#D9D9D9"/>
    </mask>
    <g mask="url(#mask0_1053_4886)">
        <path d="M24.3335 30.3333H28.6668C28.9738 30.3333 29.2311 30.2294 29.4387 30.0218C29.6463 29.8142 29.7502 29.5569 29.7502 29.2499V25.9999C29.7502 25.693 29.6463 25.4357 29.4387 25.2281C29.2311 25.0204 28.9738 24.9166 28.6668 24.9166V23.8333C28.6668 23.2374 28.4547 22.7274 28.0304 22.3031C27.6061 21.8788 27.096 21.6666 26.5002 21.6666C25.9043 21.6666 25.3943 21.8788 24.97 22.3031C24.5456 22.7274 24.3335 23.2374 24.3335 23.8333V24.9166C24.0266 24.9166 23.7693 25.0204 23.5616 25.2281C23.354 25.4357 23.2502 25.693 23.2502 25.9999V29.2499C23.2502 29.5569 23.354 29.8142 23.5616 30.0218C23.7693 30.2294 24.0266 30.3333 24.3335 30.3333ZM25.4168 24.9166V23.8333C25.4168 23.5263 25.5206 23.269 25.7283 23.0614C25.9359 22.8538 26.1932 22.7499 26.5002 22.7499C26.8071 22.7499 27.0644 22.8538 27.272 23.0614C27.4797 23.269 27.5835 23.5263 27.5835 23.8333V24.9166H25.4168ZM26.5002 36.7249C26.3738 36.7249 26.2564 36.7159 26.1481 36.6979C26.0397 36.6798 25.9314 36.6527 25.8231 36.6166C23.3856 35.8041 21.4446 34.301 20.0002 32.1072C18.5557 29.9135 17.8335 27.5527 17.8335 25.0249V19.9062C17.8335 19.4548 17.9644 19.0485 18.2262 18.6874C18.488 18.3263 18.8266 18.0645 19.2418 17.902L25.7418 15.4645C25.9946 15.3742 26.2474 15.3291 26.5002 15.3291C26.7529 15.3291 27.0057 15.3742 27.2585 15.4645L33.7585 17.902C34.1738 18.0645 34.5123 18.3263 34.7741 18.6874C35.0359 19.0485 35.1668 19.4548 35.1668 19.9062V25.0249C35.1668 27.5527 34.4446 29.9135 33.0002 32.1072C31.5557 34.301 29.6147 35.8041 27.1772 36.6166C27.0689 36.6527 26.9606 36.6798 26.8522 36.6979C26.7439 36.7159 26.6266 36.7249 26.5002 36.7249Z" fill="white"/>
    </g>
</svg>