<svg xmlns="http://www.w3.org/2000/svg" width="53" height="52" viewBox="0 0 53 52" fill="none">
    <circle cx="26.5" cy="26" r="26" fill="#2FC385"/>
    <mask id="mask0_1053_4895" style="mask-type:alpha" maskUnits="userSpaceOnUse" x="13" y="13" width="27" height="26">
        <rect x="13.5" y="13" width="26" height="26" fill="#D9D9D9"/>
    </mask>
    <g mask="url(#mask0_1053_4895)">
        <path d="M26.4998 21.6667C25.3082 21.6667 24.288 22.0911 23.4394 22.9397C22.5908 23.7883 22.1665 24.8084 22.1665 26.0001C22.1665 26.8126 22.3696 27.5619 22.7759 28.248C23.1821 28.9341 23.7464 29.4667 24.4686 29.8459C24.7575 29.9904 24.9606 30.2025 25.078 30.4824C25.1953 30.7622 25.1908 31.0466 25.0644 31.3355C24.938 31.5883 24.7484 31.7779 24.4957 31.9042C24.2429 32.0306 23.9901 32.0306 23.7373 31.9042C22.5998 31.3626 21.6925 30.5591 21.0155 29.4938C20.3384 28.4286 19.9998 27.264 19.9998 26.0001C19.9998 24.1945 20.6318 22.6598 21.8957 21.3959C23.1596 20.132 24.6943 19.5001 26.4998 19.5001C27.7818 19.5001 28.9599 19.8386 30.0342 20.5157C31.1085 21.1928 31.9075 22.1181 32.4311 23.2917C32.5394 23.5445 32.5349 23.7973 32.4175 24.0501C32.3002 24.3029 32.1151 24.4834 31.8623 24.5917C31.5734 24.7181 31.2846 24.7181 30.9957 24.5917C30.7068 24.4654 30.4901 24.2577 30.3457 23.9688C29.9665 23.2466 29.4339 22.6824 28.7478 22.2761C28.0616 21.8699 27.3123 21.6667 26.4998 21.6667ZM26.4998 17.3334C24.0804 17.3334 22.0311 18.173 20.3519 19.8522C18.6728 21.5313 17.8332 23.5806 17.8332 26.0001C17.8332 28.2751 18.5825 30.2251 20.0811 31.8501C21.5797 33.4751 23.4575 34.3959 25.7144 34.6126C26.0214 34.6487 26.2877 34.7841 26.5134 35.0188C26.7391 35.2536 26.8429 35.5244 26.8248 35.8313C26.8068 36.1383 26.6939 36.3911 26.4863 36.5897C26.2787 36.7883 26.0214 36.8786 25.7144 36.8605C24.3061 36.7702 22.9925 36.4181 21.7738 35.8043C20.555 35.1904 19.4898 34.3914 18.578 33.4074C17.6662 32.4233 16.953 31.2949 16.4384 30.022C15.9238 28.749 15.6665 27.4084 15.6665 26.0001C15.6665 24.5015 15.9509 23.0931 16.5196 21.7751C17.0884 20.457 17.8603 19.3105 18.8353 18.3355C19.8103 17.3605 20.9568 16.5886 22.2748 16.0199C23.5929 15.4511 25.0012 15.1667 26.4998 15.1667C29.3346 15.1667 31.8037 16.1327 33.9071 18.0647C36.0106 19.9966 37.1616 22.3799 37.3603 25.2147C37.3964 25.5036 37.3106 25.7518 37.103 25.9595C36.8953 26.1671 36.638 26.2799 36.3311 26.298C36.0241 26.3161 35.7488 26.2167 35.505 26.0001C35.2613 25.7834 35.1214 25.5216 35.0853 25.2147C34.8144 23.048 33.871 21.1928 32.255 19.649C30.6391 18.1053 28.7207 17.3334 26.4998 17.3334ZM34.679 36.2917L31.104 32.7438L30.2915 35.2084C30.2012 35.4612 30.0297 35.5831 29.7769 35.574C29.5241 35.565 29.3526 35.4341 29.2623 35.1813L26.7978 26.9751C26.7255 26.7765 26.7707 26.5959 26.9332 26.4334C27.0957 26.2709 27.2762 26.2258 27.4748 26.298L35.6811 28.7626C35.9339 28.8529 36.0648 29.0244 36.0738 29.2772C36.0828 29.5299 35.9609 29.7015 35.7082 29.7917L33.2436 30.6042L36.8186 34.1793C37.1255 34.4862 37.279 34.8383 37.279 35.2355C37.279 35.6327 37.1255 35.9848 36.8186 36.2917C36.5116 36.5987 36.155 36.7522 35.7488 36.7522C35.3425 36.7522 34.9859 36.5987 34.679 36.2917Z" fill="white"/>
    </g>
</svg>