<svg xmlns="http://www.w3.org/2000/svg" width="53" height="52" viewBox="0 0 53 52" fill="none">
    <circle cx="26.5" cy="26" r="26" fill="#2FC385"/>
    <mask id="mask0_1053_3869" style="mask-type:alpha" maskUnits="userSpaceOnUse" x="13" y="13" width="27" height="26">
        <rect x="13.5" y="13" width="26" height="26" fill="#D9D9D9"/>
    </mask>
    <g mask="url(#mask0_1053_3869)">
        <path d="M18.9163 34.6666C18.6094 34.6666 18.3521 34.5628 18.1445 34.3551C17.9368 34.1475 17.833 33.8902 17.833 33.5833V22.7499C17.833 22.443 17.9368 22.1857 18.1445 21.978C18.3521 21.7704 18.6094 21.6666 18.9163 21.6666H21.083C21.39 21.6666 21.6472 21.7704 21.8549 21.978C22.0625 22.1857 22.1663 22.443 22.1663 22.7499V33.5833C22.1663 33.8902 22.0625 34.1475 21.8549 34.3551C21.6472 34.5628 21.39 34.6666 21.083 34.6666H18.9163ZM24.333 34.6666C24.0261 34.6666 23.7688 34.5628 23.5611 34.3551C23.3535 34.1475 23.2497 33.8902 23.2497 33.5833V28.1666C23.2497 27.8596 23.3535 27.6024 23.5611 27.3947C23.7688 27.1871 24.0261 27.0833 24.333 27.0833H26.4997C26.8066 27.0833 27.0639 27.1871 27.2716 27.3947C27.4792 27.6024 27.583 27.8596 27.583 28.1666V33.5833C27.583 33.8902 27.4792 34.1475 27.2716 34.3551C27.0639 34.5628 26.8066 34.6666 26.4997 34.6666H24.333ZM31.9163 34.6666C31.6094 34.6666 31.3521 34.5628 31.1445 34.3551C30.9368 34.1475 30.833 33.8902 30.833 33.5833V18.4166C30.833 18.1096 30.9368 17.8523 31.1445 17.6447C31.3521 17.4371 31.6094 17.3333 31.9163 17.3333H34.083C34.39 17.3333 34.6472 17.4371 34.8549 17.6447C35.0625 17.8523 35.1663 18.1096 35.1663 18.4166V33.5833C35.1663 33.8902 35.0625 34.1475 34.8549 34.3551C34.6472 34.5628 34.39 34.6666 34.083 34.6666H31.9163Z" fill="white"/>
    </g>
</svg>