<svg xmlns="http://www.w3.org/2000/svg" width="53" height="52" viewBox="0 0 53 52" fill="none">
    <circle cx="26.5" cy="26" r="26" fill="#2FC385"/>
    <mask id="mask0_1053_3878" style="mask-type:alpha" maskUnits="userSpaceOnUse" x="13" y="13" width="27" height="26">
        <rect x="13.5" y="13" width="26" height="26" fill="#D9D9D9"/>
    </mask>
    <g mask="url(#mask0_1053_3878)">
        <path d="M20.7587 36.075C20.56 35.8764 20.4607 35.6236 20.4607 35.3167C20.4607 35.0097 20.56 34.7569 20.7587 34.5583L25.9316 29.3583C26.3469 28.9431 26.8614 28.7354 27.4753 28.7354C28.0892 28.7354 28.6038 28.9431 29.0191 29.3583L31.267 31.6063L36.1149 26.7583C36.3316 26.5417 36.5844 26.4333 36.8732 26.4333C37.1621 26.4333 37.4149 26.5417 37.6316 26.7583C37.8482 26.975 37.9566 27.2323 37.9566 27.5302C37.9566 27.8281 37.8482 28.0854 37.6316 28.3021L32.8107 33.15C32.3955 33.5653 31.8854 33.7729 31.2805 33.7729C30.6757 33.7729 30.1656 33.5653 29.7503 33.15L27.4753 30.875L22.2753 36.075C22.0767 36.2736 21.8285 36.3774 21.5305 36.3865C21.2326 36.3955 20.9753 36.2917 20.7587 36.075ZM17.8337 35.75C17.2378 35.75 16.7278 35.5378 16.3035 35.1135C15.8791 34.6892 15.667 34.1792 15.667 33.5833V18.4167C15.667 17.8208 15.8791 17.3108 16.3035 16.8865C16.7278 16.4622 17.2378 16.25 17.8337 16.25H33.0003C33.5962 16.25 34.1062 16.4622 34.5305 16.8865C34.9548 17.3108 35.167 17.8208 35.167 18.4167V22.75C35.167 23.0569 35.0632 23.3142 34.8555 23.5219C34.6479 23.7295 34.3906 23.8333 34.0837 23.8333H17.8337V35.75Z" fill="white"/>
    </g>
</svg>