<svg xmlns="http://www.w3.org/2000/svg" width="53" height="52" viewBox="0 0 53 52" fill="none">
    <circle cx="26.5" cy="26" r="26" fill="#2FC385"/>
    <mask id="mask0_1053_3887" style="mask-type:alpha" maskUnits="userSpaceOnUse" x="13" y="13" width="27" height="26">
        <rect x="13.5" y="13" width="26" height="26" fill="#D9D9D9"/>
    </mask>
    <g mask="url(#mask0_1053_3887)">
        <path d="M16.7497 34.6666C16.1538 34.6666 15.6438 34.4544 15.2195 34.0301C14.7952 33.6058 14.583 33.0958 14.583 32.4999V21.6666C14.583 21.3596 14.6868 21.1023 14.8945 20.8947C15.1021 20.6871 15.3594 20.5833 15.6663 20.5833C15.9733 20.5833 16.2306 20.6871 16.4382 20.8947C16.6459 21.1023 16.7497 21.3596 16.7497 21.6666V32.4999H34.083C34.39 32.4999 34.6472 32.6037 34.8549 32.8114C35.0625 33.019 35.1663 33.2763 35.1663 33.5833C35.1663 33.8902 35.0625 34.1475 34.8549 34.3551C34.6472 34.5628 34.39 34.6666 34.083 34.6666H16.7497ZM21.083 30.3333C20.4872 30.3333 19.9771 30.1211 19.5528 29.6968C19.1285 29.2725 18.9163 28.7624 18.9163 28.1666V19.4999C18.9163 18.9041 19.1285 18.394 19.5528 17.9697C19.9771 17.5454 20.4872 17.3333 21.083 17.3333H36.2497C36.8455 17.3333 37.3556 17.5454 37.7799 17.9697C38.2042 18.394 38.4163 18.9041 38.4163 19.4999V28.1666C38.4163 28.7624 38.2042 29.2725 37.7799 29.6968C37.3556 30.1211 36.8455 30.3333 36.2497 30.3333H21.083ZM23.2497 28.1666C23.2497 27.5708 23.0375 27.0607 22.6132 26.6364C22.1889 26.2121 21.6788 25.9999 21.083 25.9999V28.1666H23.2497ZM34.083 28.1666H36.2497V25.9999C35.6538 25.9999 35.1438 26.2121 34.7195 26.6364C34.2952 27.0607 34.083 27.5708 34.083 28.1666ZM28.6663 27.0833C29.5691 27.0833 30.3365 26.7673 30.9684 26.1353C31.6004 25.5034 31.9163 24.736 31.9163 23.8333C31.9163 22.9305 31.6004 22.1631 30.9684 21.5312C30.3365 20.8992 29.5691 20.5833 28.6663 20.5833C27.7636 20.5833 26.9962 20.8992 26.3643 21.5312C25.7323 22.1631 25.4163 22.9305 25.4163 23.8333C25.4163 24.736 25.7323 25.5034 26.3643 26.1353C26.9962 26.7673 27.7636 27.0833 28.6663 27.0833ZM21.083 21.6666C21.6788 21.6666 22.1889 21.4544 22.6132 21.0301C23.0375 20.6058 23.2497 20.0958 23.2497 19.4999H21.083V21.6666ZM36.2497 21.6666V19.4999H34.083C34.083 20.0958 34.2952 20.6058 34.7195 21.0301C35.1438 21.4544 35.6538 21.6666 36.2497 21.6666Z" fill="white"/>
    </g>
</svg>