<svg width="52" height="52" viewBox="0 0 52 52" fill="none" xmlns="http://www.w3.org/2000/svg">
<g id="icon">
<circle id="Ellipse 48" cx="26" cy="26" r="26" fill="#2FC385"/>
<g id="group">
<mask id="mask0_1057_940" style="mask-type:alpha" maskUnits="userSpaceOnUse" x="13" y="13" width="26" height="26">
<rect id="Bounding box" x="13" y="13" width="26" height="26" fill="#D9D9D9"/>
</mask>
<g mask="url(#mask0_1057_940)">
<path id="group_2" d="M14.084 31.6345C14.084 31.0206 14.242 30.4563 14.5579 29.9418C14.8739 29.4272 15.2937 29.0345 15.8173 28.7636C16.9368 28.2039 18.0743 27.7841 19.2298 27.5043C20.3854 27.2244 21.559 27.0845 22.7507 27.0845C23.9423 27.0845 25.1159 27.2244 26.2715 27.5043C27.427 27.7841 28.5645 28.2039 29.684 28.7636C30.2076 29.0345 30.6274 29.4272 30.9434 29.9418C31.2593 30.4563 31.4173 31.0206 31.4173 31.6345V32.5011C31.4173 33.097 31.2052 33.607 30.7809 34.0313C30.3566 34.4557 29.8465 34.6678 29.2507 34.6678H16.2507C15.6548 34.6678 15.1447 34.4557 14.7204 34.0313C14.2961 33.607 14.084 33.097 14.084 32.5011V31.6345ZM32.9882 34.6678C33.1868 34.3428 33.3357 33.9952 33.435 33.6251C33.5343 33.255 33.584 32.8803 33.584 32.5011V31.4178C33.584 30.6234 33.3628 29.8605 32.9204 29.1293C32.4781 28.398 31.8507 27.7706 31.0382 27.247C31.959 27.3553 32.8257 27.5404 33.6382 27.8022C34.4507 28.064 35.209 28.3845 35.9132 28.7636C36.5632 29.1248 37.0597 29.5265 37.4027 29.9688C37.7458 30.4112 37.9173 30.8942 37.9173 31.4178V32.5011C37.9173 33.097 37.7052 33.607 37.2809 34.0313C36.8566 34.4557 36.3465 34.6678 35.7507 34.6678H32.9882ZM22.7507 26.0011C21.559 26.0011 20.5388 25.5768 19.6902 24.7282C18.8416 23.8796 18.4173 22.8595 18.4173 21.6678C18.4173 20.4761 18.8416 19.456 19.6902 18.6074C20.5388 17.7588 21.559 17.3345 22.7507 17.3345C23.9423 17.3345 24.9625 17.7588 25.8111 18.6074C26.6597 19.456 27.084 20.4761 27.084 21.6678C27.084 22.8595 26.6597 23.8796 25.8111 24.7282C24.9625 25.5768 23.9423 26.0011 22.7507 26.0011ZM33.584 21.6678C33.584 22.8595 33.1597 23.8796 32.3111 24.7282C31.4625 25.5768 30.4423 26.0011 29.2507 26.0011C29.052 26.0011 28.7993 25.9786 28.4923 25.9334C28.1854 25.8883 27.9326 25.8386 27.734 25.7845C28.2215 25.2067 28.5961 24.5657 28.8579 23.8616C29.1197 23.1574 29.2507 22.4261 29.2507 21.6678C29.2507 20.9095 29.1197 20.1782 28.8579 19.4741C28.5961 18.7699 28.2215 18.1289 27.734 17.5511C27.9868 17.4609 28.2395 17.4022 28.4923 17.3751C28.7451 17.348 28.9979 17.3345 29.2507 17.3345C30.4423 17.3345 31.4625 17.7588 32.3111 18.6074C33.1597 19.456 33.584 20.4761 33.584 21.6678Z" fill="white"/>
</g>
</g>
</g>
</svg>
