<svg xmlns="http://www.w3.org/2000/svg" width="53" height="52" viewBox="0 0 53 52" fill="none">
    <circle cx="26.5" cy="26" r="26" fill="#2FC385"/>
    <mask id="mask0_1053_3896" style="mask-type:alpha" maskUnits="userSpaceOnUse" x="13" y="13" width="27" height="26">
        <rect x="13.5" y="13" width="26" height="26" fill="#D9D9D9"/>
    </mask>
    <g mask="url(#mask0_1053_3896)">
        <path d="M16.75 26.0001C16.75 23.2918 17.6979 20.9897 19.5938 19.0938C21.4896 17.198 23.7917 16.2501 26.5 16.2501V15.1668C26.5 14.9501 26.5993 14.7876 26.7979 14.6793C26.9965 14.5709 27.1861 14.589 27.3667 14.7334L30.7521 17.2793C31.041 17.4959 31.1854 17.7848 31.1854 18.1459C31.1854 18.507 31.041 18.7959 30.7521 19.0126L27.3667 21.5584C27.1861 21.7029 26.9965 21.7209 26.7979 21.6126C26.5993 21.5043 26.5 21.3418 26.5 21.1251V20.0418C24.8569 20.0418 23.4531 20.6241 22.2885 21.7886C21.124 22.9532 20.5417 24.357 20.5417 26.0001C20.5417 26.5959 20.6274 27.1692 20.799 27.7199C20.9705 28.2706 21.2097 28.7806 21.5167 29.2501C21.7153 29.539 21.7965 29.8504 21.7604 30.1845C21.7243 30.5185 21.5708 30.7848 21.3 30.9834L20.3792 31.6605C20.0542 31.9133 19.6931 32.0126 19.2958 31.9584C18.8986 31.9043 18.5826 31.7057 18.3479 31.3626C17.8243 30.5862 17.4271 29.7466 17.1562 28.8438C16.8854 27.9411 16.75 26.9932 16.75 26.0001ZM26.5 35.7501V36.8334C26.5 37.0501 26.4007 37.2126 26.2021 37.3209C26.0035 37.4293 25.8139 37.4112 25.6333 37.2668L22.2479 34.7209C21.959 34.5043 21.8146 34.2154 21.8146 33.8543C21.8146 33.4932 21.959 33.2043 22.2479 32.9876L25.6333 30.4418C25.8139 30.2973 26.0035 30.2793 26.2021 30.3876C26.4007 30.4959 26.5 30.6584 26.5 30.8751V31.9584C28.1431 31.9584 29.5469 31.3761 30.7115 30.2116C31.876 29.047 32.4583 27.6432 32.4583 26.0001C32.4583 25.4043 32.3726 24.831 32.201 24.2803C32.0295 23.7296 31.7903 23.2195 31.4833 22.7501C31.2847 22.4612 31.2035 22.1497 31.2396 21.8157C31.2757 21.4817 31.4292 21.2154 31.7 21.0168L32.6208 20.3397C32.9458 20.0869 33.3069 19.9921 33.7042 20.0553C34.1014 20.1185 34.4174 20.3126 34.6521 20.6376C35.1576 21.414 35.5503 22.2536 35.8302 23.1563C36.1101 24.0591 36.25 25.007 36.25 26.0001C36.25 28.7084 35.3021 31.0105 33.4062 32.9063C31.5104 34.8022 29.2083 35.7501 26.5 35.7501Z" fill="white"/>
    </g>
</svg>