<svg width="52" height="52" viewBox="0 0 52 52" fill="none" xmlns="http://www.w3.org/2000/svg">
<g id="icon">
<circle id="Ellipse 48" cx="26" cy="26" r="26" fill="#2FC385"/>
<g id="verified_user">
<mask id="mask0_1057_949" style="mask-type:alpha" maskUnits="userSpaceOnUse" x="13" y="13" width="26" height="26">
<rect id="Bounding box" x="13" y="13" width="26" height="26" fill="#D9D9D9"/>
</mask>
<g mask="url(#mask0_1057_949)">
<path id="verified_user_2" d="M24.8622 26.7583L23.3455 25.2416C23.1288 25.0249 22.8761 24.9166 22.5872 24.9166C22.2983 24.9166 22.0455 25.0249 21.8288 25.2416C21.6122 25.4583 21.5038 25.7156 21.5038 26.0135C21.5038 26.3114 21.6122 26.5687 21.8288 26.7854L24.1038 29.0874C24.3205 29.3041 24.5733 29.4124 24.8622 29.4124C25.1511 29.4124 25.4038 29.3041 25.6205 29.0874L30.2247 24.4833C30.4413 24.2666 30.5497 24.0093 30.5497 23.7114C30.5497 23.4135 30.4413 23.1562 30.2247 22.9395C30.008 22.7229 29.7507 22.6145 29.4528 22.6145C29.1549 22.6145 28.8976 22.7229 28.6809 22.9395L24.8622 26.7583ZM25.9997 36.7249C25.8733 36.7249 25.7559 36.7159 25.6476 36.6979C25.5393 36.6798 25.4309 36.6527 25.3226 36.6166C22.8851 35.8041 20.9441 34.301 19.4997 32.1072C18.0552 29.9135 17.333 27.5527 17.333 25.0249V19.9062C17.333 19.4548 17.4639 19.0485 17.7257 18.6874C17.9875 18.3263 18.3261 18.0645 18.7413 17.902L25.2413 15.4645C25.4941 15.3742 25.7469 15.3291 25.9997 15.3291C26.2525 15.3291 26.5052 15.3742 26.758 15.4645L33.258 17.902C33.6733 18.0645 34.0118 18.3263 34.2736 18.6874C34.5354 19.0485 34.6663 19.4548 34.6663 19.9062V25.0249C34.6663 27.5527 33.9441 29.9135 32.4997 32.1072C31.0552 34.301 29.1143 35.8041 26.6768 36.6166C26.5684 36.6527 26.4601 36.6798 26.3518 36.6979C26.2434 36.7159 26.1261 36.7249 25.9997 36.7249Z" fill="white"/>
</g>
</g>
</g>
</svg>
