<svg width="52" height="52" viewBox="0 0 52 52" fill="none" xmlns="http://www.w3.org/2000/svg">
<g id="icon">
<circle id="Ellipse 48" cx="26" cy="26" r="26" fill="#2FC385"/>
<g id="paid">
<mask id="mask0_1057_959" style="mask-type:alpha" maskUnits="userSpaceOnUse" x="13" y="13" width="26" height="26">
<rect id="Bounding box" x="13" y="13" width="26" height="26" fill="#D9D9D9"/>
</mask>
<g mask="url(#mask0_1057_959)">
<path id="paid_2" d="M26.0003 36.8334C24.5017 36.8334 23.0934 36.549 21.7753 35.9803C20.4573 35.4115 19.3107 34.6397 18.3357 33.6647C17.3607 32.6897 16.5889 31.5431 16.0201 30.2251C15.4514 28.907 15.167 27.4987 15.167 26.0001C15.167 24.5015 15.4514 23.0931 16.0201 21.7751C16.5889 20.457 17.3607 19.3105 18.3357 18.3355C19.3107 17.3605 20.4573 16.5886 21.7753 16.0199C23.0934 15.4511 24.5017 15.1667 26.0003 15.1667C27.4989 15.1667 28.9073 15.4511 30.2253 16.0199C31.5434 16.5886 32.6899 17.3605 33.6649 18.3355C34.6399 19.3105 35.4118 20.457 35.9805 21.7751C36.5493 23.0931 36.8337 24.5015 36.8337 26.0001C36.8337 27.4987 36.5493 28.907 35.9805 30.2251C35.4118 31.5431 34.6399 32.6897 33.6649 33.6647C32.6899 34.6397 31.5434 35.4115 30.2253 35.9803C28.9073 36.549 27.4989 36.8334 26.0003 36.8334ZM25.9732 33.5834C26.226 33.5834 26.4472 33.4886 26.6368 33.299C26.8264 33.1095 26.9212 32.8883 26.9212 32.6355V32.2292C27.8239 32.0667 28.6003 31.7147 29.2503 31.173C29.9003 30.6313 30.2253 29.8279 30.2253 28.7626C30.2253 28.0042 30.0087 27.3091 29.5753 26.6772C29.142 26.0452 28.2753 25.4945 26.9753 25.0251C25.892 24.664 25.1427 24.348 24.7274 24.0772C24.3121 23.8063 24.1045 23.4362 24.1045 22.9667C24.1045 22.4973 24.2715 22.1272 24.6055 21.8563C24.9396 21.5855 25.4225 21.4501 26.0545 21.4501C26.4156 21.4501 26.7316 21.5133 27.0024 21.6397C27.2732 21.7661 27.4989 21.9376 27.6795 22.1542C27.86 22.3709 28.0632 22.5199 28.2889 22.6011C28.5146 22.6824 28.7267 22.6779 28.9253 22.5876C29.1962 22.4792 29.3812 22.2942 29.4805 22.0324C29.5798 21.7706 29.5573 21.5313 29.4128 21.3147C29.1239 20.8994 28.7673 20.5473 28.343 20.2584C27.9187 19.9695 27.4628 19.807 26.9753 19.7709V19.3647C26.9753 19.1119 26.8805 18.8907 26.6909 18.7011C26.5014 18.5115 26.2802 18.4167 26.0274 18.4167C25.7746 18.4167 25.5535 18.5115 25.3639 18.7011C25.1743 18.8907 25.0795 19.1119 25.0795 19.3647V19.7709C24.1767 19.9695 23.4725 20.3667 22.967 20.9626C22.4614 21.5584 22.2087 22.2265 22.2087 22.9667C22.2087 23.8154 22.4569 24.5015 22.9534 25.0251C23.45 25.5487 24.2309 26.0001 25.2962 26.3792C26.4337 26.7945 27.2236 27.1647 27.666 27.4897C28.1083 27.8147 28.3295 28.239 28.3295 28.7626C28.3295 29.3584 28.1173 29.7963 27.693 30.0761C27.2687 30.356 26.7587 30.4959 26.1628 30.4959C25.6934 30.4959 25.2691 30.3831 24.8899 30.1574C24.5107 29.9317 24.1948 29.5931 23.942 29.1417C23.7975 28.889 23.608 28.7174 23.3732 28.6272C23.1385 28.5369 22.9038 28.5369 22.6691 28.6272C22.4163 28.7174 22.2312 28.889 22.1139 29.1417C21.9965 29.3945 21.992 29.6383 22.1003 29.873C22.3892 30.4869 22.7774 30.9879 23.2649 31.3761C23.7524 31.7643 24.3392 32.0306 25.0253 32.1751V32.6355C25.0253 32.8883 25.1201 33.1095 25.3097 33.299C25.4993 33.4886 25.7205 33.5834 25.9732 33.5834Z" fill="white"/>
</g>
</g>
</g>
</svg>
