<svg width="52" height="52" viewBox="0 0 52 52" fill="none" xmlns="http://www.w3.org/2000/svg">
<g id="icon">
<circle id="Ellipse 48" cx="26" cy="26" r="26" fill="#2FC385"/>
<g id="electric_bolt">
<mask id="mask0_1057_968" style="mask-type:alpha" maskUnits="userSpaceOnUse" x="13" y="13" width="26" height="26">
<rect id="Bounding box" x="13" y="13" width="26" height="26" fill="#D9D9D9"/>
</mask>
<g mask="url(#mask0_1057_968)">
<path id="electric_bolt_2" d="M24.9173 28.7084L18.4985 27.8959C18.0472 27.8417 17.7538 27.598 17.6183 27.1647C17.4829 26.7313 17.5777 26.3612 17.9027 26.0542L28.9798 15.4376C29.0701 15.3473 29.1784 15.2796 29.3048 15.2345C29.4312 15.1893 29.6027 15.1667 29.8194 15.1667C30.1805 15.1667 30.4558 15.3202 30.6454 15.6272C30.835 15.9341 30.8395 16.2501 30.659 16.5751L27.084 23.2917L33.5027 24.1042C33.9541 24.1584 34.2475 24.4022 34.3829 24.8355C34.5183 25.2688 34.4235 25.639 34.0985 25.9459L23.0215 36.5626C22.9312 36.6529 22.8229 36.7206 22.6965 36.7657C22.5701 36.8108 22.3985 36.8334 22.1819 36.8334C21.8208 36.8334 21.5454 36.6799 21.3558 36.373C21.1663 36.0661 21.1617 35.7501 21.3423 35.4251L24.9173 28.7084Z" fill="white"/>
</g>
</g>
</g>
</svg>
