<svg width="52" height="52" viewBox="0 0 52 52" fill="none" xmlns="http://www.w3.org/2000/svg">
<g id="icon">
<circle id="Ellipse 48" cx="26" cy="26" r="26" fill="#2FC385"/>
<g id="leaderboard">
<mask id="mask0_1057_977" style="mask-type:alpha" maskUnits="userSpaceOnUse" x="13" y="13" width="26" height="26">
<rect id="Bounding box" x="13" y="13" width="26" height="26" fill="#D9D9D9"/>
</mask>
<g mask="url(#mask0_1057_977)">
<path id="leaderboard_2" d="M16.2503 35.75C15.9434 35.75 15.6861 35.6462 15.4785 35.4385C15.2708 35.2309 15.167 34.9736 15.167 34.6667V23.8333C15.167 23.5264 15.2708 23.2691 15.4785 23.0615C15.6861 22.8538 15.9434 22.75 16.2503 22.75H20.042C20.3489 22.75 20.6062 22.8538 20.8139 23.0615C21.0215 23.2691 21.1253 23.5264 21.1253 23.8333V34.6667C21.1253 34.9736 21.0215 35.2309 20.8139 35.4385C20.6062 35.6462 20.3489 35.75 20.042 35.75H16.2503ZM24.1045 35.75C23.7975 35.75 23.5403 35.6462 23.3326 35.4385C23.125 35.2309 23.0212 34.9736 23.0212 34.6667V17.3333C23.0212 17.0264 23.125 16.7691 23.3326 16.5615C23.5403 16.3538 23.7975 16.25 24.1045 16.25H27.8962C28.2031 16.25 28.4604 16.3538 28.668 16.5615C28.8757 16.7691 28.9795 17.0264 28.9795 17.3333V34.6667C28.9795 34.9736 28.8757 35.2309 28.668 35.4385C28.4604 35.6462 28.2031 35.75 27.8962 35.75H24.1045ZM31.9587 35.75C31.6517 35.75 31.3944 35.6462 31.1868 35.4385C30.9791 35.2309 30.8753 34.9736 30.8753 34.6667V26C30.8753 25.6931 30.9791 25.4358 31.1868 25.2281C31.3944 25.0205 31.6517 24.9167 31.9587 24.9167H35.7503C36.0573 24.9167 36.3146 25.0205 36.5222 25.2281C36.7298 25.4358 36.8337 25.6931 36.8337 26V34.6667C36.8337 34.9736 36.7298 35.2309 36.5222 35.4385C36.3146 35.6462 36.0573 35.75 35.7503 35.75H31.9587Z" fill="white"/>
</g>
</g>
</g>
</svg>
