<svg xmlns="http://www.w3.org/2000/svg" width="52" height="52" viewBox="0 0 52 52" fill="none">
    <circle cx="26" cy="26" r="26" fill="#2FC385"/>
    <mask id="mask0_1053_7191" style="mask-type:alpha" maskUnits="userSpaceOnUse" x="13" y="13" width="26" height="26">
        <rect x="13" y="13" width="26" height="26" fill="#D9D9D9"/>
    </mask>
    <g mask="url(#mask0_1053_7191)">
        <path d="M36.1833 28.4376L28.4375 36.1834C28.2208 36.4001 27.9771 36.5626 27.7062 36.6709C27.4354 36.7792 27.1646 36.8334 26.8937 36.8334C26.6229 36.8334 26.3521 36.7792 26.0812 36.6709C25.8104 36.5626 25.5667 36.4001 25.35 36.1834L15.7896 26.623C15.591 26.4244 15.4375 26.1942 15.3292 25.9324C15.2208 25.6706 15.1667 25.3952 15.1667 25.1063V17.3334C15.1667 16.7376 15.3788 16.2275 15.8031 15.8032C16.2274 15.3789 16.7375 15.1667 17.3333 15.1667H25.1062C25.3951 15.1667 25.675 15.2254 25.9458 15.3428C26.2167 15.4602 26.4514 15.6181 26.65 15.8167L36.1833 25.3772C36.4 25.5938 36.558 25.8376 36.6573 26.1084C36.7566 26.3792 36.8062 26.6501 36.8062 26.9209C36.8062 27.1917 36.7566 27.4581 36.6573 27.7199C36.558 27.9817 36.4 28.2209 36.1833 28.4376ZM20.0417 21.6667C20.493 21.6667 20.8767 21.5088 21.1927 21.1928C21.5087 20.8768 21.6667 20.4931 21.6667 20.0417C21.6667 19.5904 21.5087 19.2067 21.1927 18.8907C20.8767 18.5747 20.493 18.4167 20.0417 18.4167C19.5903 18.4167 19.2066 18.5747 18.8906 18.8907C18.5746 19.2067 18.4167 19.5904 18.4167 20.0417C18.4167 20.4931 18.5746 20.8768 18.8906 21.1928C19.2066 21.5088 19.5903 21.6667 20.0417 21.6667Z" fill="white"/>
    </g>
</svg>