<svg xmlns="http://www.w3.org/2000/svg" width="52" height="52" viewBox="0 0 52 52" fill="none">
    <circle cx="26" cy="26" r="26" fill="#2FC385"/>
    <mask id="mask0_1053_7200" style="mask-type:alpha" maskUnits="userSpaceOnUse" x="13" y="13" width="26" height="26">
        <rect x="13" y="13" width="26" height="26" fill="#D9D9D9"/>
    </mask>
    <g mask="url(#mask0_1053_7200)">
        <path d="M31.4166 36.8333C29.918 36.8333 28.6406 36.3051 27.5844 35.2489C26.5281 34.1926 26 32.9152 26 31.4166C26 29.918 26.5281 28.6406 27.5844 27.5843C28.6406 26.5281 29.918 25.9999 31.4166 25.9999C32.9153 25.9999 34.1927 26.5281 35.2489 27.5843C36.3052 28.6406 36.8333 29.918 36.8333 31.4166C36.8333 32.9152 36.3052 34.1926 35.2489 35.2489C34.1927 36.3051 32.9153 36.8333 31.4166 36.8333ZM17.3333 25.0249V19.9062C17.3333 19.4548 17.4642 19.0485 17.726 18.6874C17.9878 18.3263 18.3264 18.0645 18.7416 17.902L25.2416 15.4645C25.4944 15.3742 25.7472 15.3291 26 15.3291C26.2528 15.3291 26.5055 15.3742 26.7583 15.4645L33.2583 17.902C33.6736 18.0645 34.0121 18.3263 34.2739 18.6874C34.5357 19.0485 34.6666 19.4548 34.6666 19.9062V23.2104C34.6666 23.5173 34.5312 23.7656 34.2604 23.9551C33.9896 24.1447 33.7007 24.1944 33.3937 24.1041C33.0687 24.0138 32.7437 23.9461 32.4187 23.901C32.0937 23.8558 31.7597 23.8333 31.4166 23.8333C29.3222 23.8333 27.5347 24.5735 26.0541 26.0541C24.5736 27.5347 23.8333 29.3222 23.8333 31.4166C23.8333 31.9944 23.901 32.5586 24.0364 33.1093C24.1719 33.66 24.366 34.2152 24.6187 34.7749C24.7812 35.118 24.7316 35.4249 24.4698 35.6958C24.208 35.9666 23.9055 36.0208 23.5625 35.8583C22.8041 35.461 22.109 34.9735 21.4771 34.3958C20.8451 33.818 20.2854 33.186 19.7979 32.4999C19.0215 31.4347 18.4166 30.2656 17.9833 28.9926C17.55 27.7197 17.3333 26.3972 17.3333 25.0249ZM31.4166 31.4166C31.868 31.4166 32.2517 31.2586 32.5677 30.9426C32.8837 30.6267 33.0416 30.243 33.0416 29.7916C33.0416 29.3402 32.8837 28.9565 32.5677 28.6406C32.2517 28.3246 31.868 28.1666 31.4166 28.1666C30.9653 28.1666 30.5816 28.3246 30.2656 28.6406C29.9496 28.9565 29.7916 29.3402 29.7916 29.7916C29.7916 30.243 29.9496 30.6267 30.2656 30.9426C30.5816 31.2586 30.9653 31.4166 31.4166 31.4166ZM31.4166 34.6666C31.868 34.6666 32.2923 34.5808 32.6896 34.4093C33.0868 34.2378 33.4389 33.9895 33.7458 33.6645C33.8361 33.5562 33.8722 33.4343 33.8541 33.2989C33.8361 33.1635 33.7548 33.0597 33.6104 32.9874C33.2673 32.8249 32.9107 32.7031 32.5406 32.6218C32.1705 32.5406 31.7958 32.4999 31.4166 32.4999C31.0375 32.4999 30.6628 32.5406 30.2927 32.6218C29.9226 32.7031 29.566 32.8249 29.2229 32.9874C29.0785 33.0597 28.9972 33.1635 28.9791 33.2989C28.9611 33.4343 28.9972 33.5562 29.0875 33.6645C29.3944 33.9895 29.7465 34.2378 30.1437 34.4093C30.541 34.5808 30.9653 34.6666 31.4166 34.6666Z" fill="white"/>
    </g>
</svg>