<svg xmlns="http://www.w3.org/2000/svg" width="52" height="52" viewBox="0 0 52 52" fill="none">
    <circle cx="26" cy="26" r="26" fill="#2FC385"/>
    <mask id="mask0_1053_7209" style="mask-type:alpha" maskUnits="userSpaceOnUse" x="13" y="13" width="26" height="26">
        <rect x="13" y="13" width="26" height="26" fill="#D9D9D9"/>
    </mask>
    <g mask="url(#mask0_1053_7209)">
        <path d="M26 21.6667C24.8083 21.6667 23.7882 22.0911 22.9395 22.9397C22.0909 23.7883 21.6666 24.8084 21.6666 26.0001C21.6666 26.8126 21.8698 27.5619 22.276 28.248C22.6823 28.9341 23.2465 29.4667 23.9687 29.8459C24.2576 29.9904 24.4607 30.2025 24.5781 30.4824C24.6954 30.7622 24.6909 31.0466 24.5645 31.3355C24.4382 31.5883 24.2486 31.7779 23.9958 31.9042C23.743 32.0306 23.4902 32.0306 23.2375 31.9042C22.1 31.3626 21.1927 30.5591 20.5156 29.4938C19.8385 28.4286 19.5 27.264 19.5 26.0001C19.5 24.1945 20.1319 22.6598 21.3958 21.3959C22.6597 20.132 24.1944 19.5001 26 19.5001C27.2819 19.5001 28.46 19.8386 29.5343 20.5157C30.6086 21.1928 31.4076 22.1181 31.9312 23.2917C32.0395 23.5445 32.035 23.7973 31.9177 24.0501C31.8003 24.3029 31.6152 24.4834 31.3625 24.5917C31.0736 24.7181 30.7847 24.7181 30.4958 24.5917C30.2069 24.4654 29.9902 24.2577 29.8458 23.9688C29.4666 23.2466 28.934 22.6824 28.2479 22.2761C27.5618 21.8699 26.8125 21.6667 26 21.6667ZM26 17.3334C23.5805 17.3334 21.5312 18.173 19.852 19.8522C18.1729 21.5313 17.3333 23.5806 17.3333 26.0001C17.3333 28.2751 18.0826 30.2251 19.5812 31.8501C21.0798 33.4751 22.9576 34.3959 25.2145 34.6126C25.5215 34.6487 25.7878 34.7841 26.0135 35.0188C26.2392 35.2536 26.343 35.5244 26.325 35.8313C26.3069 36.1383 26.1941 36.3911 25.9864 36.5897C25.7788 36.7883 25.5215 36.8786 25.2145 36.8605C23.8062 36.7702 22.4927 36.4181 21.2739 35.8043C20.0552 35.1904 18.9899 34.3914 18.0781 33.4074C17.1663 32.4233 16.4531 31.2949 15.9385 30.022C15.4239 28.749 15.1666 27.4084 15.1666 26.0001C15.1666 24.5015 15.451 23.0931 16.0198 21.7751C16.5885 20.457 17.3604 19.3105 18.3354 18.3355C19.3104 17.3605 20.4569 16.5886 21.775 16.0199C23.093 15.4511 24.5013 15.1667 26 15.1667C28.8347 15.1667 31.3038 16.1327 33.4072 18.0647C35.5107 19.9966 36.6618 22.3799 36.8604 25.2147C36.8965 25.5036 36.8107 25.7518 36.6031 25.9595C36.3954 26.1671 36.1382 26.2799 35.8312 26.298C35.5243 26.3161 35.2489 26.2167 35.0052 26.0001C34.7614 25.7834 34.6215 25.5216 34.5854 25.2147C34.3145 23.048 33.3711 21.1928 31.7552 19.649C30.1392 18.1053 28.2208 17.3334 26 17.3334ZM34.1791 36.2917L30.6041 32.7438L29.7916 35.2084C29.7013 35.4612 29.5298 35.5831 29.277 35.574C29.0243 35.565 28.8527 35.4341 28.7625 35.1813L26.2979 26.9751C26.2257 26.7765 26.2708 26.5959 26.4333 26.4334C26.5958 26.2709 26.7763 26.2258 26.975 26.298L35.1812 28.7626C35.434 28.8529 35.5649 29.0244 35.5739 29.2772C35.5829 29.5299 35.4611 29.7015 35.2083 29.7917L32.7437 30.6042L36.3187 34.1793C36.6257 34.4862 36.7791 34.8383 36.7791 35.2355C36.7791 35.6327 36.6257 35.9848 36.3187 36.2917C36.0118 36.5987 35.6552 36.7522 35.2489 36.7522C34.8427 36.7522 34.4861 36.5987 34.1791 36.2917Z" fill="white"/>
    </g>
</svg>