<svg xmlns="http://www.w3.org/2000/svg" width="26" height="26" viewBox="0 0 26 26" fill="none">
    <path fill-rule="evenodd" clip-rule="evenodd" d="M13 26C20.1797 26 26 20.1797 26 13C26 5.8203 20.1797 0 13 0C5.8203 0 0 5.8203 0 13C0 20.1797 5.8203 26 13 26ZM10.99 18.1234C10.9189 18.2566 11.0155 18.4175 11.1665 18.4175H11.8361C11.8877 18.4175 11.9372 18.3976 11.9745 18.3619L18.1131 12.4791C18.2347 12.3626 18.1666 12.1571 17.9995 12.1362L14.3716 11.6827C14.2325 11.6653 14.1539 11.5139 14.2199 11.3902L16.0929 7.8783C16.164 7.74508 16.0674 7.58418 15.9165 7.58418H15.2468C15.1952 7.58418 15.1457 7.6041 15.1084 7.63978L8.96983 13.5226C8.84824 13.6391 8.9163 13.8446 9.08341 13.8655L12.7113 14.319C12.8505 14.3363 12.929 14.4878 12.863 14.6115L10.99 18.1234Z" fill="#2FC385"/>
</svg>