<svg width="163" height="45" viewBox="0 0 163 45" fill="none" xmlns="http://www.w3.org/2000/svg">
    <path d="M128.467 16.9821V5.94686H131.95V16.9821H128.467ZM130.212 4.6608C129.722 4.6608 129.303 4.49791 128.951 4.17225C128.6 3.84176 128.424 3.44418 128.424 2.97964C128.424 2.5198 128.6 2.12706 128.951 1.8014C129.303 1.47091 129.722 1.30566 130.212 1.30566C130.706 1.30566 131.127 1.47091 131.474 1.8014C131.825 2.12706 132.001 2.5198 132.001 2.97964C132.001 3.44418 131.825 3.84176 131.474 4.17225C131.127 4.49791 130.706 4.6608 130.212 4.6608Z" fill="white"/>
    <path d="M129.291 2.16785L129.291 2.16785L129.293 2.16597C129.551 1.9235 129.848 1.80566 130.212 1.80566C130.582 1.80566 130.878 1.92461 131.129 2.16343L131.129 2.16346L131.134 2.16785C131.388 2.40362 131.501 2.66565 131.501 2.97964C131.501 3.30007 131.386 3.56774 131.131 3.80799C130.881 4.04277 130.584 4.1608 130.212 4.1608C129.847 4.1608 129.549 4.04427 129.292 3.80674C129.038 3.5668 128.924 3.29951 128.924 2.97964C128.924 2.66566 129.037 2.40362 129.291 2.16785ZM128.967 16.4821V6.44686H131.45V16.4821H128.967Z" stroke="white" stroke-opacity="0.15"/>
    <path d="M109.791 16.9813L113.418 11.1907L109.799 5.94604H113.76L116.332 10.1273H116.653V5.94604H120.137V10.1273H120.452L123.024 5.94604H126.985L123.372 11.1907L126.991 16.9813H122.938L120.423 12.8143H120.137V16.9813H116.653V12.8143H116.369L113.845 16.9813H109.791Z" fill="white"/>
    <path d="M110.694 16.4813L113.842 11.4561L114.017 11.1774L113.83 10.9067L110.751 6.44604H113.481L115.906 10.3893L116.053 10.6273H116.332H116.653H117.153V10.1273V6.44604H119.637V10.1273V10.6273H120.137H120.452H120.731L120.877 10.3893L123.303 6.44604H126.033L122.96 10.907L122.774 11.1773L122.948 11.4557L126.089 16.4813H123.221L120.851 12.5559L120.705 12.3143H120.423H120.137H119.637V12.8143V16.4813H117.153V12.8143V12.3143H116.653H116.369H116.087L115.941 12.5553L113.564 16.4813H110.694Z" stroke="white" stroke-opacity="0.15"/>
    <path d="M101.849 17.1694C101.151 17.1694 100.531 17.0521 99.9886 16.8174C99.4526 16.5779 99.0267 16.2187 98.7134 15.7396C98.4053 15.2559 98.25 14.65 98.25 13.9221C98.25 13.309 98.3574 12.7917 98.571 12.3701C98.7846 11.9487 99.0798 11.6063 99.4552 11.3428C99.8293 11.0794 100.262 10.8806 100.751 10.7465C101.24 10.6077 101.763 10.5142 102.319 10.4663C102.941 10.4089 103.442 10.349 103.823 10.2867C104.202 10.2196 104.478 10.1263 104.649 10.0065C104.825 9.88196 104.913 9.70718 104.913 9.48203V9.44613C104.913 9.0774 104.787 8.79233 104.535 8.59119C104.284 8.39006 103.943 8.28942 103.516 8.28942C103.055 8.28942 102.685 8.39006 102.404 8.59119C102.125 8.79233 101.946 9.07022 101.87 9.4246L98.6565 9.3096C98.751 8.6391 98.9957 8.04038 99.3905 7.51359C99.7892 6.98196 100.335 6.56519 101.029 6.26342C101.727 5.95695 102.566 5.80371 103.545 5.80371C104.242 5.80371 104.887 5.88751 105.476 6.0551C106.065 6.218 106.578 6.45738 107.015 6.77351C107.452 7.08481 107.789 7.46803 108.026 7.92304C108.268 8.37805 108.39 8.8978 108.39 9.48203V16.9826H105.112V15.4452H105.027C104.831 15.8187 104.583 16.1349 104.279 16.3934C103.98 16.6521 103.625 16.8461 103.217 16.9754C102.813 17.1048 102.358 17.1694 101.849 17.1694ZM102.925 14.8703C103.3 14.8703 103.638 14.7937 103.937 14.6405C104.241 14.4873 104.483 14.2765 104.663 14.0082C104.844 13.7353 104.934 13.4192 104.934 13.06V12.0109C104.834 12.0637 104.714 12.1116 104.571 12.1546C104.433 12.1977 104.281 12.2384 104.114 12.2768C103.949 12.3151 103.778 12.3486 103.602 12.3775C103.426 12.4062 103.257 12.4324 103.095 12.4564C102.768 12.5092 102.487 12.5905 102.255 12.7006C102.027 12.8108 101.851 12.9545 101.727 13.1318C101.609 13.3042 101.55 13.5101 101.55 13.7497C101.55 14.1136 101.678 14.3915 101.934 14.5831C102.196 14.7745 102.526 14.8703 102.925 14.8703Z" fill="white"/>
    <path d="M107.89 16.4826V9.48203C107.89 8.96904 107.784 8.53173 107.585 8.15789L107.583 8.15395L107.583 8.15394C107.384 7.77259 107.1 7.44849 106.725 7.18051L106.722 7.1788L106.722 7.17879C106.339 6.90172 105.882 6.6861 105.343 6.53701L105.339 6.53603L105.339 6.53601C104.801 6.38272 104.203 6.30371 103.545 6.30371C102.616 6.30371 101.849 6.4493 101.23 6.72121L101.229 6.72194L101.229 6.72193C100.603 6.99397 100.13 7.36034 99.7906 7.81346L107.89 16.4826ZM107.89 16.4826H105.612V15.4452V14.9452H105.112H105.027H104.724L104.584 15.2134C104.416 15.534 104.207 15.7983 103.955 16.0125L103.955 16.0124L103.952 16.0153C103.708 16.2257 103.415 16.3882 103.066 16.4989L103.065 16.4993C102.719 16.6101 102.316 16.6694 101.849 16.6694C101.208 16.6694 100.659 16.562 100.19 16.3597C99.7408 16.1584 99.392 15.8626 99.1336 15.4685C98.8894 15.0839 98.75 14.5781 98.75 13.9221C98.75 13.3655 98.8477 12.9304 99.017 12.5962L107.89 16.4826ZM99.7431 11.7516L99.7425 11.752C99.4359 11.9672 99.1945 12.246 99.0171 12.5961L99.7431 11.7516ZM99.7431 11.7516C100.065 11.525 100.443 11.3493 100.883 11.2288L100.883 11.2288M99.7431 11.7516L100.883 11.2288M100.883 11.2288L100.888 11.2276M100.883 11.2288L100.888 11.2276M100.888 11.2276C101.344 11.0981 101.835 11.0099 102.362 10.9645L102.362 10.9645M100.888 11.2276L102.362 10.9645M102.362 10.9645L102.365 10.9642M102.362 10.9645L102.365 10.9642M102.365 10.9642C102.993 10.9063 103.507 10.8451 103.904 10.7802L103.904 10.7802M102.365 10.9642L103.904 10.7802M103.904 10.7802L103.91 10.7791M103.904 10.7802L103.91 10.7791M103.91 10.7791C104.31 10.7083 104.674 10.5997 104.936 10.4159L104.936 10.4159M103.91 10.7791L104.936 10.4159M104.936 10.4159L104.938 10.4147M104.936 10.4159L104.938 10.4147M104.938 10.4147C105.253 10.1917 105.413 9.86104 105.413 9.48203V9.44613C105.413 8.95068 105.237 8.51125 104.847 8.20054C104.482 7.90822 104.019 7.78942 103.516 7.78942C102.985 7.78942 102.503 7.90547 102.113 8.18466L102.112 8.1853M104.938 10.4147L102.112 8.1853M102.112 8.1853C101.845 8.37752 101.645 8.62284 101.514 8.91156M102.112 8.1853L101.514 8.91156M105.08 14.2848L105.078 14.2868C104.848 14.6299 104.539 14.8965 104.163 15.0863C103.786 15.2792 103.369 15.3703 102.925 15.3703C102.444 15.3703 102.004 15.2539 101.639 14.9865L101.635 14.9836L101.635 14.9835C101.234 14.6836 101.05 14.2464 101.05 13.7497C101.05 13.4237 101.132 13.1162 101.314 12.8497L101.318 12.8447L101.318 12.8447C101.499 12.5867 101.746 12.3915 102.038 12.2505L102.041 12.2491L102.041 12.2491C102.326 12.1134 102.655 12.0209 103.016 11.9628L103.022 11.9618L103.022 11.9618C103.181 11.9382 103.347 11.9123 103.521 11.884L105.08 14.2848ZM105.08 14.2848C105.321 13.921 105.434 13.5063 105.434 13.06V12.0109V11.1808M105.08 14.2848L105.434 11.1808M105.434 11.1808L104.7 11.569M105.434 11.1808L104.7 11.569M104.7 11.569C104.636 11.603 104.547 11.6397 104.426 11.6761L104.426 11.676M104.7 11.569L104.426 11.676M104.426 11.676L104.423 11.6772M104.426 11.676L104.423 11.6772M104.423 11.6772C104.298 11.7161 104.158 11.7537 104.002 11.7895L104.002 11.7896M104.423 11.6772L104.002 11.7896M104.002 11.7896C103.847 11.8253 103.687 11.8568 103.521 11.884L104.002 11.7896ZM101.514 8.91156L99.2724 8.83132C99.3854 8.46191 99.5582 8.12357 99.7905 7.81358L101.514 8.91156Z" stroke="white" stroke-opacity="0.15"/>
    <path d="M84.2305 20.236V14.273H85.0499C85.2969 14.1485 85.4941 13.9089 85.6414 13.5546C85.7886 13.1954 85.905 12.7763 85.9905 12.2972C86.0807 11.8135 86.1473 11.3106 86.19 10.7885C86.2375 10.2617 86.2802 9.76596 86.3183 9.3013L86.5747 5.94629H95.4388V14.273H97.149V20.236H93.8428V16.9815H87.6223V20.236H84.2305ZM88.4417 14.273H92.1897V8.56135H89.482L89.4249 9.3013C89.3585 10.4892 89.2539 11.4854 89.1115 12.2901C88.969 13.0947 88.7457 13.7557 88.4417 14.273Z" fill="white"/>
    <path d="M87.038 6.44629H94.9388V14.273V14.773H95.4388H96.649V19.736H94.3428V16.9815V16.4815H93.8428H87.6223H87.1223V16.9815V19.736H84.7305V14.773H85.0499H85.1688L85.275 14.7195C85.6638 14.5234 85.9276 14.1686 86.1031 13.7465L86.1031 13.7465L86.1041 13.7442C86.2673 13.3457 86.3921 12.8918 86.4824 12.3871C86.5756 11.8867 86.6442 11.3681 86.6882 10.8313C86.7357 10.3041 86.7785 9.80767 86.8166 9.34211L86.8166 9.34211L86.8168 9.3394L87.038 6.44629ZM88.0106 14.0197L87.568 14.773H88.4417H92.1897H92.6897V14.273V8.56135V8.06135H92.1897H89.482H89.0191L88.9835 8.52289L88.9264 9.26284L88.9263 9.26283L88.9257 9.27339C88.86 10.4494 88.7569 11.4243 88.6192 12.2028C88.4835 12.9687 88.2757 13.5685 88.0106 14.0197Z" stroke="white" stroke-opacity="0.15"/>
    <path d="M77.6719 17.1909C76.5222 17.1909 75.5343 16.9539 74.7077 16.4797C73.8859 16.0007 73.2517 15.335 72.8053 14.4824C72.3634 13.6251 72.1426 12.6312 72.1426 11.5009C72.1426 10.3658 72.3634 9.37186 72.8053 8.51941C73.2517 7.66199 73.8859 6.99631 74.7077 6.52212C75.5343 6.04309 76.5222 5.80371 77.6719 5.80371C78.8215 5.80371 79.8071 6.04309 80.6289 6.52212C81.4555 6.99631 82.0897 7.66199 82.5315 8.51941C82.978 9.37186 83.2013 10.3658 83.2013 11.5009C83.2013 12.6312 82.978 13.6251 82.5315 14.4824C82.0897 15.335 81.4555 16.0007 80.6289 16.4797C79.8071 16.9539 78.8215 17.1909 77.6719 17.1909ZM77.6933 14.5399C78.1113 14.5399 78.4652 14.4106 78.7549 14.1519C79.0448 13.8932 79.2656 13.534 79.4176 13.0743C79.5744 12.6145 79.6528 12.0829 79.6528 11.4793C79.6528 10.8662 79.5744 10.3298 79.4176 9.87008C79.2656 9.41024 79.0448 9.05103 78.7549 8.79233C78.4652 8.53377 78.1113 8.40441 77.6933 8.40441C77.261 8.40441 76.8952 8.53377 76.5959 8.79233C76.3014 9.05103 76.0758 9.41024 75.919 9.87008C75.767 10.3298 75.691 10.8662 75.691 11.4793C75.691 12.0829 75.767 12.6145 75.919 13.0743C76.0758 13.534 76.3014 13.8932 76.5959 14.1519C76.8952 14.4106 77.261 14.5399 77.6933 14.5399Z" fill="white"/>
    <path d="M79.8916 9.71095C79.7188 9.18916 79.4569 8.74866 79.0879 8.41931L79.0879 8.4193C78.6992 8.07244 78.2239 7.90441 77.6933 7.90441C77.153 7.90441 76.6678 8.06946 76.269 8.41398L76.269 8.41396L76.2659 8.41668C75.8918 8.74534 75.624 9.18575 75.4457 9.70873L75.4457 9.70873L75.4443 9.71313C75.2718 10.2349 75.191 10.8264 75.191 11.4793C75.191 12.1236 75.272 12.7101 75.4443 13.2312L75.4442 13.2312L75.4458 13.2357C75.6241 13.7586 75.8918 14.1989 76.2659 14.5276L76.2689 14.5302C76.6678 14.875 77.1531 15.0399 77.6933 15.0399C78.2238 15.0399 78.6991 14.8721 79.0879 14.525L79.8916 9.71095ZM79.8916 9.71095C80.0695 10.2336 80.1528 10.826 80.1528 11.4793C80.1528 12.1241 80.0693 12.7114 79.8916 13.2334C79.7188 13.7551 79.4569 14.1955 79.088 14.5249L79.8916 9.71095ZM74.9576 6.95519L74.9584 6.95472C75.6946 6.52805 76.5923 6.30371 77.6719 6.30371C78.7515 6.30371 79.6463 6.52809 80.3771 6.95409L80.3771 6.9541L80.3801 6.95582C81.122 7.38146 81.6888 7.97559 82.087 8.74844L82.087 8.74844L82.0886 8.75139C82.4914 9.52046 82.7013 10.4321 82.7013 11.5009C82.7013 12.5644 82.4915 13.4767 82.088 14.2515L82.0875 14.2524C81.6893 15.0208 81.1221 15.616 80.3784 16.047C79.6473 16.4687 78.752 16.6909 77.6719 16.6909C76.5923 16.6909 75.6944 16.4689 74.9581 16.0469C74.2197 15.6161 73.652 15.021 73.249 14.2519C72.8499 13.4771 72.6426 12.5646 72.6426 11.5009C72.6426 10.4315 72.8503 9.51929 73.2489 8.74993C73.6523 7.9755 74.22 7.38081 74.9576 6.95519Z" stroke="white" stroke-opacity="0.15"/>
    <path d="M59.7305 21.1208V5.94729H63.1791V7.83689H63.286C63.4286 7.50158 63.6304 7.17827 63.8918 6.86696C64.1577 6.55566 64.495 6.30179 64.9036 6.10535C65.3168 5.90422 65.8108 5.80371 66.3855 5.80371C67.1457 5.80371 67.8559 6.00485 68.5161 6.40712C69.1811 6.8094 69.7179 7.42966 70.1265 8.26789C70.535 9.10612 70.7392 10.1742 70.7392 11.4721C70.7392 12.7223 70.5422 13.7687 70.1478 14.6118C69.7583 15.4547 69.2311 16.087 68.5659 16.5084C67.9057 16.9299 67.1717 17.1407 66.3642 17.1407C65.8132 17.1407 65.3358 17.0497 64.932 16.8676C64.5283 16.6857 64.1886 16.4462 63.9131 16.1492C63.6423 15.8523 63.4332 15.5338 63.286 15.1937H63.2147V21.1208H59.7305ZM63.1435 11.465C63.1435 12.0588 63.222 12.5761 63.3786 13.0168C63.5402 13.4574 63.7706 13.7999 64.0699 14.0441C64.3738 14.2836 64.7372 14.4035 65.16 14.4035C65.5876 14.4035 65.951 14.2836 66.2503 14.0441C66.5494 13.7999 66.7751 13.4574 66.9272 13.0168C67.0839 12.5761 67.1623 12.0588 67.1623 11.465C67.1623 10.8711 67.0839 10.3562 66.9272 9.92033C66.7751 9.48451 66.5494 9.14684 66.2503 8.90732C65.9558 8.66781 65.5923 8.54812 65.16 8.54812C64.7326 8.54812 64.369 8.66546 64.0699 8.90015C63.7706 9.13483 63.5402 9.47015 63.3786 9.90597C63.222 10.3418 63.1435 10.8615 63.1435 11.465Z" fill="white"/>
    <path d="M62.9075 13.1842L62.9075 13.1842C62.7274 12.6776 62.6435 12.1013 62.6435 11.465C62.6435 10.8203 62.7271 10.2405 62.9081 9.73685L62.9098 9.73217L62.9098 9.73218C63.0963 9.22905 63.3747 8.80992 63.7613 8.50675L62.9075 13.1842ZM62.9075 13.1842L62.9092 13.1889M62.9075 13.1842L62.9092 13.1889M62.9092 13.1889C63.0949 13.6956 63.3714 14.1195 63.7538 14.4315L63.7537 14.4316M62.9092 13.1889L63.7537 14.4316M63.7537 14.4316L63.7604 14.4368M63.7537 14.4316L63.7604 14.4368M63.7604 14.4368C64.1608 14.7524 64.6359 14.9035 65.16 14.9035C65.6873 14.9035 66.1645 14.7532 66.5627 14.4345L66.5627 14.4345M63.7604 14.4368L66.5627 14.4345M66.5627 14.4345L66.5664 14.4315M66.5627 14.4345L66.5664 14.4315M66.5664 14.4315C66.9507 14.1178 67.2229 13.6913 67.399 13.1822M66.5664 14.4315L67.399 13.1822M67.399 13.1822C67.5788 12.6759 67.6623 12.1003 67.6623 11.465C67.6623 10.8299 67.5789 10.2558 67.3985 9.75333C67.222 9.24874 66.9492 8.82688 66.5643 8.5182C66.1686 8.19702 65.6896 8.04812 65.16 8.04812C64.6354 8.04812 64.1595 8.19441 63.7614 8.50668L67.399 13.1822ZM63.7462 8.03248C63.8671 7.74814 64.0409 7.46722 64.2733 7.19013C64.4892 6.93786 64.7682 6.72521 65.1202 6.55597L65.1202 6.55598L65.1224 6.55492C65.4525 6.39424 65.868 6.30371 66.3855 6.30371C67.0523 6.30371 67.6727 6.47873 68.2559 6.83411L68.2573 6.83494C68.8248 7.17824 69.3021 7.71774 69.677 8.48695C70.0419 9.23558 70.2392 10.2221 70.2392 11.4721C70.2392 12.673 70.0495 13.6419 69.6949 14.3999L69.694 14.402C69.3374 15.1736 68.8685 15.7248 68.2983 16.0861L68.2969 16.087C67.7196 16.4555 67.0795 16.6407 66.3642 16.6407C65.8672 16.6407 65.463 16.5586 65.1376 16.4118L65.1375 16.4118C64.7896 16.255 64.5068 16.0536 64.2811 15.8107C64.0451 15.5516 63.8681 15.2797 63.7449 14.9951L63.6145 14.6937H63.286H63.2147H62.7147V15.1937V20.6208H60.2305V6.44729H62.6791V7.83689V8.33689H63.1791H63.286H63.6168L63.7462 8.03248Z" stroke="white" stroke-opacity="0.15"/>
    <path d="M56.9948 2.26758V16.9814H53.5176V5.11262H48.1023V16.9814H44.625V2.26758H56.9948Z" fill="white"/>
    <path d="M47.6023 5.11262V16.4814H45.125V2.76758H56.4948V16.4814H54.0176V5.11262V4.61262H53.5176H48.1023H47.6023V5.11262Z" stroke="white" stroke-opacity="0.15"/>
    <path fill-rule="evenodd" clip-rule="evenodd" d="M19.0318 36.3564L34.9347 20.1966V24.3272L15.2845 44.9998L0 28.9266V24.5551C1.71823 26.3306 3.43602 28.106 5.15349 29.8816L19.0318 11.0032V36.3564ZM7.57689 32.4792L12.0132 37.0818V26.5934L7.57689 32.4792Z" fill="#48A57E"/>
    <path d="M18.5318 36.3564V37.5773L19.3882 36.7071L34.4347 21.4175V24.1275L15.2844 44.2742L0.5 28.7268V25.7908C1.93164 27.2702 3.36298 28.7497 4.79411 30.2292L5.2057 30.6547L5.55635 30.1778L18.5318 12.5275V36.3564ZM7.17761 32.1783L6.92078 32.519L7.21689 32.8262L11.6532 37.4288L12.5132 38.3211V37.0818V26.5934V25.0994L11.6139 26.2925L7.17761 32.1783Z" stroke="white" stroke-opacity="0.15"/>
    <path d="M7.57617 32.4715L15.2798 18.4883V40.2803L12.0086 37.0702V26.5857L7.57617 32.4715Z" fill="#34825E"/>
    <path d="M11.6092 26.2849L11.4086 26.5513L14.7798 20.432V39.0891L12.5086 36.8603V26.5857V25.0906L11.6092 26.2849Z" stroke="white" stroke-opacity="0.15"/>
    <path d="M3.34961 0V23.2466L6.21134 26.8942V3.15762H24.6776V26.8942L27.5933 23.2466V0H3.34961Z" fill="white"/>
    <path d="M6.21134 2.65762H5.71134V3.15762V25.4469L3.84961 23.0739V0.5H27.0933V23.0713L25.1776 25.4679V3.15762V2.65762H24.6776H6.21134Z" stroke="white" stroke-opacity="0.15"/>
    <path d="M48.265 39.2501C47.3117 39.2501 46.4927 39.0595 45.808 38.6781C45.132 38.2881 44.612 37.7421 44.248 37.0401C43.884 36.3295 43.702 35.4931 43.702 34.5311C43.702 33.5691 43.884 32.7371 44.248 32.0351C44.612 31.3331 45.132 30.7915 45.808 30.4101C46.4927 30.0201 47.3117 29.8251 48.265 29.8251C48.8803 29.8251 49.461 29.9205 50.007 30.1111C50.5617 30.3018 51.0167 30.5748 51.372 30.9301L50.826 32.2561C50.436 31.9268 50.0373 31.6885 49.63 31.5411C49.2227 31.3851 48.785 31.3071 48.317 31.3071C47.511 31.3071 46.8653 31.5238 46.38 31.9571C45.9033 32.3818 45.6087 32.9928 45.496 33.7901H49.63V35.1161H45.47C45.574 35.9915 45.8687 36.6545 46.354 37.1051C46.848 37.5471 47.5023 37.7681 48.317 37.7681C48.785 37.7681 49.2227 37.6945 49.63 37.5471C50.0373 37.3911 50.436 37.1485 50.826 36.8191L51.372 38.1451C51.0167 38.4918 50.5617 38.7648 50.007 38.9641C49.461 39.1548 48.8803 39.2501 48.265 39.2501ZM60.5921 39.2501C59.6388 39.2501 58.8198 39.0595 58.1351 38.6781C57.4591 38.2881 56.9391 37.7421 56.5751 37.0401C56.2111 36.3295 56.0291 35.4931 56.0291 34.5311C56.0291 33.5691 56.2111 32.7371 56.5751 32.0351C56.9391 31.3331 57.4591 30.7915 58.1351 30.4101C58.8198 30.0201 59.6388 29.8251 60.5921 29.8251C61.2075 29.8251 61.7881 29.9205 62.3341 30.1111C62.8888 30.3018 63.3438 30.5748 63.6991 30.9301L63.1531 32.2561C62.7631 31.9268 62.3645 31.6885 61.9571 31.5411C61.5498 31.3851 61.1121 31.3071 60.6441 31.3071C59.7168 31.3071 59.0105 31.5888 58.5251 32.1521C58.0398 32.7068 57.7971 33.4998 57.7971 34.5311C57.7971 35.5625 58.0398 36.3598 58.5251 36.9231C59.0105 37.4865 59.7168 37.7681 60.6441 37.7681C61.1121 37.7681 61.5498 37.6945 61.9571 37.5471C62.3645 37.3911 62.7631 37.1485 63.1531 36.8191L63.6991 38.1451C63.3438 38.4918 62.8888 38.7648 62.3341 38.9641C61.7881 39.1548 61.2075 39.2501 60.5921 39.2501ZM65.1514 39.1201V29.9551H69.1294C70.1347 29.9551 70.9104 30.1978 71.4564 30.6831C72.0024 31.1598 72.2754 31.8315 72.2754 32.6981C72.2754 33.3828 72.0977 33.9505 71.7424 34.4011C71.3871 34.8431 70.8757 35.1421 70.2084 35.2981C70.6504 35.4368 71.0144 35.7705 71.3004 36.2991L72.8344 39.1201H71.0014L69.4154 36.1951C69.2594 35.9091 69.0731 35.7141 68.8564 35.6101C68.6484 35.5061 68.3797 35.4541 68.0504 35.4541H66.8154V39.1201H65.1514ZM66.8154 34.2191H68.8434C70.0567 34.2191 70.6634 33.7251 70.6634 32.7371C70.6634 31.7578 70.0567 31.2681 68.8434 31.2681H66.8154V34.2191ZM74.0895 39.1201V29.9551H75.4805L78.7305 35.9481L81.9675 29.9551H83.3325V39.1201H81.8245V32.9451L79.1985 37.7291H78.2235L75.5975 32.9711V39.1201H74.0895ZM88.7365 36.2861V34.9861H92.6105V36.2861H88.7365ZM100.958 39.2501C100.273 39.2501 99.6755 39.1158 99.1642 38.8471C98.6615 38.5698 98.2715 38.1841 97.9942 37.6901C97.7168 37.1875 97.5782 36.5938 97.5782 35.9091C97.5782 34.8951 97.8858 34.0978 98.5012 33.5171C99.1165 32.9278 99.9615 32.6331 101.036 32.6331C101.487 32.6331 101.929 32.7025 102.362 32.8411C102.795 32.9711 103.133 33.1575 103.376 33.4001L102.908 34.4401C102.648 34.2235 102.353 34.0631 102.024 33.9591C101.695 33.8465 101.378 33.7901 101.075 33.7901C100.503 33.7901 100.061 33.9331 99.7492 34.2191C99.4372 34.4965 99.2292 34.8648 99.1252 35.3241H102.115V36.4941H99.1252C99.2292 37.0141 99.4458 37.4128 99.7752 37.6901C100.113 37.9588 100.546 38.0931 101.075 38.0931C101.378 38.0931 101.695 38.0368 102.024 37.9241C102.362 37.8115 102.657 37.6511 102.908 37.4431L103.376 38.4701C103.116 38.7128 102.761 38.9035 102.31 39.0421C101.868 39.1808 101.417 39.2501 100.958 39.2501ZM108.163 39.1201V29.9551H116.132V39.1201H114.468V31.3461H109.827V39.1201H108.163ZM118.064 41.4601V32.7631H119.65V33.7771C119.832 33.4305 120.105 33.1531 120.469 32.9451C120.842 32.7371 121.262 32.6331 121.73 32.6331C122.285 32.6331 122.77 32.7675 123.186 33.0361C123.611 33.3048 123.94 33.6861 124.174 34.1801C124.408 34.6655 124.525 35.2505 124.525 35.9351C124.525 36.6111 124.408 37.2005 124.174 37.7031C123.94 38.1971 123.615 38.5785 123.199 38.8471C122.783 39.1158 122.293 39.2501 121.73 39.2501C121.279 39.2501 120.872 39.1548 120.508 38.9641C120.153 38.7648 119.88 38.5005 119.689 38.1711V41.4601H118.064ZM121.275 38.0151C121.76 38.0151 122.15 37.8418 122.445 37.4951C122.74 37.1398 122.887 36.6198 122.887 35.9351C122.887 35.2418 122.74 34.7261 122.445 34.3881C122.15 34.0415 121.76 33.8681 121.275 33.8681C120.79 33.8681 120.4 34.0415 120.105 34.3881C119.81 34.7261 119.663 35.2418 119.663 35.9351C119.663 36.6198 119.81 37.1398 120.105 37.4951C120.4 37.8418 120.79 38.0151 121.275 38.0151ZM128.948 39.2501C128.29 39.2501 127.718 39.1158 127.232 38.8471C126.747 38.5785 126.37 38.1971 126.101 37.7031C125.833 37.2005 125.698 36.6111 125.698 35.9351C125.698 35.2591 125.833 34.6741 126.101 34.1801C126.37 33.6861 126.747 33.3048 127.232 33.0361C127.718 32.7675 128.29 32.6331 128.948 32.6331C129.607 32.6331 130.179 32.7675 130.664 33.0361C131.15 33.3048 131.527 33.6861 131.795 34.1801C132.064 34.6741 132.198 35.2591 132.198 35.9351C132.198 36.6111 132.064 37.2005 131.795 37.7031C131.527 38.1971 131.15 38.5785 130.664 38.8471C130.179 39.1158 129.607 39.2501 128.948 39.2501ZM128.948 38.0151C129.434 38.0151 129.824 37.8418 130.118 37.4951C130.413 37.1398 130.56 36.6198 130.56 35.9351C130.56 35.2418 130.413 34.7261 130.118 34.3881C129.824 34.0415 129.434 33.8681 128.948 33.8681C128.463 33.8681 128.073 34.0415 127.778 34.3881C127.484 34.7261 127.336 35.2418 127.336 35.9351C127.336 36.6198 127.484 37.1398 127.778 37.4951C128.073 37.8418 128.463 38.0151 128.948 38.0151ZM133.119 40.8101V37.8461H133.847C134.099 37.4475 134.276 36.9925 134.38 36.4811C134.493 35.9698 134.549 35.3328 134.549 34.5701V32.7631H139.502V37.8461H140.542V40.8101H139.164V39.1201H134.497V40.8101H133.119ZM135.316 37.8461H137.981V34.0111H135.94V34.9471C135.94 35.4931 135.884 36.0218 135.771 36.5331C135.667 37.0445 135.516 37.4821 135.316 37.8461ZM143.846 39.2501C143.387 39.2501 142.975 39.1635 142.611 38.9901C142.256 38.8081 141.974 38.5655 141.766 38.2621C141.567 37.9588 141.467 37.6165 141.467 37.2351C141.467 36.7671 141.589 36.3988 141.831 36.1301C142.074 35.8528 142.468 35.6535 143.014 35.5321C143.56 35.4108 144.293 35.3501 145.211 35.3501H145.666V35.0771C145.666 34.6438 145.571 34.3318 145.38 34.1411C145.19 33.9505 144.869 33.8551 144.418 33.8551C144.063 33.8551 143.699 33.9115 143.326 34.0241C142.954 34.1281 142.577 34.2928 142.195 34.5181L141.727 33.4131C141.953 33.2571 142.217 33.1228 142.52 33.0101C142.832 32.8888 143.157 32.7978 143.495 32.7371C143.842 32.6678 144.167 32.6331 144.47 32.6331C145.398 32.6331 146.087 32.8498 146.537 33.2831C146.988 33.7078 147.213 34.3708 147.213 35.2721V39.1201H145.692V38.1061C145.545 38.4615 145.311 38.7431 144.99 38.9511C144.67 39.1505 144.288 39.2501 143.846 39.2501ZM144.184 38.1321C144.609 38.1321 144.96 37.9848 145.237 37.6901C145.523 37.3955 145.666 37.0228 145.666 36.5721V36.2861H145.224C144.41 36.2861 143.842 36.3511 143.521 36.4811C143.209 36.6025 143.053 36.8278 143.053 37.1571C143.053 37.4431 143.153 37.6771 143.352 37.8591C143.552 38.0411 143.829 38.1321 144.184 38.1321ZM148.026 39.1201L149.365 36.7541C149.53 36.4595 149.695 36.2168 149.859 36.0261C150.033 35.8355 150.223 35.6925 150.431 35.5971L148.312 32.7631H150.054L151.9 35.2331H152.667V32.7631H154.292V35.2331H155.059L156.892 32.7631H158.634L156.528 35.5971C156.736 35.7011 156.923 35.8485 157.087 36.0391C157.261 36.2211 157.43 36.4595 157.594 36.7541L158.92 39.1201H157.191L156.125 37.2481C155.961 36.9448 155.792 36.7455 155.618 36.6501C155.445 36.5461 155.22 36.4941 154.942 36.4941H154.292V39.1201H152.667V36.4941H152.017C151.731 36.4941 151.506 36.5461 151.341 36.6501C151.177 36.7455 151.008 36.9448 150.834 37.2481L149.768 39.1201H148.026ZM159.677 31.3981V29.8121H161.497V31.3981H159.677ZM159.781 39.1201V32.7631H161.406V39.1201H159.781Z" fill="#48A57E"/>
</svg>
