<svg xmlns="http://www.w3.org/2000/svg" width="115" height="45" viewBox="0 0 115 45" fill="none">
    <path d="M111.749 22.9744V13.7689H114.655V22.9744H111.749ZM113.204 12.6961C112.796 12.6961 112.446 12.5602 112.152 12.2885C111.86 12.0128 111.713 11.6812 111.713 11.2936C111.713 10.91 111.86 10.5824 112.152 10.3108C112.446 10.0351 112.796 9.89722 113.204 9.89722C113.617 9.89722 113.968 10.0351 114.257 10.3108C114.55 10.5824 114.697 10.91 114.697 11.2936C114.697 11.6812 114.55 12.0128 114.257 12.2885C113.968 12.5602 113.617 12.6961 113.204 12.6961Z" fill="white"/>
    <path d="M112.493 10.6772L112.493 10.6772L112.495 10.6753C112.695 10.4877 112.922 10.3972 113.204 10.3972C113.493 10.3972 113.719 10.4888 113.912 10.6728L113.912 10.6728L113.917 10.6772C114.113 10.859 114.197 11.0559 114.197 11.2936C114.197 11.5371 114.111 11.7388 113.915 11.9243C113.722 12.1051 113.495 12.1961 113.204 12.1961C112.92 12.1961 112.693 12.1065 112.494 11.923C112.298 11.7379 112.213 11.5365 112.213 11.2936C112.213 11.0559 112.297 10.859 112.493 10.6772ZM112.249 22.4744V14.2689H114.155V22.4744H112.249Z" stroke="white" stroke-opacity="0.15"/>
    <path d="M96.1699 22.9746L99.1958 18.1441L96.1764 13.769H99.4809L101.627 17.257H101.894V13.769H104.8V17.257H105.063L107.209 13.769H110.513L107.499 18.1441L110.519 22.9746H107.137L105.039 19.4985H104.8V22.9746H101.894V19.4985H101.657L99.5522 22.9746H96.1699Z" fill="white"/>
    <path d="M97.0731 22.4746L99.6195 18.4095L99.7941 18.1308L99.6073 17.8601L97.129 14.269H99.2014L101.201 17.519L101.347 17.757H101.627H101.894H102.394V17.257V14.269H104.3V17.257V17.757H104.8H105.063H105.342L105.489 17.519L107.488 14.269H109.562L107.087 17.8604L106.901 18.1308L107.075 18.4091L109.616 22.4746H107.42L105.467 19.2401L105.321 18.9985H105.039H104.8H104.3V19.4985V22.4746H102.394V19.4985V18.9985H101.894H101.657H101.375L101.229 19.2395L99.2704 22.4746H97.0731Z" stroke="white" stroke-opacity="0.15"/>
    <path d="M89.5451 23.1302C88.963 23.1302 88.4457 23.0323 87.9933 22.8365C87.5462 22.6367 87.1909 22.3371 86.9296 21.9375C86.6726 21.5339 86.543 21.0285 86.543 20.4213C86.543 19.9098 86.6326 19.4783 86.8108 19.1266C86.989 18.775 87.2352 18.4894 87.5484 18.2696C87.8604 18.0499 88.2211 17.8841 88.6293 17.7722C89.0375 17.6564 89.4738 17.5784 89.9371 17.5385C90.4565 17.4905 90.8744 17.4406 91.1919 17.3886C91.5083 17.3327 91.7384 17.2548 91.8809 17.1549C92.0278 17.051 92.1012 16.9052 92.1012 16.7174V16.6874C92.1012 16.3798 91.9965 16.142 91.7859 15.9742C91.5764 15.8064 91.2924 15.7225 90.936 15.7225C90.5516 15.7225 90.2427 15.8064 90.0084 15.9742C89.7751 16.142 89.6261 16.3738 89.5624 16.6695L86.8821 16.5735C86.9609 16.0142 87.165 15.5148 87.4944 15.0753C87.827 14.6318 88.2827 14.2842 88.8615 14.0324C89.4436 13.7768 90.1434 13.6489 90.9598 13.6489C91.5418 13.6489 92.0796 13.7188 92.571 13.8586C93.0623 13.9945 93.4899 14.1942 93.855 14.4579C94.2189 14.7176 94.5007 15.0373 94.6984 15.4169C94.9003 15.7964 95.0018 16.23 95.0018 16.7174V22.9744H92.2675V21.6918H92.1962C92.0332 22.0034 91.8258 22.2672 91.572 22.4829C91.3226 22.6987 91.0267 22.8605 90.6865 22.9684C90.3496 23.0763 89.9695 23.1302 89.5451 23.1302ZM90.4425 21.2123C90.7557 21.2123 91.0375 21.1484 91.287 21.0206C91.5407 20.8927 91.7427 20.7169 91.8928 20.4931C92.044 20.2654 92.1185 20.0017 92.1185 19.7021V18.827C92.0353 18.871 91.9349 18.9109 91.8161 18.9469C91.7006 18.9828 91.5742 19.0168 91.4349 19.0488C91.2967 19.0807 91.1541 19.1087 91.0073 19.1327C90.8604 19.1567 90.72 19.1786 90.585 19.1986C90.3118 19.2426 90.0775 19.3104 89.8842 19.4023C89.6941 19.4942 89.5472 19.6141 89.4436 19.762C89.3453 19.9058 89.2956 20.0776 89.2956 20.2774C89.2956 20.581 89.4025 20.8128 89.6164 20.9726C89.8345 21.1324 90.1099 21.2123 90.4425 21.2123Z" fill="white"/>
    <path d="M87.8362 18.6784L87.8356 18.6788C87.5913 18.8503 87.3989 19.0723 87.2568 19.3526L87.8362 18.6784ZM87.8362 18.6784C88.096 18.4955 88.4028 18.3527 88.7614 18.2545L88.7614 18.2545M87.8362 18.6784L88.7614 18.2545M88.7614 18.2545L88.7658 18.2532M88.7614 18.2545L88.7658 18.2532M88.7658 18.2532C89.1407 18.1468 89.5454 18.0741 89.9801 18.0366L89.9801 18.0366M88.7658 18.2532L89.9801 18.0366M89.9801 18.0366L89.983 18.0363M89.9801 18.0366L89.983 18.0363M89.983 18.0363C90.508 17.9879 90.9389 17.9367 91.2727 17.8821L91.2727 17.8821M89.983 18.0363L91.2727 17.8821M91.2727 17.8821L91.279 17.881M91.2727 17.8821L91.279 17.881M91.279 17.881C91.6161 17.8214 91.9341 17.7282 92.168 17.5642L92.168 17.5643M91.279 17.881L92.168 17.5643M92.168 17.5643L92.1696 17.5631M92.168 17.5643L92.1696 17.5631M92.1696 17.5631C92.4557 17.3607 92.6012 17.0591 92.6012 16.7174V16.6874C92.6012 16.2531 92.4457 15.8609 92.0979 15.5836M92.1696 17.5631L92.0979 15.5836M92.0979 15.5836C91.7743 15.3246 91.3681 15.2225 90.936 15.2225C90.4813 15.2225 90.0606 15.3219 89.7173 15.5677L89.7164 15.5683C89.497 15.7262 89.3294 15.9249 89.2145 16.1567L87.5089 16.0956C87.5998 15.8364 87.7283 15.5969 87.8944 15.3753L92.0979 15.5836ZM94.5018 22.4744V16.7174C94.5018 16.3012 94.4157 15.9501 94.2569 15.6517L94.2549 15.6478L94.2549 15.6478C94.0956 15.3419 93.8677 15.0813 93.5645 14.8649L93.5621 14.8632L93.5621 14.8632C93.2512 14.6386 92.8791 14.4626 92.4377 14.3405L92.4341 14.3396L92.4341 14.3395C91.993 14.214 91.502 14.1489 90.9598 14.1489C90.1936 14.1489 89.566 14.2691 89.0626 14.4902L89.0609 14.4909L89.0609 14.4909C88.5505 14.7129 88.1682 15.0102 87.8945 15.3752L94.5018 22.4744ZM94.5018 22.4744H92.7675V21.6918V21.1918H92.2675H92.1962H91.9315C92.0752 21.0708 92.2013 20.9307 92.308 20.7717L92.3093 20.7697C92.5209 20.4511 92.6185 20.0888 92.6185 19.7021V18.827V17.9968L91.8847 18.385C91.8368 18.4103 91.7678 18.4391 91.6713 18.4683L91.6713 18.4683L91.6676 18.4694C91.5654 18.5012 91.4513 18.532 91.3229 18.5615L91.3225 18.5616C91.1953 18.5909 91.0634 18.6169 90.9268 18.6392C90.7821 18.6628 90.6441 18.6844 90.5116 18.704L90.5116 18.704L90.5056 18.705C90.1991 18.7543 89.9165 18.8333 89.6695 18.9508L89.6695 18.9507L89.6665 18.9522C89.4127 19.0749 89.1945 19.2463 89.0342 19.4749L89.0341 19.4749L89.0307 19.4799C88.8682 19.7178 88.7956 19.9911 88.7956 20.2774C88.7956 20.7138 88.9583 21.105 89.317 21.3731L89.317 21.3731L89.321 21.3761C89.6429 21.6118 90.0285 21.7123 90.4425 21.7123C90.8248 21.7123 91.1858 21.6339 91.5134 21.4663C91.6397 21.4026 91.7574 21.3288 91.8658 21.2448L91.7532 21.46C91.6178 21.7188 91.4497 21.9306 91.2482 22.1019L91.2482 22.1019L91.2449 22.1047C91.0513 22.2722 90.8167 22.4025 90.5354 22.4918L90.534 22.4922C90.2551 22.5815 89.9277 22.6302 89.5451 22.6302C89.0204 22.6302 88.5735 22.5423 88.1946 22.3788C87.8344 22.2173 87.5562 21.981 87.3497 21.6664C87.1566 21.3619 87.043 20.9565 87.043 20.4213C87.043 19.9663 87.1229 19.617 87.2568 19.3527L94.5018 22.4744Z" stroke="white" stroke-opacity="0.15"/>
    <path d="M74.8477 25.6895V20.7152H75.5312C75.7373 20.6113 75.9018 20.4115 76.0246 20.1159C76.1474 19.8162 76.2445 19.4666 76.3159 19.067C76.3912 18.6635 76.4467 18.2439 76.4823 17.8084C76.5219 17.3689 76.5576 16.9554 76.5893 16.5678L76.8032 13.769H84.1976V20.7152H85.6243V25.6895H82.8662V22.9746H77.6771V25.6895H74.8477ZM78.3607 20.7152H81.4872V15.9505H79.2285L79.1809 16.5678C79.1255 17.5587 79.0382 18.3897 78.9194 19.061C78.8005 19.7323 78.6142 20.2836 78.3607 20.7152Z" fill="white"/>
    <path d="M77.4869 21.2152L77.9296 20.4618C78.1443 20.0965 78.315 19.6063 78.4271 18.9739L77.4869 21.2152ZM77.4869 21.2152H78.3607M77.4869 21.2152H78.3607M78.3607 21.2152H81.4872H81.9872M78.3607 21.2152H81.9872M81.9872 21.2152V20.7152M81.9872 21.2152V20.7152M81.9872 20.7152V15.9505V15.4505M81.9872 20.7152V15.4505M81.9872 15.4505H81.4872M81.9872 15.4505H81.4872M81.4872 15.4505H79.2285H78.7656M81.4872 15.4505H78.7656M78.7656 15.4505L78.73 15.9121M78.7656 15.4505L78.73 15.9121M78.73 15.9121L78.6823 16.5293L78.6822 16.5293M78.73 15.9121L78.6822 16.5293M78.6822 16.5293L78.6816 16.5399M78.6822 16.5293L78.6816 16.5399M78.6816 16.5399C78.6269 17.5189 78.5412 18.3287 78.4271 18.9738L78.6816 16.5399ZM77.2665 14.269H83.6976V20.7152V21.2152H84.1976H85.1243V25.1895H83.3662V22.9746V22.4746H82.8662H77.6771H77.1771V22.9746V25.1895H75.3477V21.2152H75.5312H75.6501L75.7563 21.1616C76.1042 20.9863 76.3353 20.6712 76.4863 20.3078L76.4863 20.3078L76.4873 20.3054C76.6262 19.9665 76.7317 19.5821 76.8078 19.1568C76.8861 18.7367 76.9436 18.3014 76.9805 17.8513C77.0201 17.4114 77.0558 16.9971 77.0877 16.6086L77.0877 16.6086L77.0879 16.6059L77.2665 14.269Z" stroke="white" stroke-opacity="0.15"/>
    <path d="M69.3762 23.1481C68.4172 23.1481 67.593 22.9504 66.9035 22.5548C66.218 22.1552 65.6889 21.5999 65.3165 20.8887C64.9479 20.1735 64.7637 19.3444 64.7637 18.4015C64.7637 17.4546 64.9479 16.6255 65.3165 15.9144C65.6889 15.1991 66.218 14.6438 66.9035 14.2482C67.593 13.8486 68.4172 13.6489 69.3762 13.6489C70.3352 13.6489 71.1574 13.8486 71.8429 14.2482C72.5325 14.6438 73.0615 15.1991 73.4301 15.9144C73.8025 16.6255 73.9888 17.4546 73.9888 18.4015C73.9888 19.3444 73.8025 20.1735 73.4301 20.8887C73.0615 21.5999 72.5325 22.1552 71.8429 22.5548C71.1574 22.9504 70.3352 23.1481 69.3762 23.1481ZM69.3941 20.9366C69.7428 20.9366 70.038 20.8288 70.2797 20.613C70.5215 20.3972 70.7057 20.0975 70.8325 19.7141C70.9633 19.3305 71.0287 18.887 71.0287 18.3835C71.0287 17.8721 70.9633 17.4246 70.8325 17.0411C70.7057 16.6575 70.5215 16.3578 70.2797 16.142C70.038 15.9263 69.7428 15.8184 69.3941 15.8184C69.0335 15.8184 68.7283 15.9263 68.4786 16.142C68.233 16.3578 68.0447 16.6575 67.914 17.0411C67.7872 17.4246 67.7238 17.8721 67.7238 18.3835C67.7238 18.887 67.7872 19.3305 67.914 19.7141C68.0447 20.0975 68.233 20.3972 68.4786 20.613C68.7283 20.8288 69.0335 20.9366 69.3941 20.9366Z" fill="white"/>
    <path d="M67.1534 14.6813L67.1542 14.6808C67.7534 14.3336 68.4873 14.1489 69.3762 14.1489C70.2652 14.1489 70.9966 14.3336 71.5911 14.6802L71.5911 14.6802L71.5941 14.6819C72.199 15.0289 72.6606 15.5127 72.9856 16.1434L72.9856 16.1434L72.9871 16.1463C73.3159 16.7741 73.4888 17.5209 73.4888 18.4015C73.4888 19.2776 73.3161 20.0251 72.9866 20.6577L72.9861 20.6586C72.6612 21.2857 72.1991 21.7705 71.5925 22.1221C70.9976 22.4652 70.2657 22.6481 69.3762 22.6481C68.4872 22.6481 67.7531 22.4654 67.1538 22.122C66.5517 21.7707 66.0892 21.2859 65.7602 20.6582C65.4344 20.0255 65.2637 19.2778 65.2637 18.4015C65.2637 17.5203 65.4348 16.7729 65.7602 16.1449C66.0895 15.5126 66.552 15.0283 67.1534 14.6813ZM70.6126 15.769L70.6126 15.769C70.272 15.465 69.8554 15.3184 69.3941 15.3184C68.9254 15.3184 68.5009 15.462 68.1518 15.7637L68.1517 15.7637L68.1487 15.7664C67.8233 16.0521 67.593 16.433 67.4407 16.8797L67.4407 16.8797L67.4392 16.8841C67.2919 17.3297 67.2238 17.8323 67.2238 18.3835C67.2238 18.9277 67.2922 19.4261 67.4392 19.871L67.4392 19.871L67.4407 19.8754C67.593 20.3221 67.8233 20.7029 68.1487 20.9887L68.1486 20.9887L68.1517 20.9913C68.5009 21.2932 68.9255 21.4366 69.3941 21.4366C69.8553 21.4366 70.272 21.2902 70.6127 20.986C70.9336 20.6995 71.1589 20.3186 71.3065 19.8732C71.4581 19.4274 71.5287 18.9283 71.5287 18.3835C71.5287 17.8318 71.4584 17.3284 71.3065 16.8819C71.1589 16.4364 70.9336 16.0555 70.6126 15.769Z" stroke="white" stroke-opacity="0.15"/>
    <path d="M54.4082 26.4264V13.7687H57.2851V15.345H57.3743C57.4931 15.0653 57.6615 14.7956 57.8795 14.5359C58.1013 14.2762 58.3828 14.0644 58.7236 13.9006C59.0683 13.7328 59.4804 13.6489 59.9599 13.6489C60.594 13.6489 61.1864 13.8167 61.7371 14.1523C62.2919 14.4879 62.7397 15.0053 63.0805 15.7045C63.4214 16.4038 63.5917 17.2948 63.5917 18.3775C63.5917 19.4204 63.4273 20.2933 63.0984 20.9966C62.7734 21.6998 62.3336 22.2272 61.7787 22.5788C61.228 22.9304 60.6157 23.1062 59.942 23.1062C59.4824 23.1062 59.0842 23.0303 58.7473 22.8784C58.4105 22.7266 58.1272 22.5268 57.8974 22.2791C57.6714 22.0314 57.497 21.7657 57.3743 21.482H57.3147V26.4264H54.4082ZM57.2554 18.3715C57.2554 18.8669 57.3208 19.2985 57.4515 19.666C57.5862 20.0336 57.7785 20.3193 58.0281 20.5231C58.2817 20.7229 58.5848 20.8228 58.9375 20.8228C59.2942 20.8228 59.5973 20.7229 59.847 20.5231C60.0966 20.3193 60.2848 20.0336 60.4117 19.666C60.5425 19.2985 60.6078 18.8669 60.6078 18.3715C60.6078 17.8761 60.5425 17.4466 60.4117 17.083C60.2848 16.7194 60.0966 16.4378 59.847 16.238C59.6013 16.0382 59.2981 15.9383 58.9375 15.9383C58.5809 15.9383 58.2777 16.0362 58.0281 16.232C57.7785 16.4277 57.5862 16.7075 57.4515 17.071C57.3208 17.4346 57.2554 17.8682 57.2554 18.3715Z" fill="white"/>
    <path d="M57.8344 15.5406C57.9316 15.3118 58.072 15.0845 58.2611 14.8591C58.4329 14.6584 58.656 14.4878 58.9402 14.3512L58.9403 14.3512L58.9424 14.3501C59.204 14.2228 59.5376 14.1489 59.9599 14.1489C60.5006 14.1489 61.0032 14.2906 61.477 14.5793L61.4784 14.5801C61.9356 14.8567 62.3239 15.2934 62.6311 15.9236C62.9282 16.5333 63.0917 17.3427 63.0917 18.3775C63.0917 19.3711 62.9346 20.1665 62.6454 20.7848L62.6445 20.7869C62.3525 21.4187 61.971 21.865 61.5111 22.1564L61.5097 22.1573C61.0419 22.456 60.5234 22.6062 59.942 22.6062C59.5364 22.6062 59.2113 22.5392 58.9529 22.4226L58.9528 22.4226C58.6719 22.296 58.4454 22.1343 58.2653 21.9406C58.0742 21.7307 57.9319 21.5117 57.8331 21.2834L57.7027 20.982H57.3743H57.3147H56.8147V21.482V25.9264H54.9082V14.2687H56.7851V15.345V15.845H57.2851H57.3743H57.705L57.8344 15.5406ZM56.9803 19.8335L56.9803 19.8335L56.982 19.8382C57.141 20.2718 57.3793 20.639 57.712 20.9105L57.712 20.9105L57.7187 20.9158C58.0687 21.1916 58.4835 21.3228 58.9375 21.3228C59.394 21.3228 59.8109 21.1924 60.1594 20.9134L60.1594 20.9135L60.1632 20.9104C60.4978 20.6372 60.7326 20.2675 60.8835 19.8314C61.0373 19.3982 61.1078 18.9084 61.1078 18.3715C61.1078 17.8349 61.0374 17.3462 60.883 16.916C60.7317 16.4836 60.4963 16.1178 60.161 15.8488C59.8141 15.5674 59.3954 15.4383 58.9375 15.4383C58.4838 15.4383 58.0681 15.5651 57.7196 15.8385C57.3826 16.1028 57.1424 16.4663 56.9826 16.8972L56.9826 16.8972L56.9809 16.9019C56.8259 17.3333 56.7554 17.827 56.7554 18.3715C56.7554 18.9094 56.8262 19.3999 56.9803 19.8335Z" stroke="white" stroke-opacity="0.15"/>
    <path d="M52.1275 10.7002V22.9744H49.2267V13.0735H44.7093V22.9744H41.8086V10.7002H52.1275Z" fill="white"/>
    <path d="M44.2093 13.0735V22.4744H42.3086V11.2002H51.6275V22.4744H49.7267V13.0735V12.5735H49.2267H44.7093H44.2093V13.0735Z" stroke="white" stroke-opacity="0.15"/>
    <path d="M114.342 35.7384V31.196H114.867V35.7384H114.342ZM114.609 30.4153C114.502 30.4153 114.41 30.3788 114.333 30.3058C114.257 30.2309 114.219 30.1412 114.219 30.0367C114.219 29.9323 114.257 29.8435 114.333 29.7706C114.41 29.6957 114.502 29.6582 114.609 29.6582C114.717 29.6582 114.808 29.6957 114.885 29.7706C114.961 29.8435 115 29.9323 115 30.0367C115 30.1412 114.961 30.2309 114.885 30.3058C114.808 30.3788 114.717 30.4153 114.609 30.4153Z" fill="#48A57E"/>
    <path d="M114.68 30.1302C114.68 30.1309 114.679 30.1317 114.678 30.1326C114.672 30.1372 114.662 30.1437 114.648 30.1492C114.63 30.1568 114.615 30.1582 114.609 30.1582C114.604 30.1582 114.589 30.1571 114.57 30.1494C114.554 30.1429 114.543 30.135 114.538 30.1303C114.537 30.1299 114.537 30.1295 114.537 30.1292C114.536 30.1289 114.536 30.1285 114.536 30.1282C114.532 30.1247 114.528 30.1192 114.523 30.1116L114.591 30.0418L114.595 30.0382L114.596 30.0367L114.607 30.0254L114.609 30.0269L114.618 30.0367L114.622 30.0401L114.623 30.0418L114.694 30.113C114.69 30.1193 114.686 30.1243 114.682 30.128C114.682 30.1288 114.681 30.1296 114.68 30.1302ZM114.697 30.1081L114.629 30.0367L114.629 30.0363L114.627 30.0347L114.613 30.0197L114.683 29.9482C114.685 29.9508 114.69 29.9562 114.696 29.9645C114.696 29.965 114.696 29.9655 114.696 29.966C114.7 29.9717 114.704 29.9787 114.708 29.9871C114.717 30.0088 114.719 30.0272 114.719 30.0367C114.719 30.0462 114.717 30.0657 114.707 30.089C114.704 30.0962 114.7 30.1026 114.697 30.1081ZM114.678 29.9436L114.609 30.0159L114.609 30.0153L114.54 29.9436C114.545 29.9392 114.557 29.9301 114.574 29.9231C114.592 29.9161 114.605 29.9153 114.609 29.9153C114.613 29.9153 114.627 29.9163 114.644 29.9233C114.662 29.9303 114.673 29.9392 114.678 29.9436ZM114.533 29.9507L114.604 30.0218L114.591 30.0347L114.589 30.0367L114.588 30.0382L114.521 30.1085C114.518 30.1032 114.515 30.0971 114.512 30.0902C114.502 30.0678 114.5 30.0481 114.5 30.0367C114.5 30.0253 114.502 30.0067 114.511 29.9859C114.514 29.9786 114.517 29.9724 114.52 29.9673C114.521 29.9662 114.522 29.9652 114.522 29.9642C114.527 29.957 114.531 29.9525 114.533 29.9507Z" stroke="white" stroke-opacity="0.15"/>
    <mask id="path-17-inside-1_982_363" fill="white">
        <path d="M107.338 35.7386L109.327 33.4436L107.365 31.196H108.001L109.729 33.2159H110.031V31.196H110.556V33.2159H110.852L112.58 31.196H113.216L111.26 33.4436L113.243 35.7386H112.597L110.843 33.7128H110.556V35.7386H110.031V33.7128H109.743L107.984 35.7386H107.338Z"/>
    </mask>
    <path d="M107.338 35.7386L109.327 33.4436L107.365 31.196H108.001L109.729 33.2159H110.031V31.196H110.556V33.2159H110.852L112.58 31.196H113.216L111.26 33.4436L113.243 35.7386H112.597L110.843 33.7128H110.556V35.7386H110.031V33.7128H109.743L107.984 35.7386H107.338Z" fill="#48A57E"/>
    <path d="M107.338 35.7386L106.582 35.0836L105.148 36.7386H107.338V35.7386ZM109.327 33.4436L110.083 34.0986L110.652 33.4413L110.08 32.786L109.327 33.4436ZM107.365 31.196V30.196H105.164L106.612 31.8537L107.365 31.196ZM108.001 31.196L108.761 30.546L108.461 30.196H108.001V31.196ZM109.729 33.2159L108.969 33.866L109.268 34.2159H109.729V33.2159ZM110.031 33.2159V34.2159H111.031V33.2159H110.031ZM110.031 31.196V30.196H109.031V31.196H110.031ZM110.556 31.196H111.556V30.196H110.556V31.196ZM110.556 33.2159H109.556V34.2159H110.556V33.2159ZM110.852 33.2159V34.2159H111.312L111.612 33.866L110.852 33.2159ZM112.58 31.196V30.196H112.119L111.82 30.546L112.58 31.196ZM113.216 31.196L113.97 31.8525L115.411 30.196H113.216V31.196ZM111.26 33.4436L110.506 32.7872L109.937 33.4413L110.503 34.0974L111.26 33.4436ZM113.243 35.7386V36.7386H115.428L113.999 35.0848L113.243 35.7386ZM112.597 35.7386L111.841 36.3931L112.14 36.7386H112.597V35.7386ZM110.843 33.7128L111.599 33.0583L111.3 32.7128H110.843V33.7128ZM110.556 33.7128V32.7128H109.556V33.7128H110.556ZM110.556 35.7386V36.7386H111.556V35.7386H110.556ZM110.031 35.7386H109.031V36.7386H110.031V35.7386ZM110.031 33.7128H111.031V32.7128H110.031V33.7128ZM109.743 33.7128V32.7128H109.287L108.988 33.0571L109.743 33.7128ZM107.984 35.7386V36.7386H108.44L108.739 36.3942L107.984 35.7386ZM108.094 36.3935L110.083 34.0986L108.571 32.7886L106.582 35.0836L108.094 36.3935ZM110.08 32.786L108.118 30.5384L106.612 31.8537L108.574 34.1013L110.08 32.786ZM107.365 32.196H108.001V30.196H107.365V32.196ZM107.241 31.8461L108.969 33.866L110.489 32.5659L108.761 30.546L107.241 31.8461ZM109.729 34.2159H110.031V32.2159H109.729V34.2159ZM111.031 33.2159V31.196H109.031V33.2159H111.031ZM110.031 32.196H110.556V30.196H110.031V32.196ZM109.556 31.196V33.2159H111.556V31.196H109.556ZM110.556 34.2159H110.852V32.2159H110.556V34.2159ZM111.612 33.866L113.34 31.8461L111.82 30.546L110.092 32.5659L111.612 33.866ZM112.58 32.196H113.216V30.196H112.58V32.196ZM112.461 30.5396L110.506 32.7872L112.014 34.1L113.97 31.8525L112.461 30.5396ZM110.503 34.0974L112.486 36.3923L113.999 35.0848L112.017 32.7899L110.503 34.0974ZM113.243 34.7386H112.597V36.7386H113.243V34.7386ZM113.353 35.084L111.599 33.0583L110.087 34.3673L111.841 36.3931L113.353 35.084ZM110.843 32.7128H110.556V34.7128H110.843V32.7128ZM109.556 33.7128V35.7386H111.556V33.7128H109.556ZM110.556 34.7386H110.031V36.7386H110.556V34.7386ZM111.031 35.7386V33.7128H109.031V35.7386H111.031ZM110.031 32.7128H109.743V34.7128H110.031V32.7128ZM108.988 33.0571L107.229 35.0829L108.739 36.3942L110.498 34.3684L108.988 33.0571ZM107.984 34.7386H107.338V36.7386H107.984V34.7386Z" fill="white" fill-opacity="0.15" mask="url(#path-17-inside-1_982_363)"/>
    <path d="M104.278 35.8423C104.006 35.8423 103.758 35.789 103.533 35.6827C103.309 35.5742 103.129 35.4184 102.997 35.2153C102.864 35.0103 102.797 34.7619 102.797 34.4701C102.797 34.2454 102.839 34.0561 102.923 33.9023C103.007 33.7486 103.126 33.6224 103.281 33.5238C103.435 33.4252 103.619 33.3473 103.829 33.2902C104.041 33.233 104.273 33.1886 104.528 33.1571C104.78 33.1255 104.993 33.0979 105.167 33.0742C105.343 33.0506 105.477 33.0132 105.569 32.9619C105.661 32.9106 105.707 32.8278 105.707 32.7135V32.607C105.707 32.2975 105.614 32.054 105.431 31.8765C105.249 31.6971 104.987 31.6075 104.645 31.6075C104.321 31.6075 104.055 31.6795 103.85 31.8233C103.647 31.9672 103.504 32.1368 103.422 32.332L102.926 32.1516C103.028 31.9032 103.168 31.705 103.349 31.5572C103.528 31.4074 103.73 31.2999 103.952 31.2348C104.176 31.1678 104.402 31.1343 104.631 31.1343C104.802 31.1343 104.982 31.1569 105.167 31.2023C105.355 31.2476 105.529 31.3265 105.689 31.4388C105.85 31.5492 105.979 31.7041 106.079 31.9032C106.179 32.1003 106.229 32.3507 106.229 32.6543V35.7388H105.707V35.0202H105.675C105.612 35.1542 105.519 35.2844 105.396 35.4106C105.273 35.5368 105.119 35.6402 104.932 35.7211C104.746 35.8019 104.529 35.8423 104.278 35.8423ZM104.349 35.3603C104.626 35.3603 104.867 35.2982 105.07 35.174C105.273 35.0497 105.43 34.8851 105.54 34.6801C105.651 34.4731 105.707 34.2454 105.707 33.9969V33.3405C105.667 33.3779 105.602 33.4114 105.511 33.441C105.42 33.4706 105.315 33.4972 105.196 33.5208C105.079 33.5426 104.962 33.5613 104.844 33.577C104.727 33.5928 104.622 33.6066 104.528 33.6185C104.273 33.6499 104.056 33.6992 103.877 33.7663C103.696 33.8333 103.558 33.9259 103.463 34.0443C103.367 34.1606 103.32 34.3104 103.32 34.4938C103.32 34.7698 103.417 34.9837 103.612 35.1355C103.808 35.2853 104.054 35.3603 104.349 35.3603Z" fill="#48A57E"/>
    <path d="M103.589 33.9213C103.576 33.9292 103.562 33.9371 103.55 33.9452L103.55 33.9453C103.509 33.9711 103.475 33.999 103.445 34.0294L103.463 34.0443M103.589 33.9213L102.997 35.2153C102.864 35.0103 102.797 34.7619 102.797 34.4701C102.797 34.2454 102.839 34.0561 102.923 33.9023C103.007 33.7486 103.126 33.6224 103.281 33.5238C103.29 33.5177 103.3 33.5116 103.31 33.5056C103.301 33.5124 103.291 33.5194 103.282 33.5265C103.207 33.5851 103.137 33.6521 103.075 33.7285C103.026 33.7886 102.985 33.8518 102.951 33.9175M103.589 33.9213C103.541 33.9586 103.499 33.9996 103.463 34.0443M103.589 33.9213L103.749 35.2316C103.794 35.253 103.842 35.2715 103.891 35.2869C103.789 35.2502 103.696 35.1997 103.612 35.1355C103.417 34.9837 103.32 34.7698 103.32 34.4938C103.32 34.3104 103.367 34.1606 103.463 34.0443M103.463 34.0443L103.445 34.0296C103.411 34.064 103.384 34.1015 103.362 34.1426L102.951 33.9175M102.951 33.9175L103.362 34.1426C103.328 34.2047 103.297 34.3062 103.297 34.4701C103.297 34.4781 103.297 34.486 103.297 34.4938C103.3 34.6943 103.347 34.8368 103.416 34.9426L103.011 35.2059C102.881 34.9967 102.82 34.7534 102.82 34.4938C102.82 34.4859 102.82 34.478 102.82 34.4701C102.823 34.2794 102.862 34.0902 102.951 33.9175ZM105.707 33.45V33.9023C105.714 33.8998 105.722 33.8971 105.729 33.8944V33.9969V34.5202H105.707H105.675H105.613L105.707 33.45ZM105.707 33.45C105.714 33.4469 105.722 33.4437 105.729 33.4405L105.707 33.45Z" stroke="white" stroke-opacity="0.15"/>
    <mask id="path-21-inside-2_982_363" fill="white">
        <path d="M97.4609 37.0309V35.2417H97.8508C97.949 35.1313 98.0344 35.012 98.1067 34.8838C98.1791 34.7557 98.2417 34.6098 98.2935 34.4461C98.3486 34.2806 98.395 34.0883 98.4318 33.8695C98.4685 33.6486 98.4998 33.3914 98.5257 33.0976L98.6899 31.196H101.356V35.2417H102.025V37.0309H101.503V35.7386H97.9858V37.0309H97.4609ZM98.4523 35.2417H100.833V31.6929H99.1769L99.0419 33.0976C98.9955 33.5747 98.9285 33.9908 98.8421 34.3456C98.7568 34.7005 98.6261 34.9991 98.4523 35.2417Z"/>
    </mask>
    <path d="M97.4609 37.0309V35.2417H97.8508C97.949 35.1313 98.0344 35.012 98.1067 34.8838C98.1791 34.7557 98.2417 34.6098 98.2935 34.4461C98.3486 34.2806 98.395 34.0883 98.4318 33.8695C98.4685 33.6486 98.4998 33.3914 98.5257 33.0976L98.6899 31.196H101.356V35.2417H102.025V37.0309H101.503V35.7386H97.9858V37.0309H97.4609ZM98.4523 35.2417H100.833V31.6929H99.1769L99.0419 33.0976C98.9955 33.5747 98.9285 33.9908 98.8421 34.3456C98.7568 34.7005 98.6261 34.9991 98.4523 35.2417Z" fill="#48A57E"/>
    <path d="M97.4609 37.0309H96.4609V38.0309H97.4609V37.0309ZM97.4609 35.2417V34.2417H96.4609V35.2417H97.4609ZM97.8508 35.2417V36.2417H98.2994L98.5977 35.9066L97.8508 35.2417ZM98.2935 34.4461L97.3447 34.1304L97.3424 34.1372L97.3402 34.1442L98.2935 34.4461ZM98.4318 33.8695L99.418 34.0349L99.4182 34.0335L98.4318 33.8695ZM98.5257 33.0976L99.5218 33.1855L99.522 33.1836L98.5257 33.0976ZM98.6899 31.196V30.196H97.7725L97.6936 31.11L98.6899 31.196ZM101.356 31.196H102.356V30.196H101.356V31.196ZM101.356 35.2417H100.356V36.2417H101.356V35.2417ZM102.025 35.2417H103.025V34.2417H102.025V35.2417ZM102.025 37.0309V38.0309H103.025V37.0309H102.025ZM101.503 37.0309H100.503V38.0309H101.503V37.0309ZM101.503 35.7386H102.503V34.7386H101.503V35.7386ZM97.9858 35.7386V34.7386H96.9858V35.7386H97.9858ZM97.9858 37.0309V38.0309H98.9858V37.0309H97.9858ZM98.4523 35.2417L97.6395 34.6592L96.5053 36.2417H98.4523V35.2417ZM100.833 35.2417V36.2417H101.833V35.2417H100.833ZM100.833 31.6929H101.833V30.6929H100.833V31.6929ZM99.1769 31.6929V30.6929H98.2684L98.1815 31.5972L99.1769 31.6929ZM99.0419 33.0976L100.037 33.1945L100.037 33.1932L99.0419 33.0976ZM98.8421 34.3456L97.8705 34.1091L97.8698 34.1119L98.8421 34.3456ZM98.4609 37.0309V35.2417H96.4609V37.0309H98.4609ZM97.4609 36.2417H97.8508V34.2417H97.4609V36.2417ZM98.5977 35.9066C98.7432 35.7431 98.8701 35.5657 98.9775 35.3755L97.2359 34.3922C97.1986 34.4582 97.1549 34.5195 97.1038 34.5769L98.5977 35.9066ZM98.9775 35.3755C99.088 35.1798 99.1768 34.9691 99.2469 34.7481L97.3402 34.1442C97.3066 34.2504 97.2702 34.3315 97.2359 34.3922L98.9775 35.3755ZM99.2424 34.7619C99.317 34.5376 99.3746 34.2936 99.418 34.0349L97.4455 33.704C97.4155 33.883 97.3802 34.0236 97.3447 34.1304L99.2424 34.7619ZM99.4182 34.0335C99.4602 33.781 99.4943 33.4973 99.5218 33.1855L97.5296 33.0097C97.5053 33.2855 97.4768 33.5163 97.4453 33.7054L99.4182 34.0335ZM99.522 33.1836L99.6862 31.282L97.6936 31.11L97.5294 33.0116L99.522 33.1836ZM98.6899 32.196H101.356V30.196H98.6899V32.196ZM100.356 31.196V35.2417H102.356V31.196H100.356ZM101.356 36.2417H102.025V34.2417H101.356V36.2417ZM101.025 35.2417V37.0309H103.025V35.2417H101.025ZM102.025 36.0309H101.503V38.0309H102.025V36.0309ZM102.503 37.0309V35.7386H100.503V37.0309H102.503ZM101.503 34.7386H97.9858V36.7386H101.503V34.7386ZM96.9858 35.7386V37.0309H98.9858V35.7386H96.9858ZM97.9858 36.0309H97.4609V38.0309H97.9858V36.0309ZM98.4523 36.2417H100.833V34.2417H98.4523V36.2417ZM101.833 35.2417V31.6929H99.8335V35.2417H101.833ZM100.833 30.6929H99.1769V32.6929H100.833V30.6929ZM98.1815 31.5972L98.0465 33.0019L100.037 33.1932L100.172 31.7885L98.1815 31.5972ZM98.0466 33.0007C98.0035 33.4435 97.9431 33.8111 97.8705 34.1091L99.8138 34.5822C99.914 34.1704 99.9874 33.7059 100.037 33.1945L98.0466 33.0007ZM97.8698 34.1119C97.8087 34.3661 97.7246 34.5404 97.6395 34.6592L99.2651 35.8242C99.5277 35.4578 99.7049 35.0348 99.8144 34.5794L97.8698 34.1119Z" fill="white" fill-opacity="0.15" mask="url(#path-21-inside-2_982_363)"/>
    <path d="M94.8675 35.8335C94.4787 35.8335 94.1342 35.7338 93.8351 35.5348C93.5381 35.3357 93.3048 35.0606 93.1375 34.7097C92.969 34.3568 92.8848 33.9497 92.8848 33.4883C92.8848 33.023 92.969 32.6139 93.1375 32.261C93.3048 31.9061 93.5381 31.6301 93.8351 31.4329C94.1342 31.2338 94.4787 31.1343 94.8675 31.1343C95.2562 31.1343 95.5996 31.2338 95.8966 31.4329C96.1947 31.6321 96.4268 31.9081 96.5953 32.261C96.7648 32.6139 96.8501 33.023 96.8501 33.4883C96.8501 33.9497 96.7659 34.3568 96.5985 34.7097C96.4301 35.0606 96.1957 35.3357 95.8966 35.5348C95.5996 35.7338 95.2562 35.8335 94.8675 35.8335ZM94.8675 35.3514C95.1806 35.3514 95.4452 35.2666 95.6623 35.0971C95.8793 34.9276 96.0435 34.7017 96.1547 34.4198C96.2681 34.1379 96.3253 33.8274 96.3253 33.4883C96.3253 33.1492 96.2681 32.8376 96.1547 32.5538C96.0435 32.2699 95.8793 32.0421 95.6623 31.8707C95.4452 31.6992 95.1806 31.6134 94.8675 31.6134C94.5564 31.6134 94.2919 31.6992 94.0727 31.8707C93.8556 32.0421 93.6904 32.2699 93.577 32.5538C93.4658 32.8376 93.4096 33.1492 93.4096 33.4883C93.4096 33.8274 93.4658 34.1379 93.577 34.4198C93.6904 34.7017 93.8556 34.9276 94.0727 35.0971C94.2897 35.2666 94.5543 35.3514 94.8675 35.3514Z" fill="#48A57E"/>
    <path d="M96.1755 32.5455L96.619 32.3683C96.6192 32.3688 96.6194 32.3693 96.6196 32.3698C96.7584 32.7179 96.8253 33.0926 96.8253 33.4883C96.8253 33.8839 96.7584 34.2581 96.6192 34.6049C96.619 34.6054 96.6188 34.6059 96.6186 34.6064L96.1768 34.4287M96.1755 32.5455L96.1769 34.4286M96.1755 32.5455L96.1547 32.5538M96.1755 32.5455C96.1656 32.5224 96.1553 32.4998 96.1446 32.4775L96.1441 32.4764C96.0457 32.2704 95.9247 32.1059 95.7817 31.9759M96.1768 34.4287C96.1768 34.4287 96.1768 34.4286 96.1769 34.4286M96.1768 34.4287L96.1547 34.4198M96.1768 34.4287C96.1673 34.4509 96.1575 34.4728 96.1473 34.4944M96.1769 34.4286L96.1547 34.4198M96.1769 34.4286C96.2885 34.1669 96.3501 33.8565 96.3501 33.4883C96.3501 33.1173 96.2878 32.8063 96.1756 32.5456L96.1547 32.5538M96.1547 34.4198C96.2681 34.1379 96.3253 33.8274 96.3253 33.4883C96.3253 33.1492 96.2681 32.8376 96.1547 32.5538M96.1547 34.4198C96.0649 34.6474 95.9407 34.8384 95.7819 34.9927C95.9271 34.8624 96.0492 34.6983 96.1473 34.4944M96.1547 32.5538C96.0649 32.3245 95.9405 32.1319 95.7817 31.9759M95.7817 31.9759C95.7438 31.9387 95.704 31.9037 95.6623 31.8707C95.6496 31.8606 95.6367 31.8509 95.6237 31.8414C95.6234 31.8413 95.6232 31.8411 95.623 31.8409C95.4135 31.6893 95.162 31.6134 94.8675 31.6134C94.5732 31.6134 94.3205 31.6902 94.1085 31.8437C94.1084 31.8438 94.1082 31.8439 94.108 31.844C94.0961 31.8527 94.0843 31.8615 94.0727 31.8707M95.7817 31.9759L94.0727 31.8707M94.0727 31.8707C94.047 31.8909 94.0221 31.9119 93.998 31.9337L94.0727 31.8707ZM96.1473 34.4944C96.1474 34.494 96.1476 34.4936 96.1478 34.4933L96.5791 34.7003M96.1473 34.4944C96.1471 34.4947 96.1469 34.4951 96.1468 34.4954L96.579 34.7004M96.5791 34.7003L93.8351 35.5348C94.1342 35.7338 94.4787 35.8335 94.8675 35.8335C95.2562 35.8335 95.5996 35.7338 95.8966 35.5348C95.9202 35.5191 95.9434 35.5029 95.9662 35.4862C96.0209 35.4462 96.0734 35.4035 96.1234 35.3581C96.3159 35.1728 96.4672 34.9514 96.579 34.7004M96.5791 34.7003C96.5791 34.7004 96.5791 34.7004 96.579 34.7004M96.5791 34.7003L96.5985 34.7097L96.579 34.7004" stroke="white" stroke-opacity="0.15"/>
    <path d="M88.1641 37.4422V31.1963H88.6705V32.0628H88.7321C88.7947 31.9268 88.8811 31.7878 88.9902 31.6459C89.1003 31.502 89.245 31.3807 89.4243 31.2821C89.6068 31.1836 89.8357 31.1343 90.1111 31.1343C90.4826 31.1343 90.8077 31.2328 91.0852 31.43C91.3649 31.6252 91.5819 31.8992 91.7364 32.2522C91.893 32.6031 91.9707 33.0122 91.9707 33.4794C91.9707 33.9487 91.893 34.3597 91.7364 34.7126C91.5819 35.0655 91.3649 35.3405 91.0852 35.5377C90.8077 35.7348 90.4848 35.8335 90.1165 35.8335C89.8455 35.8335 89.6176 35.7841 89.434 35.6856C89.2515 35.587 89.1036 35.4658 88.9902 35.3218C88.879 35.1759 88.7936 35.0339 88.7321 34.896H88.6857V37.4422H88.1641ZM88.6803 33.4706C88.6803 33.8373 88.7332 34.1625 88.8412 34.4465C88.9502 34.7284 89.1068 34.9502 89.3109 35.1119C89.5161 35.2715 89.7645 35.3514 90.055 35.3514C90.3541 35.3514 90.6068 35.2686 90.812 35.103C91.0193 34.9354 91.177 34.7097 91.2839 34.4257C91.394 34.1419 91.4491 33.8235 91.4491 33.4706C91.4491 33.1216 91.3951 32.8072 91.2871 32.5271C91.1813 32.2472 91.0247 32.0254 90.8185 31.8617C90.6111 31.6961 90.3563 31.6134 90.055 31.6134C89.7623 31.6134 89.5129 31.6932 89.3077 31.8529C89.1025 32.0106 88.9459 32.2294 88.8379 32.5095C88.7321 32.7874 88.6803 33.1078 88.6803 33.4706Z" fill="#2FC385"/>
    <path d="M91.3067 32.5196C91.2981 32.498 91.2891 32.4768 91.2798 32.4559L91.2783 32.4526L91.2783 32.4526C91.1608 32.1841 91.0068 31.992 90.8224 31.8568L90.8185 31.8617M91.3067 32.5196L90.5159 35.2726C90.6236 35.2319 90.7223 35.1753 90.812 35.103C91.0193 34.9354 91.177 34.7097 91.2839 34.4257C91.394 34.1419 91.4491 33.8235 91.4491 33.4706C91.4491 33.1216 91.3951 32.8072 91.2871 32.5271M91.3067 32.5196L91.2871 32.5271M91.3067 32.5196L91.3068 32.5197L91.2871 32.5271M90.8185 31.8617L90.8224 31.8567C90.8147 31.8511 90.8069 31.8455 90.799 31.84L90.7956 31.8376L90.7956 31.8376C90.7468 31.8029 90.6954 31.7724 90.6412 31.7462C90.7037 31.7788 90.7628 31.8173 90.8185 31.8617ZM90.8185 31.8617C91.0247 32.0254 91.1813 32.2472 91.2871 32.5271M90.8664 31.2997C90.941 31.3382 91.0131 31.3829 91.0823 31.434C91.0823 31.434 91.0823 31.434 91.0824 31.4341C91.0984 31.4459 91.1142 31.458 91.1299 31.4705C91.3907 31.6777 91.5852 31.946 91.7186 32.26C91.7186 32.26 91.7186 32.26 91.7186 32.2601C91.731 32.2892 91.7429 32.3188 91.7542 32.3487L90.8664 31.2997ZM90.8664 31.2997C90.9423 31.3369 91.0153 31.3803 91.0852 31.43C91.3649 31.6252 91.5819 31.8992 91.7364 32.2522C91.893 32.6031 91.9707 33.0122 91.9707 33.4794C91.9707 33.9487 91.893 34.3597 91.7364 34.7126L90.8664 31.2997ZM88.1705 31.6963V32.0628V32.5628H88.2948C88.216 32.8461 88.1803 33.1502 88.1803 33.4706C88.1803 33.797 88.2173 34.1069 88.2986 34.396H88.1857V34.896V36.9422L88.1705 31.6963ZM88.6641 33.4706V32.5628H88.6705H88.7321H88.8185C88.7257 32.8282 88.6803 33.1308 88.6803 33.4706C88.6803 33.8157 88.7271 34.1241 88.8227 34.396H88.7321H88.6857H88.6641V33.4706Z" stroke="white" stroke-opacity="0.15"/>
    <mask id="path-27-inside-3_982_363" fill="white">
        <path d="M86.7183 29.6819V35.7384H86.1723V30.1787H82.9371V35.7384H82.3887V29.6819H86.7183Z"/>
    </mask>
    <path d="M86.7183 29.6819V35.7384H86.1723V30.1787H82.9371V35.7384H82.3887V29.6819H86.7183Z" fill="#48A57E"/>
    <path d="M86.7183 29.6819H87.7183V28.6819H86.7183V29.6819ZM86.7183 35.7384V36.7384H87.7183V35.7384H86.7183ZM86.1723 35.7384H85.1723V36.7384H86.1723V35.7384ZM86.1723 30.1787H87.1723V29.1787H86.1723V30.1787ZM82.9371 30.1787V29.1787H81.9371V30.1787H82.9371ZM82.9371 35.7384V36.7384H83.9371V35.7384H82.9371ZM82.3887 35.7384H81.3887V36.7384H82.3887V35.7384ZM82.3887 29.6819V28.6819H81.3887V29.6819H82.3887ZM85.7183 29.6819V35.7384H87.7183V29.6819H85.7183ZM86.7183 34.7384H86.1723V36.7384H86.7183V34.7384ZM87.1723 35.7384V30.1787H85.1723V35.7384H87.1723ZM86.1723 29.1787H82.9371V31.1787H86.1723V29.1787ZM81.9371 30.1787V35.7384H83.9371V30.1787H81.9371ZM82.9371 34.7384H82.3887V36.7384H82.9371V34.7384ZM83.3887 35.7384V29.6819H81.3887V35.7384H83.3887ZM82.3887 30.6819H86.7183V28.6819H82.3887V30.6819Z" fill="white" fill-opacity="0.15" mask="url(#path-27-inside-3_982_363)"/>
    <mask id="path-29-inside-4_982_363" fill="white">
        <path d="M77.3443 33.281V33.7778H75.297V33.281H77.3443ZM78.8285 32.5801H78.3063C78.2496 32.3199 78.1187 32.0951 77.9133 31.9059C77.708 31.7165 77.4411 31.6219 77.1126 31.6219C76.829 31.6219 76.5817 31.6988 76.3705 31.8526C76.1613 32.0064 75.9981 32.2223 75.8807 32.5003C75.7653 32.7783 75.7077 33.1046 75.7077 33.4791C75.7077 33.8557 75.7644 34.1839 75.8778 34.4639C75.9932 34.7439 76.1554 34.9617 76.3647 35.1175C76.5758 35.2713 76.8252 35.3481 77.1126 35.3481C77.314 35.3481 77.4968 35.3097 77.6611 35.2328C77.8254 35.156 77.9632 35.0485 78.0746 34.9105C78.186 34.7725 78.2634 34.6118 78.3063 34.4284H78.8285C78.7893 34.6927 78.6935 34.9302 78.541 35.1411C78.3905 35.3522 78.193 35.5197 77.9485 35.6439C77.706 35.7681 77.4274 35.8302 77.1126 35.8302C76.7176 35.8302 76.3754 35.7316 76.0861 35.5344C75.7986 35.3354 75.5767 35.0594 75.4202 34.7065C75.2638 34.3535 75.1855 33.9444 75.1855 33.4791C75.1855 33.0217 75.2648 32.6176 75.4231 32.2666C75.5815 31.9137 75.8044 31.6377 76.0919 31.4386C76.3794 31.2395 76.7166 31.1399 77.1038 31.1399C77.4088 31.1399 77.6845 31.201 77.9309 31.3233C78.1773 31.4455 78.3787 31.6151 78.5351 31.832C78.6915 32.0487 78.7893 32.2982 78.8285 32.5801Z"/>
    </mask>
    <path d="M77.3443 33.281V33.7778H75.297V33.281H77.3443ZM78.8285 32.5801H78.3063C78.2496 32.3199 78.1187 32.0951 77.9133 31.9059C77.708 31.7165 77.4411 31.6219 77.1126 31.6219C76.829 31.6219 76.5817 31.6988 76.3705 31.8526C76.1613 32.0064 75.9981 32.2223 75.8807 32.5003C75.7653 32.7783 75.7077 33.1046 75.7077 33.4791C75.7077 33.8557 75.7644 34.1839 75.8778 34.4639C75.9932 34.7439 76.1554 34.9617 76.3647 35.1175C76.5758 35.2713 76.8252 35.3481 77.1126 35.3481C77.314 35.3481 77.4968 35.3097 77.6611 35.2328C77.8254 35.156 77.9632 35.0485 78.0746 34.9105C78.186 34.7725 78.2634 34.6118 78.3063 34.4284H78.8285C78.7893 34.6927 78.6935 34.9302 78.541 35.1411C78.3905 35.3522 78.193 35.5197 77.9485 35.6439C77.706 35.7681 77.4274 35.8302 77.1126 35.8302C76.7176 35.8302 76.3754 35.7316 76.0861 35.5344C75.7986 35.3354 75.5767 35.0594 75.4202 34.7065C75.2638 34.3535 75.1855 33.9444 75.1855 33.4791C75.1855 33.0217 75.2648 32.6176 75.4231 32.2666C75.5815 31.9137 75.8044 31.6377 76.0919 31.4386C76.3794 31.2395 76.7166 31.1399 77.1038 31.1399C77.4088 31.1399 77.6845 31.201 77.9309 31.3233C78.1773 31.4455 78.3787 31.6151 78.5351 31.832C78.6915 32.0487 78.7893 32.2982 78.8285 32.5801Z" fill="#48A57E"/>
    <path d="M77.3443 33.281H78.3443V32.281H77.3443V33.281ZM77.3443 33.7778V34.7778H78.3443V33.7778H77.3443ZM75.297 33.7778H74.297V34.7778H75.297V33.7778ZM75.297 33.281V32.281H74.297V33.281H75.297ZM78.8285 32.5801V33.5801H79.9772L79.8189 32.4424L78.8285 32.5801ZM78.3063 32.5801L77.3293 32.793L77.5007 33.5801H78.3063V32.5801ZM77.9133 31.9059L77.2353 32.641L77.2357 32.6413L77.9133 31.9059ZM76.3705 31.8526L75.7818 31.0443L75.7783 31.0469L76.3705 31.8526ZM75.8807 32.5003L74.9594 32.1113L74.957 32.1171L75.8807 32.5003ZM75.8778 34.4639L74.9509 34.8393L74.9532 34.845L75.8778 34.4639ZM76.3647 35.1175L75.7675 35.9197L75.776 35.9259L76.3647 35.1175ZM78.0746 34.9105L78.8525 35.5389L78.8527 35.5386L78.0746 34.9105ZM78.3063 34.4284V33.4284H77.5136L77.3327 34.2002L78.3063 34.4284ZM78.8285 34.4284L79.8176 34.5751L79.9878 33.4284H78.8285V34.4284ZM78.541 35.1411L77.7306 34.5552L77.7269 34.5604L78.541 35.1411ZM77.9485 35.6439L77.4958 34.7522L77.4924 34.7539L77.9485 35.6439ZM76.0861 35.5344L75.5168 36.3566L75.5229 36.3607L76.0861 35.5344ZM75.4202 34.7065L74.5059 35.1115L74.506 35.1118L75.4202 34.7065ZM75.4231 32.2666L76.3347 32.6778L76.3354 32.6762L75.4231 32.2666ZM76.0919 31.4386L75.5226 30.6164L75.5224 30.6165L76.0919 31.4386ZM77.9309 31.3233L77.4862 32.219L77.4864 32.219L77.9309 31.3233ZM78.5351 31.832L77.7239 32.4168L77.7242 32.4172L78.5351 31.832ZM76.3443 33.281V33.7778H78.3443V33.281H76.3443ZM77.3443 32.7778H75.297V34.7778H77.3443V32.7778ZM76.297 33.7778V33.281H74.297V33.7778H76.297ZM75.297 34.281H77.3443V32.281H75.297V34.281ZM78.8285 31.5801H78.3063V33.5801H78.8285V31.5801ZM79.2834 32.3672C79.1808 31.8962 78.9397 31.4919 78.5908 31.1704L77.2357 32.6413C77.2976 32.6984 77.3185 32.7436 77.3293 32.793L79.2834 32.3672ZM78.5913 31.1708C78.1693 30.7816 77.6452 30.6219 77.1126 30.6219V32.6219C77.1809 32.6219 77.2145 32.6317 77.2249 32.6354C77.2327 32.6382 77.2334 32.6393 77.2353 32.641L78.5913 31.1708ZM77.1126 30.6219C76.6365 30.6219 76.1788 30.7551 75.7818 31.0443L76.9593 32.661C76.9847 32.6425 77.0215 32.6219 77.1126 32.6219V30.6219ZM75.7783 31.0469C75.4017 31.3237 75.1354 31.6947 74.9594 32.1113L76.8019 32.8893C76.8608 32.7499 76.921 32.6891 76.9627 32.6584L75.7783 31.0469ZM74.957 32.1171C74.7806 32.5423 74.7077 33.0042 74.7077 33.4791H76.7077C76.7077 33.205 76.7501 33.0142 76.8043 32.8835L74.957 32.1171ZM74.7077 33.4791C74.7077 33.9537 74.7789 34.4146 74.9509 34.8393L76.8046 34.0885C76.7498 33.9533 76.7077 33.7576 76.7077 33.4791H74.7077ZM74.9532 34.845C75.1264 35.265 75.3909 35.6393 75.7675 35.9196L76.9619 34.3154C76.9199 34.2841 76.86 34.2229 76.8023 34.0828L74.9532 34.845ZM75.776 35.9259C76.1754 36.2168 76.636 36.3481 77.1126 36.3481V34.3481C77.0143 34.3481 76.9762 34.3258 76.9534 34.3091L75.776 35.9259ZM77.1126 36.3481C77.4442 36.3481 77.774 36.2841 78.085 36.1385L77.2372 34.3271C77.2197 34.3353 77.1838 34.3481 77.1126 34.3481V36.3481ZM78.085 36.1385C78.3838 35.9987 78.6436 35.7975 78.8525 35.5389L77.2967 34.2821C77.2827 34.2995 77.2669 34.3132 77.2372 34.3271L78.085 36.1385ZM78.8527 35.5386C79.0641 35.2768 79.2047 34.9774 79.28 34.6566L77.3327 34.2002C77.322 34.2461 77.308 34.2681 77.2965 34.2824L78.8527 35.5386ZM78.3063 35.4284H78.8285V33.4284H78.3063V35.4284ZM77.8393 34.2817C77.823 34.3918 77.7865 34.4779 77.7306 34.5553L79.3514 35.727C79.6004 35.3826 79.7556 34.9935 79.8176 34.5751L77.8393 34.2817ZM77.7269 34.5604C77.6755 34.6325 77.6051 34.6967 77.4958 34.7522L78.4012 36.5355C78.7808 36.3428 79.1055 36.0718 79.3551 35.7219L77.7269 34.5604ZM77.4924 34.7539C77.4117 34.7953 77.2937 34.8302 77.1126 34.8302V36.8302C77.5611 36.8302 78.0003 36.7409 78.4045 36.5338L77.4924 34.7539ZM77.1126 34.8302C76.8917 34.8302 76.7517 34.7779 76.6493 34.7081L75.5229 36.3607C75.9991 36.6853 76.5435 36.8302 77.1126 36.8302V34.8302ZM76.6553 34.7123C76.5345 34.6286 76.4244 34.5042 76.3344 34.3011L74.506 35.1118C74.729 35.6145 75.0627 36.0422 75.5168 36.3566L76.6553 34.7123ZM76.3345 34.3015C76.2449 34.0992 76.1855 33.8328 76.1855 33.4791H74.1855C74.1855 34.0561 74.2827 34.6077 74.5059 35.1115L76.3345 34.3015ZM76.1855 33.4791C76.1855 33.1374 76.2445 32.8777 76.3347 32.6778L74.5116 31.8554C74.2851 32.3574 74.1855 32.9061 74.1855 33.4791H76.1855ZM76.3354 32.6762C76.4274 32.4712 76.5392 32.3452 76.6614 32.2606L75.5224 30.6165C75.0697 30.9302 74.7357 31.3563 74.5108 31.8571L76.3354 32.6762ZM76.6612 32.2607C76.7638 32.1897 76.8975 32.1399 77.1038 32.1399V30.1399C76.5357 30.1399 75.995 30.2894 75.5226 30.6164L76.6612 32.2607ZM77.1038 32.1399C77.2718 32.1399 77.3927 32.1725 77.4862 32.219L78.3755 30.4275C77.9764 30.2294 77.5459 30.1399 77.1038 30.1399V32.1399ZM77.4864 32.219C77.5916 32.2712 77.6655 32.3358 77.7239 32.4168L79.3462 31.2471C79.0919 30.8943 78.763 30.6198 78.3753 30.4275L77.4864 32.219ZM77.7242 32.4172C77.7789 32.4929 77.8197 32.5864 77.838 32.7178L79.8189 32.4424C79.7588 32.01 79.6042 31.6046 79.3459 31.2467L77.7242 32.4172Z" fill="white" fill-opacity="0.15" mask="url(#path-29-inside-4_982_363)"/>
    <mask id="path-31-inside-5_982_363" fill="white">
        <path d="M72.1162 32.4619V32.9592H69.6172V32.4619H72.1162Z"/>
    </mask>
    <path d="M72.1162 32.4619V32.9592H69.6172V32.4619H72.1162Z" fill="#48A57E"/>
    <path d="M72.1162 32.4619H73.1162V31.4619H72.1162V32.4619ZM72.1162 32.9592V33.9592H73.1162V32.9592H72.1162ZM69.6172 32.9592H68.6172V33.9592H69.6172V32.9592ZM69.6172 32.4619V31.4619H68.6172V32.4619H69.6172ZM71.1162 32.4619V32.9592H73.1162V32.4619H71.1162ZM72.1162 31.9592H69.6172V33.9592H72.1162V31.9592ZM70.6172 32.9592V32.4619H68.6172V32.9592H70.6172ZM69.6172 33.4619H72.1162V31.4619H69.6172V33.4619Z" fill="white" fill-opacity="0.15" mask="url(#path-31-inside-5_982_363)"/>
    <mask id="path-33-inside-6_982_363" fill="white">
        <path d="M60.1953 29.6819H60.8289L63.0081 34.9577H63.0609L65.2402 29.6819H65.8737V35.7384H65.3575V30.85H65.3106L63.2838 35.7384H62.7852L60.7585 30.85H60.7116V35.7384H60.1953V29.6819Z"/>
    </mask>
    <path d="M60.1953 29.6819H60.8289L63.0081 34.9577H63.0609L65.2402 29.6819H65.8737V35.7384H65.3575V30.85H65.3106L63.2838 35.7384H62.7852L60.7585 30.85H60.7116V35.7384H60.1953V29.6819Z" fill="#48A57E"/>
    <path d="M60.1953 29.6819V28.6819H59.1953V29.6819H60.1953ZM60.8289 29.6819L61.7531 29.3001L61.4978 28.6819H60.8289V29.6819ZM63.0081 34.9577L62.0839 35.3395L62.3392 35.9577H63.0081V34.9577ZM63.0609 34.9577V35.9577H63.7298L63.9852 35.3395L63.0609 34.9577ZM65.2402 29.6819V28.6819H64.5713L64.3159 29.3001L65.2402 29.6819ZM65.8737 29.6819H66.8737V28.6819H65.8737V29.6819ZM65.8737 35.7384V36.7384H66.8737V35.7384H65.8737ZM65.3575 35.7384H64.3575V36.7384H65.3575V35.7384ZM65.3575 30.85H66.3575V29.85H65.3575V30.85ZM65.3106 30.85V29.85H64.6426L64.3868 30.467L65.3106 30.85ZM63.2838 35.7384V36.7384H63.9518L64.2076 36.1214L63.2838 35.7384ZM62.7852 35.7384L61.8615 36.1214L62.1173 36.7384H62.7852V35.7384ZM60.7585 30.85L61.6822 30.467L61.4264 29.85H60.7585V30.85ZM60.7116 30.85V29.85H59.7116V30.85H60.7116ZM60.7116 35.7384V36.7384H61.7116V35.7384H60.7116ZM60.1953 35.7384H59.1953V36.7384H60.1953V35.7384ZM60.1953 30.6819H60.8289V28.6819H60.1953V30.6819ZM59.9046 30.0637L62.0839 35.3395L63.9324 34.576L61.7531 29.3001L59.9046 30.0637ZM63.0081 35.9577H63.0609V33.9577H63.0081V35.9577ZM63.9852 35.3395L66.1644 30.0637L64.3159 29.3001L62.1367 34.576L63.9852 35.3395ZM65.2402 30.6819H65.8737V28.6819H65.2402V30.6819ZM64.8737 29.6819V35.7384H66.8737V29.6819H64.8737ZM65.8737 34.7384H65.3575V36.7384H65.8737V34.7384ZM66.3575 35.7384V30.85H64.3575V35.7384H66.3575ZM65.3575 29.85H65.3106V31.85H65.3575V29.85ZM64.3868 30.467L62.3601 35.3554L64.2076 36.1214L66.2343 31.233L64.3868 30.467ZM63.2838 34.7384H62.7852V36.7384H63.2838V34.7384ZM63.709 35.3554L61.6822 30.467L59.8347 31.233L61.8615 36.1214L63.709 35.3554ZM60.7585 29.85H60.7116V31.85H60.7585V29.85ZM59.7116 30.85V35.7384H61.7116V30.85H59.7116ZM60.7116 34.7384H60.1953V36.7384H60.7116V34.7384ZM61.1953 35.7384V29.6819H59.1953V35.7384H61.1953Z" fill="white" fill-opacity="0.15" mask="url(#path-33-inside-6_982_363)"/>
    <path d="M54.9844 35.7384V29.6819H56.9231C57.3494 29.6819 57.7053 29.7597 57.9907 29.9156C58.2782 30.0693 58.4943 30.2833 58.639 30.5572C58.7856 30.8293 58.8589 31.1418 58.8589 31.4947C58.8589 31.8476 58.7856 32.1591 58.639 32.4292C58.4943 32.6994 58.2791 32.9103 57.9937 33.0621C57.7082 33.214 57.3543 33.2898 56.9319 33.2898H55.2806V32.7841H56.9173C57.2301 32.7841 57.4902 32.7318 57.6974 32.6274C57.9067 32.5229 58.0621 32.374 58.1638 32.1809C58.2674 31.9876 58.3192 31.7589 58.3192 31.4947C58.3192 31.2305 58.2674 30.9998 58.1638 30.8027C58.0601 30.6036 57.9038 30.4498 57.6945 30.3414C57.4873 30.2329 57.2253 30.1787 56.9084 30.1787H55.5329V35.7384H54.9844ZM57.6329 33.0059L59.1112 35.7384H58.4776L57.014 33.0059H57.6329Z" fill="#48A57E"/>
    <path d="M58.1727 32.9528C58.3708 32.8142 58.5262 32.6397 58.639 32.4292C58.7856 32.1591 58.8589 31.8476 58.8589 31.4947C58.8589 31.1418 58.7856 30.8293 58.639 30.5572L58.1727 32.9528ZM58.1727 32.9528L58.1601 32.9295C58.3447 32.7947 58.4956 32.6233 58.6054 32.4154C58.606 32.4144 58.6065 32.4133 58.6071 32.4122C58.6071 32.4121 58.6072 32.4121 58.6072 32.412C58.755 32.134 58.8192 31.8227 58.8192 31.4947C58.8192 31.1659 58.7547 30.8538 58.6083 30.5737C58.6083 30.5736 58.6082 30.5736 58.6082 30.5735C58.6076 30.5724 58.607 30.5713 58.6064 30.5701L58.1727 32.9528ZM58.1638 32.1809L58.1956 32.1979C58.1306 32.3178 58.0446 32.4212 57.9325 32.5088L57.9309 32.5059H57.8916C58.0058 32.4169 58.0966 32.3086 58.1638 32.1809ZM58.1638 32.1809L58.1958 32.1977C58.1966 32.1962 58.1974 32.1947 58.1982 32.1931L58.1995 32.1907L58.1995 32.1907C58.3009 32.004 58.3589 31.7767 58.3589 31.4947C58.3589 31.2128 58.3009 30.9839 58.1988 30.7944L58.1968 30.7907L58.1969 30.7907C58.1961 30.7894 58.1954 30.788 58.1947 30.7867L58.1638 30.8027M58.1638 32.1809C58.2674 31.9876 58.3192 31.7589 58.3192 31.4947C58.3192 31.2305 58.2674 30.9998 58.1638 30.8027M58.1638 30.8027C58.0601 30.6036 57.9038 30.4498 57.6945 30.3414M58.1638 30.8027L57.2105 30.1973M57.6945 30.3414C57.5572 30.2695 57.3959 30.2215 57.2105 30.1973M57.6945 30.3414L57.701 30.3288M57.6945 30.3414L57.7011 30.3288L57.701 30.3288M57.2105 30.1973C57.4094 30.2198 57.5707 30.2662 57.701 30.3288M57.2105 30.1973L57.701 30.3288M56.0329 32.7841H56.328L56.3311 32.7898H56.0329V32.7841ZM56.0329 33.2841H56.5958L56.0329 33.2898V33.2841ZM55.5329 32.2841H55.4844V30.1819H55.5329V30.6787V32.2841ZM55.0329 30.1819V32.2841V30.1819Z" stroke="white" stroke-opacity="0.15"/>
    <mask id="path-37-inside-7_982_363" fill="white">
        <path d="M53.6971 31.5748H53.1457C53.1046 31.3679 53.0303 31.1765 52.9227 31.0011C52.8172 30.8236 52.6842 30.6689 52.5239 30.5369C52.3635 30.4047 52.1817 30.3022 51.9783 30.2293C51.775 30.1563 51.555 30.1198 51.3184 30.1198C50.939 30.1198 50.5929 30.2194 50.2801 30.4185C49.9692 30.6176 49.7198 30.9104 49.5322 31.2969C49.3464 31.6813 49.2535 32.1525 49.2535 32.7104C49.2535 33.2723 49.3464 33.7455 49.5322 34.1299C49.7198 34.5144 49.9692 34.8062 50.2801 35.0053C50.5929 35.2025 50.939 35.301 51.3184 35.301C51.555 35.301 51.775 35.2646 51.9783 35.1916C52.1817 35.1187 52.3635 35.0172 52.5239 34.887C52.6842 34.7549 52.8172 34.6002 52.9227 34.4227C53.0303 34.2453 53.1046 34.053 53.1457 33.846H53.6971C53.6482 34.124 53.5563 34.3833 53.4214 34.6238C53.2884 34.8624 53.1183 35.0713 52.911 35.2507C52.7058 35.4302 52.4692 35.5702 52.2012 35.6707C51.9333 35.7712 51.639 35.8215 51.3184 35.8215C50.8139 35.8215 50.3662 35.6943 49.975 35.44C49.584 35.1838 49.277 34.8229 49.0541 34.3577C48.8331 33.8924 48.7227 33.3433 48.7227 32.7104C48.7227 32.0776 48.8331 31.5285 49.0541 31.0632C49.277 30.5979 49.584 30.2381 49.975 29.9838C50.3662 29.7275 50.8139 29.5994 51.3184 29.5994C51.639 29.5994 51.9333 29.6497 52.2012 29.7502C52.4692 29.8487 52.7058 29.9887 52.911 30.1701C53.1183 30.3495 53.2884 30.5585 53.4214 30.7971C53.5563 31.0356 53.6482 31.2949 53.6971 31.5748Z"/>
    </mask>
    <path d="M53.6971 31.5748H53.1457C53.1046 31.3679 53.0303 31.1765 52.9227 31.0011C52.8172 30.8236 52.6842 30.6689 52.5239 30.5369C52.3635 30.4047 52.1817 30.3022 51.9783 30.2293C51.775 30.1563 51.555 30.1198 51.3184 30.1198C50.939 30.1198 50.5929 30.2194 50.2801 30.4185C49.9692 30.6176 49.7198 30.9104 49.5322 31.2969C49.3464 31.6813 49.2535 32.1525 49.2535 32.7104C49.2535 33.2723 49.3464 33.7455 49.5322 34.1299C49.7198 34.5144 49.9692 34.8062 50.2801 35.0053C50.5929 35.2025 50.939 35.301 51.3184 35.301C51.555 35.301 51.775 35.2646 51.9783 35.1916C52.1817 35.1187 52.3635 35.0172 52.5239 34.887C52.6842 34.7549 52.8172 34.6002 52.9227 34.4227C53.0303 34.2453 53.1046 34.053 53.1457 33.846H53.6971C53.6482 34.124 53.5563 34.3833 53.4214 34.6238C53.2884 34.8624 53.1183 35.0713 52.911 35.2507C52.7058 35.4302 52.4692 35.5702 52.2012 35.6707C51.9333 35.7712 51.639 35.8215 51.3184 35.8215C50.8139 35.8215 50.3662 35.6943 49.975 35.44C49.584 35.1838 49.277 34.8229 49.0541 34.3577C48.8331 33.8924 48.7227 33.3433 48.7227 32.7104C48.7227 32.0776 48.8331 31.5285 49.0541 31.0632C49.277 30.5979 49.584 30.2381 49.975 29.9838C50.3662 29.7275 50.8139 29.5994 51.3184 29.5994C51.639 29.5994 51.9333 29.6497 52.2012 29.7502C52.4692 29.8487 52.7058 29.9887 52.911 30.1701C53.1183 30.3495 53.2884 30.5585 53.4214 30.7971C53.5563 31.0356 53.6482 31.2949 53.6971 31.5748Z" fill="#48A57E"/>
    <path d="M53.6971 31.5748V32.5748H54.887L54.6822 31.4027L53.6971 31.5748ZM53.1457 31.5748L52.1649 31.7698L52.3249 32.5748H53.1457V31.5748ZM52.9227 31.0011L52.063 31.5122L52.0702 31.5239L52.9227 31.0011ZM52.5239 30.5369L51.8879 31.3085L51.8879 31.3085L52.5239 30.5369ZM50.2801 30.4185L49.7431 29.5749L49.7407 29.5764L50.2801 30.4185ZM49.5322 31.2969L48.6326 30.86L48.6317 30.8618L49.5322 31.2969ZM49.5322 34.1299L48.6318 34.565L48.6335 34.5686L49.5322 34.1299ZM50.2801 35.0053L49.7407 35.8474L49.7469 35.8513L50.2801 35.0053ZM52.5239 34.887L53.1543 35.6633L53.1599 35.6587L52.5239 34.887ZM52.9227 34.4227L52.0676 33.9042L52.0631 33.9117L52.9227 34.4227ZM53.1457 33.846V32.846H52.3249L52.1649 33.6511L53.1457 33.846ZM53.6971 33.846L54.682 34.0194L54.8885 32.846H53.6971V33.846ZM53.4214 34.6238L52.5492 34.1347L52.548 34.1367L53.4214 34.6238ZM52.911 35.2507L52.2564 34.4948L52.2529 34.4978L52.911 35.2507ZM49.975 35.44L49.427 36.2764L49.4299 36.2783L49.975 35.44ZM49.0541 34.3577L48.1508 34.7867L48.1522 34.7897L49.0541 34.3577ZM49.0541 31.0632L48.1522 30.6311L48.1508 30.6342L49.0541 31.0632ZM49.975 29.9838L50.5201 30.8222L50.5231 30.8203L49.975 29.9838ZM52.2012 29.7502L51.85 30.6865L51.856 30.6887L52.2012 29.7502ZM52.911 30.1701L52.2488 30.9195L52.2567 30.9263L52.911 30.1701ZM53.4214 30.7971L52.548 31.2842L52.5509 31.2893L53.4214 30.7971ZM53.6971 30.5748H53.1457V32.5748H53.6971V30.5748ZM54.1265 31.3799C54.063 31.0602 53.9463 30.7575 53.7752 30.4784L52.0702 31.5239C52.1142 31.5956 52.1461 31.6755 52.1649 31.7698L54.1265 31.3799ZM53.7823 30.4901C53.6172 30.2125 53.4082 29.9698 53.1599 29.7652L51.8879 31.3085C51.9601 31.368 52.0172 31.4348 52.0631 31.5121L53.7823 30.4901ZM53.1599 29.7652C52.9069 29.5566 52.6232 29.3982 52.316 29.288L51.6406 31.1705C51.7401 31.2062 51.8201 31.2527 51.8879 31.3085L53.1599 29.7652ZM52.316 29.288C51.9945 29.1726 51.6592 29.1198 51.3184 29.1198V31.1198C51.4509 31.1198 51.5555 31.14 51.6406 31.1705L52.316 29.288ZM51.3184 29.1198C50.7535 29.1198 50.2203 29.2711 49.7431 29.5749L50.8171 31.2621C50.9655 31.1676 51.1246 31.1198 51.3184 31.1198V29.1198ZM49.7407 29.5764C49.2509 29.8902 48.8874 30.3353 48.6326 30.86L50.4317 31.7337C50.5522 31.4855 50.6874 31.3451 50.8195 31.2606L49.7407 29.5764ZM48.6317 30.8618C48.3636 31.4169 48.2535 32.0462 48.2535 32.7104H50.2535C50.2535 32.2588 50.3293 31.9457 50.4326 31.7319L48.6317 30.8618ZM48.2535 32.7104C48.2535 33.3773 48.3631 34.0091 48.6318 34.565L50.4325 33.6948C50.3297 33.482 50.2535 33.1673 50.2535 32.7104H48.2535ZM48.6335 34.5686C48.8887 35.0914 49.2522 35.5345 49.7407 35.8474L50.8195 34.1633C50.6862 34.0779 50.5509 33.9374 50.4308 33.6912L48.6335 34.5686ZM49.7469 35.8513C50.2237 36.1519 50.7556 36.301 51.3184 36.301V34.301C51.1225 34.301 50.9621 34.2531 50.8133 34.1593L49.7469 35.8513ZM51.3184 36.301C51.6592 36.301 51.9945 36.2482 52.316 36.1329L51.6406 34.2504C51.5555 34.2809 51.4509 34.301 51.3184 34.301V36.301ZM52.316 36.1329C52.6203 36.0237 52.9022 35.868 53.1543 35.6633L51.8935 34.1107C51.8249 34.1664 51.743 34.2136 51.6406 34.2504L52.316 36.1329ZM53.1599 35.6587C53.4082 35.454 53.6172 35.2113 53.7823 34.9337L52.0631 33.9117C52.0172 33.989 51.9601 34.0558 51.8879 34.1153L53.1599 35.6587ZM53.7778 34.9412C53.947 34.6621 54.0631 34.36 54.1265 34.041L52.1649 33.6511C52.146 33.746 52.1135 33.8285 52.0676 33.9042L53.7778 34.9412ZM53.1457 34.846H53.6971V32.846H53.1457V34.846ZM52.7122 33.6727C52.6824 33.8425 52.6277 33.9946 52.5492 34.1347L54.2936 35.1129C54.4848 34.7719 54.614 34.4055 54.682 34.0194L52.7122 33.6727ZM52.548 34.1367C52.4719 34.2733 52.376 34.3913 52.2565 34.4948L53.5656 36.0067C53.8606 35.7513 54.1048 35.4515 54.2948 35.1109L52.548 34.1367ZM52.2529 34.4978C52.1424 34.5944 52.011 34.674 51.85 34.7344L52.5524 36.607C52.9273 36.4664 53.2691 36.2659 53.5692 36.0037L52.2529 34.4978ZM51.85 34.7344C51.707 34.7881 51.5333 34.8215 51.3184 34.8215V36.8215C51.7447 36.8215 52.1596 36.7544 52.5524 36.607L51.85 34.7344ZM51.3184 34.8215C50.991 34.8215 50.7358 34.7419 50.5202 34.6016L49.4299 36.2783C49.9965 36.6468 50.6367 36.8215 51.3184 36.8215V34.8215ZM50.5231 34.6035C50.3002 34.4575 50.1084 34.2439 49.9559 33.9256L48.1522 34.7897C48.4455 35.4019 48.8678 35.9101 49.427 36.2764L50.5231 34.6035ZM49.9574 33.9287C49.813 33.6246 49.7227 33.2282 49.7227 32.7104H47.7227C47.7227 33.4585 47.8533 34.1603 48.1508 34.7867L49.9574 33.9287ZM49.7227 32.7104C49.7227 32.1927 49.813 31.7963 49.9574 31.4922L48.1508 30.6342C47.8533 31.2606 47.7227 31.9624 47.7227 32.7104H49.7227ZM49.9559 31.4952C50.1082 31.1775 50.2991 30.9659 50.5201 30.8222L49.4299 29.1455C48.8689 29.5102 48.4458 30.0184 48.1522 30.6311L49.9559 31.4952ZM50.5231 30.8203C50.7385 30.6791 50.9926 30.5994 51.3184 30.5994V28.5994C50.6352 28.5994 49.9938 28.7759 49.4269 29.1474L50.5231 30.8203ZM51.3184 30.5994C51.5333 30.5994 51.707 30.6328 51.85 30.6865L52.5524 28.8139C52.1596 28.6665 51.7447 28.5994 51.3184 28.5994V30.5994ZM51.856 30.6887C52.0123 30.7462 52.1404 30.8236 52.2489 30.9195L53.5732 29.4208C53.2711 29.1538 52.926 28.9512 52.5464 28.8116L51.856 30.6887ZM52.2567 30.9263C52.3759 31.0295 52.4718 31.1475 52.548 31.2842L54.2948 30.31C54.1049 29.9696 53.8607 29.6695 53.5654 29.414L52.2567 30.9263ZM52.5509 31.2893C52.6275 31.4248 52.682 31.5753 52.712 31.747L54.6822 31.4027C54.6143 31.0145 54.485 30.6465 54.2919 30.3049L52.5509 31.2893Z" fill="white" fill-opacity="0.15" mask="url(#path-37-inside-7_982_363)"/>
    <mask id="path-39-inside-8_982_363" fill="white">
        <path d="M43.2145 35.8215C42.7609 35.8215 42.3658 35.7042 42.0295 35.4696C41.6932 35.235 41.4321 34.9136 41.2464 34.5055C41.0626 34.0955 40.9707 33.6262 40.9707 33.0978V32.4177C40.9707 31.8696 41.0655 31.3836 41.2552 30.9598C41.4449 30.5359 41.7117 30.2037 42.0559 29.963C42.4001 29.7206 42.8038 29.5994 43.2672 29.5994C43.6642 29.5994 44.0142 29.6792 44.3173 29.8389C44.6223 29.9966 44.8668 30.2224 45.0506 30.5161C45.2344 30.8098 45.3429 31.1578 45.3762 31.56H44.8041C44.7689 31.2565 44.68 30.9972 44.5373 30.7823C44.3965 30.5673 44.2166 30.4037 43.9976 30.2913C43.7786 30.177 43.5371 30.1198 43.2732 30.1198C42.9114 30.1198 42.5995 30.2184 42.3375 30.4156C42.0754 30.6127 41.8731 30.8847 41.7303 31.2317C41.5896 31.5788 41.5192 31.9761 41.5192 32.4236V33.089C41.5192 33.5187 41.5877 33.9012 41.7245 34.2364C41.8614 34.5715 42.0569 34.8348 42.3111 35.026C42.5653 35.2152 42.8674 35.3099 43.2174 35.3099C43.4912 35.3079 43.7414 35.2507 43.9683 35.1384C44.1951 35.026 44.3818 34.8633 44.5284 34.6505C44.677 34.4355 44.7689 34.1782 44.8041 33.8786H45.3762C45.3409 34.2748 45.2285 34.6189 45.0388 34.9107C44.8511 35.2025 44.6008 35.4272 44.2879 35.5849C43.977 35.7427 43.6193 35.8215 43.2145 35.8215ZM41.4107 32.9944V32.4827H44.0592V32.9944H41.4107Z"/>
    </mask>
    <path d="M43.2145 35.8215C42.7609 35.8215 42.3658 35.7042 42.0295 35.4696C41.6932 35.235 41.4321 34.9136 41.2464 34.5055C41.0626 34.0955 40.9707 33.6262 40.9707 33.0978V32.4177C40.9707 31.8696 41.0655 31.3836 41.2552 30.9598C41.4449 30.5359 41.7117 30.2037 42.0559 29.963C42.4001 29.7206 42.8038 29.5994 43.2672 29.5994C43.6642 29.5994 44.0142 29.6792 44.3173 29.8389C44.6223 29.9966 44.8668 30.2224 45.0506 30.5161C45.2344 30.8098 45.3429 31.1578 45.3762 31.56H44.8041C44.7689 31.2565 44.68 30.9972 44.5373 30.7823C44.3965 30.5673 44.2166 30.4037 43.9976 30.2913C43.7786 30.177 43.5371 30.1198 43.2732 30.1198C42.9114 30.1198 42.5995 30.2184 42.3375 30.4156C42.0754 30.6127 41.8731 30.8847 41.7303 31.2317C41.5896 31.5788 41.5192 31.9761 41.5192 32.4236V33.089C41.5192 33.5187 41.5877 33.9012 41.7245 34.2364C41.8614 34.5715 42.0569 34.8348 42.3111 35.026C42.5653 35.2152 42.8674 35.3099 43.2174 35.3099C43.4912 35.3079 43.7414 35.2507 43.9683 35.1384C44.1951 35.026 44.3818 34.8633 44.5284 34.6505C44.677 34.4355 44.7689 34.1782 44.8041 33.8786H45.3762C45.3409 34.2748 45.2285 34.6189 45.0388 34.9107C44.8511 35.2025 44.6008 35.4272 44.2879 35.5849C43.977 35.7427 43.6193 35.8215 43.2145 35.8215ZM41.4107 32.9944V32.4827H44.0592V32.9944H41.4107Z" fill="#48A57E"/>
    <path d="M42.0295 35.4696L42.6018 34.6495L42.6016 34.6494L42.0295 35.4696ZM41.2464 34.5055L40.3339 34.9146L40.3362 34.9198L41.2464 34.5055ZM41.2552 30.9598L40.3424 30.5512L40.3423 30.5514L41.2552 30.9598ZM42.0559 29.963L42.6289 30.7826L42.6319 30.7805L42.0559 29.963ZM44.3173 29.8389L43.8511 30.7236L43.8581 30.7272L44.3173 29.8389ZM45.0506 30.5161L45.8983 29.9857L45.8982 29.9855L45.0506 30.5161ZM45.3762 31.56V32.56H46.4623L46.3728 31.4776L45.3762 31.56ZM44.8041 31.56L43.8108 31.6752L43.9134 32.56H44.8041V31.56ZM44.5373 30.7823L43.7008 31.3303L43.7043 31.3356L44.5373 30.7823ZM43.9976 30.2913L43.5348 31.1778L43.5411 31.181L43.9976 30.2913ZM42.3375 30.4156L42.9387 31.2146L42.9389 31.2145L42.3375 30.4156ZM41.7303 31.2317L40.8055 30.8513L40.8036 30.856L41.7303 31.2317ZM41.7245 34.2364L40.7987 34.6144L40.7988 34.6146L41.7245 34.2364ZM42.3111 35.026L41.71 35.8252L41.7139 35.8281L42.3111 35.026ZM43.2174 35.3099V36.3099L43.2246 36.3098L43.2174 35.3099ZM43.9683 35.1384L44.4121 36.0345L44.4123 36.0344L43.9683 35.1384ZM44.5284 34.6505L43.7059 34.0818L43.7049 34.0831L44.5284 34.6505ZM44.8041 33.8786V32.8786H43.9147L43.811 33.7619L44.8041 33.8786ZM45.3762 33.8786L46.3722 33.9671L46.4689 32.8786H45.3762V33.8786ZM45.0388 34.9107L44.2004 34.3656L44.1977 34.3697L45.0388 34.9107ZM44.2879 35.5849L43.8379 34.6919L43.8354 34.6932L44.2879 35.5849ZM41.4107 32.9944H40.4107V33.9944H41.4107V32.9944ZM41.4107 32.4827V31.4827H40.4107V32.4827H41.4107ZM44.0592 32.4827H45.0592V31.4827H44.0592V32.4827ZM44.0592 32.9944V33.9944H45.0592V32.9944H44.0592ZM43.2145 34.8215C42.9426 34.8215 42.7524 34.7546 42.6018 34.6495L41.4573 36.2897C41.9793 36.6539 42.5791 36.8215 43.2145 36.8215V34.8215ZM42.6016 34.6494C42.4258 34.5268 42.2752 34.3519 42.1566 34.0913L40.3362 34.9198C40.5891 35.4754 40.9605 35.9431 41.4574 36.2898L42.6016 34.6494ZM42.1589 34.0965C42.0421 33.8358 41.9707 33.5098 41.9707 33.0978H39.9707C39.9707 33.7427 40.0832 34.3552 40.3339 34.9146L42.1589 34.0965ZM41.9707 33.0978V32.4177H39.9707V33.0978H41.9707ZM41.9707 32.4177C41.9707 31.9853 42.0452 31.6425 42.168 31.3681L40.3423 30.5514C40.0858 31.1248 39.9707 31.7539 39.9707 32.4177H41.9707ZM42.1679 31.3683C42.2918 31.0916 42.4485 30.9087 42.6289 30.7826L41.4829 29.1435C40.9749 29.4986 40.598 29.9802 40.3424 30.5512L42.1679 31.3683ZM42.6319 30.7805C42.7904 30.6688 42.9882 30.5994 43.2672 30.5994V28.5994C42.6195 28.5994 42.0097 28.7723 41.4799 29.1456L42.6319 30.7805ZM43.2672 30.5994C43.5277 30.5994 43.713 30.6508 43.8511 30.7236L44.7835 28.9542C44.3153 28.7075 43.8007 28.5994 43.2672 28.5994V30.5994ZM43.8581 30.7272C44.0022 30.8018 44.1132 30.9033 44.2029 31.0466L45.8982 29.9855C45.6203 29.5415 45.2423 29.1914 44.7766 28.9506L43.8581 30.7272ZM44.2028 31.0465C44.289 31.1843 44.3573 31.3731 44.3796 31.6424L46.3728 31.4776C46.3285 30.9425 46.1797 30.4354 45.8983 29.9857L44.2028 31.0465ZM45.3762 30.56H44.8041V32.56H45.3762V30.56ZM45.7975 31.4448C45.7475 31.0136 45.6151 30.5976 45.3703 30.229L43.7043 31.3356C43.745 31.3968 43.7904 31.4993 43.8108 31.6752L45.7975 31.4448ZM45.3738 30.2343C45.1423 29.881 44.8341 29.5966 44.4541 29.4016L43.5411 31.181C43.5991 31.2108 43.6506 31.2536 43.7008 31.3303L45.3738 30.2343ZM44.4603 29.4048C44.0888 29.2109 43.6869 29.1198 43.2732 29.1198V31.1198C43.3872 31.1198 43.4683 31.1431 43.5348 31.1778L44.4603 29.4048ZM43.2732 29.1198C42.7182 29.1198 42.1896 29.2753 41.7362 29.6166L42.9389 31.2145C43.0095 31.1614 43.1046 31.1198 43.2732 31.1198V29.1198ZM41.7363 29.6165C41.3111 29.9364 41.0066 30.3625 40.8055 30.8513L42.6551 31.6122C42.7395 31.407 42.8398 31.2891 42.9387 31.2146L41.7363 29.6165ZM40.8036 30.856C40.606 31.3431 40.5192 31.8718 40.5192 32.4236H42.5192C42.5192 32.0804 42.5731 31.8144 42.657 31.6075L40.8036 30.856ZM40.5192 32.4236V33.089H42.5192V32.4236H40.5192ZM40.5192 33.089C40.5192 33.6246 40.6046 34.1391 40.7987 34.6144L42.6503 33.8584C42.5707 33.6634 42.5192 33.4128 42.5192 33.089H40.5192ZM40.7988 34.6146C40.9942 35.0929 41.2923 35.511 41.71 35.8252L42.9122 34.2268C42.8215 34.1586 42.7286 34.0501 42.6502 33.8582L40.7988 34.6146ZM41.7139 35.8281C42.1588 36.1593 42.676 36.3099 43.2174 36.3099V34.3099C43.0589 34.3099 42.9718 34.2712 42.9082 34.2239L41.7139 35.8281ZM43.2246 36.3098C43.6374 36.3069 44.0387 36.2194 44.4121 36.0345L43.5245 34.2423C43.4441 34.282 43.345 34.3089 43.2103 34.3099L43.2246 36.3098ZM44.4123 36.0344C44.7949 35.8448 45.111 35.5675 45.3519 35.2178L43.7049 34.0831C43.6526 34.1592 43.5952 34.2072 43.5243 34.2423L44.4123 36.0344ZM45.351 35.2191C45.606 34.8503 45.746 34.432 45.7973 33.9953L43.811 33.7619C43.7919 33.9245 43.7481 34.0208 43.7059 34.0818L45.351 35.2191ZM44.8041 34.8786H45.3762V32.8786H44.8041V34.8786ZM44.3801 33.7901C44.3572 34.0471 44.289 34.2294 44.2004 34.3656L45.8772 35.4558C46.1681 35.0084 46.3247 34.5025 46.3722 33.9671L44.3801 33.7901ZM44.1977 34.3697C44.1076 34.5098 43.993 34.6137 43.8379 34.6919L44.738 36.4779C45.2086 36.2408 45.5946 35.8952 45.8798 35.4517L44.1977 34.3697ZM43.8354 34.6932C43.6858 34.7691 43.4874 34.8215 43.2145 34.8215V36.8215C43.7511 36.8215 44.2683 36.7163 44.7405 36.4767L43.8354 34.6932ZM42.4107 32.9944V32.4827H40.4107V32.9944H42.4107ZM41.4107 33.4827H44.0592V31.4827H41.4107V33.4827ZM43.0592 32.4827V32.9944H45.0592V32.4827H43.0592ZM44.0592 31.9944H41.4107V33.9944H44.0592V31.9944Z" fill="white" fill-opacity="0.15" mask="url(#path-39-inside-8_982_363)"/>
    <path fill-rule="evenodd" clip-rule="evenodd" d="M19.0318 36.3566L34.9347 20.1969V24.3275L15.2845 45.0001L0 28.9268V24.5554C1.71823 26.3308 3.43602 28.1063 5.15349 29.8818L19.0318 11.0034V36.3566ZM7.57689 32.4795L12.0132 37.0821V26.5937L7.57689 32.4795Z" fill="#48A57E"/>
    <path d="M18.5318 36.3566V37.5775L19.3882 36.7073L34.4347 21.4178V24.1278L15.2844 44.2744L0.5 28.727V25.791C1.93164 27.2705 3.36298 28.7499 4.79411 30.2295L5.2057 30.655L5.55635 30.178L18.5318 12.5277V36.3566ZM7.17761 32.1785L6.92078 32.5193L7.21689 32.8265L11.6532 37.4291L12.5132 38.3213V37.0821V26.5937V25.0996L11.6139 26.2927L7.17761 32.1785Z" stroke="white" stroke-opacity="0.15"/>
    <path d="M7.57617 32.4715L15.2798 18.4883V40.2803L12.0086 37.0702V26.5857L7.57617 32.4715Z" fill="#34825E"/>
    <path d="M11.6092 26.2849L11.4086 26.5513L14.7798 20.432V39.0891L12.5086 36.8603V26.5857V25.0906L11.6092 26.2849Z" stroke="white" stroke-opacity="0.15"/>
    <path d="M3.34961 0V23.2466L6.21134 26.8942V3.15762H24.6776V26.8942L27.5933 23.2466V0H3.34961Z" fill="white"/>
    <path d="M6.21134 2.65762H5.71134V3.15762V25.4469L3.84961 23.0739V0.5H27.0933V23.0713L25.1776 25.4679V3.15762V2.65762H24.6776H6.21134Z" stroke="white" stroke-opacity="0.15"/>
</svg>