<svg width="44" height="44" viewBox="0 0 44 44" fill="none" xmlns="http://www.w3.org/2000/svg">
<g id="fi_145807" clip-path="url(#clip0_1053_2677)">
<g id="Group">
<path id="Vector" d="M22 43.9996C34.1503 43.9996 44 34.1499 44 21.9996C44 9.84937 34.1503 -0.000366211 22 -0.000366211C9.84974 -0.000366211 0 9.84937 0 21.9996C0 34.1499 9.84974 43.9996 22 43.9996Z" fill="#007AB9"/>
<g id="Group_2">
<path id="Vector_2" d="M35.1447 23.7699V32.8401H29.8861V24.3778C29.8861 22.253 29.1269 20.802 27.2229 20.802C25.7699 20.802 24.9067 21.7789 24.5255 22.7248C24.3871 23.0629 24.3514 23.5323 24.3514 24.0064V32.8397H19.0924C19.0924 32.8397 19.163 18.5074 19.0924 17.0238H24.3518V19.2651C24.3412 19.2827 24.3263 19.3 24.3169 19.3168H24.3518V19.2651C25.0507 18.1897 26.297 16.6524 29.0912 16.6524C32.5509 16.6524 35.1447 18.9129 35.1447 23.7699ZM13.591 9.40002C11.7921 9.40002 10.6152 10.5809 10.6152 12.1323C10.6152 13.6508 11.758 14.8657 13.522 14.8657H13.5561C15.3903 14.8657 16.5307 13.6508 16.5307 12.1323C16.4958 10.5809 15.3903 9.40002 13.591 9.40002ZM10.9278 32.8401H16.1848V17.0238H10.9278V32.8401Z" fill="white"/>
</g>
</g>
</g>
<defs>
<clipPath id="clip0_1053_2677">
<rect width="44" height="44" fill="white"/>
</clipPath>
</defs>
</svg>
