<svg width="26" height="26" viewBox="0 0 26 26" fill="none" xmlns="http://www.w3.org/2000/svg">
<g id="fi_300221" clip-path="url(#clip0_1053_2660)">
<path id="Vector" d="M25.0185 10.7396L14.4133 10.7391C13.945 10.7391 13.5654 11.1187 13.5654 11.587V14.9749C13.5654 15.4431 13.945 15.8227 14.4133 15.8227H20.3855C19.7315 17.5199 18.5109 18.9412 16.9537 19.8443L19.5002 24.2525C23.5851 21.89 26.0002 17.7448 26.0002 13.1045C26.0002 12.4438 25.9515 11.9715 25.8541 11.4397C25.78 11.0356 25.4292 10.7396 25.0185 10.7396Z" fill="#167EE6"/>
<path id="Vector_2" d="M13.0001 20.913C10.0775 20.913 7.52601 19.3161 6.15568 16.9531L1.74756 19.4939C3.99082 23.3818 8.19317 26 13.0001 26C15.3583 26 17.5833 25.365 19.5001 24.2586V24.2525L16.9536 19.8442C15.7888 20.5198 14.4408 20.913 13.0001 20.913Z" fill="#12B347"/>
<path id="Vector_3" d="M19.5 24.2586V24.2526L16.9535 19.8442C15.7887 20.5198 14.4408 20.913 13 20.913V26C15.3581 26 17.5833 25.3651 19.5 24.2586Z" fill="#0F993E"/>
<path id="Vector_4" d="M5.08696 13.0001C5.08696 11.5594 5.48011 10.2117 6.15555 9.04689L1.74743 6.5061C0.634867 8.41685 0 10.6359 0 13.0001C0 15.3642 0.634867 17.5833 1.74743 19.494L6.15555 16.9532C5.48011 15.7885 5.08696 14.4407 5.08696 13.0001Z" fill="#FFD500"/>
<path id="Vector_5" d="M13.0001 5.08696C14.906 5.08696 16.6566 5.76418 18.024 6.89066C18.3614 7.16853 18.8516 7.14848 19.1607 6.83947L21.5611 4.43904C21.9117 4.08845 21.8867 3.51457 21.5122 3.18967C19.2212 1.20214 16.2403 0 13.0001 0C8.19317 0 3.99082 2.61813 1.74756 6.50604L6.15568 9.04683C7.52601 6.68383 10.0775 5.08696 13.0001 5.08696Z" fill="#FF4B26"/>
<path id="Vector_6" d="M18.0239 6.89066C18.3612 7.16853 18.8516 7.14848 19.1605 6.83947L21.561 4.43904C21.9115 4.08845 21.8865 3.51457 21.5121 3.18967C19.2211 1.20209 16.2402 0 13 0V5.08696C14.9058 5.08696 16.6565 5.76418 18.0239 6.89066Z" fill="#D93F21"/>
</g>
<defs>
<clipPath id="clip0_1053_2660">
<rect width="26" height="26" fill="white"/>
</clipPath>
</defs>
</svg>
