<svg width="44" height="44" viewBox="0 0 44 44" fill="none" xmlns="http://www.w3.org/2000/svg">
<g id="fi_15707749" clip-path="url(#clip0_1053_2671)">
<path id="Vector" d="M22 44C9.8516 44 0 34.1484 0 22C0 9.8516 9.8516 0 22 0C34.1484 0 44 9.8516 44 22C44 34.1484 34.1484 44 22 44Z" fill="url(#paint0_linear_1053_2671)"/>
<g id="Group">
<path id="Vector_2" d="M22.0001 9.68879C26.0085 9.68879 26.4837 9.70199 28.0677 9.77679C29.5329 9.84279 30.3293 10.0892 30.8573 10.296C31.5569 10.5688 32.0585 10.8944 32.5821 11.418C33.1057 11.9416 33.4313 12.4432 33.7041 13.1428C33.9109 13.6708 34.1529 14.4672 34.2233 15.9324C34.2937 17.5164 34.3113 17.9916 34.3113 22C34.3113 26.0084 34.2981 26.4836 34.2233 28.0676C34.1573 29.5328 33.9109 30.3292 33.7041 30.8572C33.4313 31.5568 33.1057 32.0584 32.5821 32.582C32.0585 33.1056 31.5569 33.4312 30.8573 33.704C30.3293 33.9108 29.5329 34.1528 28.0677 34.2232C26.4837 34.2936 26.0085 34.3112 22.0001 34.3112C17.9917 34.3112 17.5165 34.298 15.9325 34.2232C14.4673 34.1572 13.6709 33.9108 13.1429 33.704C12.4433 33.4312 11.9417 33.1056 11.4181 32.582C10.8945 32.0584 10.5689 31.5568 10.2961 30.8572C10.0893 30.3292 9.84732 29.5328 9.77692 28.0676C9.70652 26.4836 9.68892 26.0084 9.68892 22C9.68892 17.9916 9.70212 17.5164 9.77692 15.9324C9.84292 14.4672 10.0893 13.6708 10.2961 13.1428C10.5689 12.4432 10.8945 11.9416 11.4181 11.418C11.9417 10.8944 12.4433 10.5688 13.1429 10.296C13.6709 10.0892 14.4673 9.84719 15.9325 9.77679C17.5165 9.70199 17.9917 9.68879 22.0001 9.68879ZM22.0001 6.98279C17.9213 6.98279 17.4109 7.00039 15.8093 7.07519C14.2121 7.14999 13.1209 7.40079 12.1617 7.77479C11.1761 8.15319 10.3357 8.66799 9.50412 9.50399C8.66812 10.34 8.15772 11.176 7.77052 12.166C7.40092 13.1208 7.14572 14.212 7.07092 15.8136C6.99612 17.4152 6.97852 17.9256 6.97852 22.0044C6.97852 26.0832 6.99612 26.5936 7.07092 28.1952C7.14572 29.7924 7.39652 30.8836 7.77052 31.8428C8.15332 32.824 8.66812 33.6644 9.50412 34.496C10.3401 35.332 11.1761 35.8424 12.1661 36.2296C13.1209 36.5992 14.2121 36.8544 15.8137 36.9292C17.4153 37.004 17.9257 37.0216 22.0045 37.0216C26.0833 37.0216 26.5937 37.004 28.1953 36.9292C29.7925 36.8544 30.8837 36.6036 31.8429 36.2296C32.8241 35.8468 33.6645 35.332 34.4961 34.496C35.3321 33.66 35.8425 32.824 36.2297 31.834C36.5993 30.8792 36.8545 29.788 36.9293 28.1864C37.0041 26.5848 37.0217 26.0744 37.0217 21.9956C37.0217 17.9168 37.0041 17.4064 36.9293 15.8048C36.8545 14.2076 36.6037 13.1164 36.2297 12.1572C35.8469 11.176 35.3321 10.3356 34.4961 9.50399C33.6601 8.66799 32.8241 8.15759 31.8341 7.77039C30.8793 7.40079 29.7881 7.14559 28.1865 7.07079C26.5893 7.00039 26.0789 6.98279 22.0001 6.98279Z" fill="white"/>
<path id="Vector_3" d="M22.0003 14.2867C17.7411 14.2867 14.2871 17.7407 14.2871 21.9999C14.2871 26.2591 17.7411 29.7131 22.0003 29.7131C26.2595 29.7131 29.7135 26.2591 29.7135 21.9999C29.7135 17.7407 26.2595 14.2867 22.0003 14.2867ZM22.0003 27.0071C19.2371 27.0071 16.9931 24.7675 16.9931 21.9999C16.9931 19.2323 19.2371 16.9927 22.0003 16.9927C24.7635 16.9927 27.0075 19.2323 27.0075 21.9999C27.0075 24.7675 24.7635 27.0071 22.0003 27.0071Z" fill="white"/>
<path id="Vector_4" d="M30.0169 15.7872C31.0132 15.7872 31.8209 14.9795 31.8209 13.9832C31.8209 12.9869 31.0132 12.1792 30.0169 12.1792C29.0206 12.1792 28.2129 12.9869 28.2129 13.9832C28.2129 14.9795 29.0206 15.7872 30.0169 15.7872Z" fill="white"/>
</g>
</g>
<defs>
<linearGradient id="paint0_linear_1053_2671" x1="6.44367" y1="37.5564" x2="37.5564" y2="6.44367" gradientUnits="userSpaceOnUse">
<stop stop-color="#FFD521"/>
<stop offset="0.0551048" stop-color="#FFD020"/>
<stop offset="0.1241" stop-color="#FEC01E"/>
<stop offset="0.2004" stop-color="#FCA71B"/>
<stop offset="0.2821" stop-color="#FA8316"/>
<stop offset="0.3681" stop-color="#F85510"/>
<stop offset="0.4563" stop-color="#F51E09"/>
<stop offset="0.5" stop-color="#F30005"/>
<stop offset="0.5035" stop-color="#F20007"/>
<stop offset="0.5966" stop-color="#E1003B"/>
<stop offset="0.6879" stop-color="#D30067"/>
<stop offset="0.7757" stop-color="#C70088"/>
<stop offset="0.8589" stop-color="#BF00A0"/>
<stop offset="0.9357" stop-color="#BB00AF"/>
<stop offset="1" stop-color="#B900B4"/>
</linearGradient>
<clipPath id="clip0_1053_2671">
<rect width="44" height="44" fill="white"/>
</clipPath>
</defs>
</svg>
