<svg width="44" height="44" viewBox="0 0 44 44" fill="none" xmlns="http://www.w3.org/2000/svg">
<g id="fi_5969020" clip-path="url(#clip0_1053_2654)">
<g id="Group">
<path id="Vector" d="M0.5 22C0.5 10.1263 10.1263 0.5 22 0.5C33.8737 0.5 43.5 10.1263 43.5 22C43.5 33.8737 33.8737 43.5 22 43.5C10.1263 43.5 0.5 33.8737 0.5 22Z" fill="black" stroke="black"/>
<path id="Vector_2" d="M24.4066 20.0091L33.8246 9.06152H31.5928L23.4152 18.5672L16.8838 9.06152H9.35059L19.2273 23.4357L9.35059 34.916H11.5825L20.2182 24.8777L27.1159 34.916H34.6491L24.406 20.0091H24.4066ZM12.3866 10.7417H15.8146L31.5938 33.3122H28.1658L12.3866 10.7417Z" fill="white"/>
</g>
</g>
<defs>
<clipPath id="clip0_1053_2654">
<rect width="44" height="44" fill="white"/>
</clipPath>
</defs>
</svg>
