<svg xmlns="http://www.w3.org/2000/svg" width="24" height="24" viewBox="0 0 24 24" fill="none">
    <mask id="mask0_1057_1156" style="mask-type:alpha" maskUnits="userSpaceOnUse" x="0" y="0" width="24" height="24">
        <rect width="24" height="24" fill="#D9D9D9"/>
    </mask>
    <g mask="url(#mask0_1057_1156)">
        <path d="M20.95 22.3739L18 19.4239V21.6489H16V15.9989H21.65V17.9989H19.4L22.35 20.9489L20.95 22.3739ZM12 21.9989C10.6167 21.9989 9.31667 21.7364 8.1 21.2114C6.88333 20.6864 5.825 19.9739 4.925 19.0739C4.025 18.1739 3.3125 17.1155 2.7875 15.8989C2.2625 14.6822 2 13.3822 2 11.9989C2 10.6155 2.2625 9.31554 2.7875 8.09887C3.3125 6.8822 4.025 5.82387 4.925 4.92387C5.825 4.02387 6.88333 3.31137 8.1 2.78637C9.31667 2.26137 10.6167 1.99887 12 1.99887C13.3833 1.99887 14.6833 2.26137 15.9 2.78637C17.1167 3.31137 18.175 4.02387 19.075 4.92387C19.975 5.82387 20.6875 6.8822 21.2125 8.09887C21.7375 9.31554 22 10.6155 22 11.9989C22 12.3322 21.9833 12.6655 21.95 12.9989C21.9167 13.3322 21.8667 13.6655 21.8 13.9989H19.75C19.8333 13.6655 19.8958 13.3322 19.9375 12.9989C19.9792 12.6655 20 12.3322 20 11.9989C20 11.6655 19.9792 11.3322 19.9375 10.9989C19.8958 10.6655 19.8333 10.3322 19.75 9.99887H16.35C16.4 10.3322 16.4375 10.6655 16.4625 10.9989C16.4875 11.3322 16.5 11.6655 16.5 11.9989C16.5 12.3322 16.4875 12.6655 16.4625 12.9989C16.4375 13.3322 16.4 13.6655 16.35 13.9989H14.35C14.4 13.6655 14.4375 13.3322 14.4625 12.9989C14.4875 12.6655 14.5 12.3322 14.5 11.9989C14.5 11.6655 14.4875 11.3322 14.4625 10.9989C14.4375 10.6655 14.4 10.3322 14.35 9.99887H9.65C9.6 10.3322 9.5625 10.6655 9.5375 10.9989C9.5125 11.3322 9.5 11.6655 9.5 11.9989C9.5 12.3322 9.5125 12.6655 9.5375 12.9989C9.5625 13.3322 9.6 13.6655 9.65 13.9989H13V15.9989H10.1C10.3 16.7155 10.5583 17.403 10.875 18.0614C11.1917 18.7197 11.5667 19.3489 12 19.9489C12.3333 19.9489 12.6667 19.928 13 19.8864C13.3333 19.8447 13.6667 19.8072 14 19.7739V21.8239C13.6667 21.8572 13.3333 21.8947 13 21.9364C12.6667 21.978 12.3333 21.9989 12 21.9989ZM4.25 13.9989H7.65C7.6 13.6655 7.5625 13.3322 7.5375 12.9989C7.5125 12.6655 7.5 12.3322 7.5 11.9989C7.5 11.6655 7.5125 11.3322 7.5375 10.9989C7.5625 10.6655 7.6 10.3322 7.65 9.99887H4.25C4.16667 10.3322 4.10417 10.6655 4.0625 10.9989C4.02083 11.3322 4 11.6655 4 11.9989C4 12.3322 4.02083 12.6655 4.0625 12.9989C4.10417 13.3322 4.16667 13.6655 4.25 13.9989ZM5.1 7.99887H8.05C8.2 7.3822 8.3875 6.77804 8.6125 6.18637C8.8375 5.5947 9.1 5.01554 9.4 4.44887C8.48333 4.74887 7.65833 5.20304 6.925 5.81137C6.19167 6.4197 5.58333 7.14887 5.1 7.99887ZM9.4 19.5489C9.1 18.9822 8.8375 18.403 8.6125 17.8114C8.3875 17.2197 8.2 16.6155 8.05 15.9989H5.1C5.58333 16.8489 6.19167 17.578 6.925 18.1864C7.65833 18.7947 8.48333 19.2489 9.4 19.5489ZM10.1 7.99887H13.9C13.7 7.2822 13.4417 6.5947 13.125 5.93637C12.8083 5.27804 12.4333 4.64887 12 4.04887C11.5667 4.64887 11.1917 5.27804 10.875 5.93637C10.5583 6.5947 10.3 7.2822 10.1 7.99887ZM15.95 7.99887H18.9C18.4167 7.14887 17.8083 6.4197 17.075 5.81137C16.3417 5.20304 15.5167 4.74887 14.6 4.44887C14.9 5.01554 15.1625 5.5947 15.3875 6.18637C15.6125 6.77804 15.8 7.3822 15.95 7.99887Z" fill="#2FC385"/>
    </g>
</svg>