<svg xmlns="http://www.w3.org/2000/svg" width="44" height="44" viewBox="0 0 44 44" fill="none">
    <path d="M32.0002 31.9997V24.6747C32.0002 21.0747 31.2252 18.3247 27.0252 18.3247C25.0002 18.3247 23.6502 19.4247 23.1002 20.4747H23.0502V18.6497H19.0752V31.9997H23.2252V25.3747C23.2252 23.6247 23.5502 21.9497 25.7002 21.9497C27.8252 21.9497 27.8502 23.9247 27.8502 25.4747V31.9747H32.0002V31.9997Z" fill="white"/>
    <path d="M12.3252 18.6504H16.4752V32.0004H12.3252V18.6504Z" fill="white"/>
    <path d="M14.4 12C13.075 12 12 13.075 12 14.4C12 15.725 13.075 16.825 14.4 16.825C15.725 16.825 16.8 15.725 16.8 14.4C16.8 13.075 15.725 12 14.4 12Z" fill="white"/>
</svg>